<svg width="49" height="35" viewBox="0 0 49 35" fill="none" xmlns="http://www.w3.org/2000/svg">
<path d="M47.7352 9.23822L24.91 0.10833C24.545 -0.03611 24.1417 -0.03611 23.7762 0.10833L0.951065 9.23822C0.380445 9.47454 0 10.0298 0 10.6537C0 11.2779 0.380408 11.8328 0.95857 12.0684L1.52168 12.2965V31.9567C0.684701 31.9567 2.7932e-05 32.6414 2.7932e-05 33.4784C2.7932e-05 34.3153 0.684701 35 1.52168 35H4.56461C5.40158 35 6.08626 34.3153 6.08626 33.4784C6.08626 32.6414 5.40158 31.9567 4.56461 31.9567V13.5065L7.60754 14.724V21.3053C7.60754 25.7108 14.6452 28.9136 24.3461 28.9136C34.0462 28.9136 41.0847 25.7108 41.0847 21.3053L41.0851 14.7243L47.7347 12.061C48.3132 11.8329 48.6937 11.2773 48.6937 10.6538C48.6937 10.0296 48.3133 9.47466 47.7351 9.23833L47.7352 9.23822ZM38.0424 21.3052C38.0424 22.8952 33.3405 25.8705 24.348 25.8705C15.3555 25.8705 10.6536 22.8959 10.6536 21.3052V15.9413L23.7851 21.1912C23.9678 21.2595 24.1577 21.2977 24.3482 21.2977C24.5381 21.2977 24.7286 21.2595 24.9113 21.1912L38.0428 15.9413L38.0424 21.3052ZM38.9706 12.2969L24.3481 18.1479L9.72473 12.2973L5.62383 10.6537L24.3486 3.1595L43.0797 10.6537L38.9706 12.2969Z" fill="white"/>
</svg>
