<svg width="41" height="42" viewBox="0 0 41 42" fill="none" xmlns="http://www.w3.org/2000/svg">
<path d="M37.5405 6.4161V5.93105C37.5405 5.44599 37.217 5.12253 36.732 5.12253C36.2469 5.12253 35.9234 5.44599 35.9234 5.93105V8.43725C35.9234 8.9223 36.2469 9.24576 36.732 9.24576C37.217 9.24576 37.5405 8.9223 37.5405 8.43725V8.03286C37.8639 8.19445 38.1874 8.59885 38.1874 9.0839V11.5092C38.1874 14.0154 36.1662 15.9556 33.741 15.9556C31.2348 15.9556 29.2946 13.9344 29.2946 11.5092V9.0839C29.2946 8.67978 29.5371 8.27538 29.9412 8.11379V8.43725C29.9412 8.92231 30.2647 9.24577 30.7497 9.24577C31.2348 9.24577 31.5582 8.92231 31.5582 8.43725V5.93105C31.5582 5.446 31.2348 5.12254 30.7497 5.12254C30.2647 5.12254 29.9412 5.446 29.9412 5.93105V6.41611C28.567 6.65863 27.5969 7.7094 27.5969 9.0839V11.5092C27.5969 14.5811 29.8605 17.1682 32.8515 17.5723V27.597C32.8515 28.7287 31.9623 29.6988 30.7497 29.6988C29.618 29.6988 28.6479 28.8096 28.6479 27.597V21.3722C28.6479 19.513 27.2737 18.0578 25.576 17.8153V4.23378C25.576 2.45516 24.1208 1 22.3422 1H4.23378C2.45516 1 1 2.45516 1 4.23378V37.7662C1 39.5448 2.45516 41 4.23378 41H22.4233C24.2019 41 25.6571 39.5448 25.6571 37.7662L25.6568 19.3515C26.546 19.594 27.112 20.4026 27.112 21.2917V27.5165C27.112 29.5376 28.7287 31.2353 30.8308 31.2353C32.8519 31.2353 34.5496 29.6186 34.5496 27.5165V17.4925C37.4599 17.169 39.8043 14.5822 39.8043 11.5103V9.08501C39.8043 7.71051 38.8342 6.57881 37.5406 6.41721L37.5405 6.4161ZM24.04 37.7651C24.04 38.6543 23.3125 39.3819 22.4233 39.3819L4.23379 39.3821C3.34462 39.3821 2.61704 38.6545 2.61704 37.7654V34.6125H24.0405L24.04 37.7651ZM24.04 17.6527H19.8362C19.3511 15.7934 17.6534 14.4189 15.5516 14.4189C13.1263 14.4189 11.1052 16.4401 11.1052 18.8653C11.1052 21.2906 13.1263 23.3118 15.5516 23.3118C17.8153 23.3118 19.6746 21.6141 19.9171 19.3504H23.9591V33.076L2.61676 33.0763V8.75987H24.0402L24.04 17.6527ZM18.3003 18.7847C18.3003 20.3208 17.0068 21.6141 15.471 21.6141C13.9349 21.6141 12.6416 20.3205 12.6416 18.7847C12.6416 17.2486 13.9351 15.9553 15.471 15.9553C17.0877 15.955 18.3003 17.2486 18.3003 18.7847ZM24.04 7.1434H2.61662V4.23308C2.61662 3.34391 3.3442 2.61633 4.23337 2.61633H22.4229C23.312 2.61633 24.0396 3.34391 24.0396 4.23308L24.04 7.1434Z" fill="white" stroke="white" stroke-width="0.5"/>
</svg>
