<svg width="49" height="60" viewBox="0 0 49 60" fill="none" xmlns="http://www.w3.org/2000/svg">
<path d="M13.7856 32.1429C12.6021 32.1429 11.6428 33.1022 11.6428 34.2857C11.6428 35.4692 12.6021 36.4286 13.7856 36.4286H35.2142C36.3976 36.4286 37.357 35.4692 37.357 34.2857C37.357 33.1022 36.3976 32.1429 35.2142 32.1429H13.7856Z" fill="#232020"/>
<path d="M13.7856 42.8571C12.6021 42.8571 11.6428 43.8165 11.6428 45C11.6428 46.1835 12.6021 47.1429 13.7856 47.1429H35.2142C36.3976 47.1429 37.357 46.1835 37.357 45C37.357 43.8165 36.3976 42.8571 35.2142 42.8571H13.7856Z" fill="#232020"/>
<path fill-rule="evenodd" clip-rule="evenodd" d="M9.4999 0C7.22661 0 5.04643 0.903059 3.43898 2.51051C1.83153 4.11797 0.928467 6.29814 0.928467 8.57143V51.4286C0.928467 53.7019 1.83153 55.882 3.43898 57.4895C5.04643 59.0969 7.22661 60 9.4999 60H39.4999C41.7732 60 43.9534 59.0969 45.5608 57.4895C47.1683 55.882 48.0713 53.7019 48.0713 51.4286V25.3457C48.0711 23.6413 47.394 22.0068 46.189 20.8015L27.27 1.88254L27.2699 1.88237C26.0645 0.67733 24.43 0.000257492 22.7257 0H9.4999ZM6.46944 5.54097C7.27317 4.73724 8.36325 4.28571 9.4999 4.28571H22.357V19.2857C22.357 20.9907 23.0343 22.6258 24.2399 23.8314C25.4455 25.037 27.0806 25.7143 28.7856 25.7143H43.7856V51.4286C43.7856 52.5652 43.3341 53.6553 42.5303 54.459C41.7266 55.2628 40.6365 55.7143 39.4999 55.7143H9.4999C8.36325 55.7143 7.27316 55.2628 6.46944 54.459C5.66571 53.6553 5.21418 52.5652 5.21418 51.4286V8.57143C5.21418 7.43479 5.66571 6.3447 6.46944 5.54097ZM40.7551 21.4286L26.6428 7.31617V19.2857C26.6428 19.854 26.8685 20.3991 27.2704 20.8009C27.6722 21.2028 28.2173 21.4286 28.7856 21.4286H40.7551Z" fill="#232020"/>
</svg>
