<svg width="40" height="40" viewBox="0 0 40 40" fill="none" xmlns="http://www.w3.org/2000/svg">
<path d="M23.3216 27.5734C23.0112 27.3293 22.7475 27.0439 22.4386 26.8936C20.4375 25.9131 18.3589 25.2968 16.2095 25.0234C14.3099 24.7813 12.4643 25.0012 10.6887 25.8929C10.5647 25.9555 10.4299 26.0019 10.2969 26.019C9.86199 26.0755 9.50955 25.8213 9.38822 25.3825C9.25159 24.8893 9.39633 24.3516 9.81625 24.1458C10.4687 23.825 11.1418 23.5557 11.8201 23.3247C13.6935 22.6872 15.5917 22.8062 17.4844 23.1613C19.424 23.5255 21.3221 24.0994 23.1262 25.0516C23.5437 25.2726 23.9557 25.559 24.3018 25.9131C24.8278 26.4507 25.0769 27.1659 24.9471 28.0243C24.9244 28.1746 24.9193 28.328 24.895 28.6084C25.7899 28.4379 26.6071 28.2564 27.4303 28.1323C29.2087 27.863 30.989 27.6108 32.7712 27.3818C33.2005 27.3273 33.6402 27.3929 34.0752 27.4C35.8467 27.4262 36.5943 29.7644 35.9074 31.3531C35.6267 32.0027 35.1877 32.5888 34.7321 33.0851C33.4627 34.468 31.9251 35.3214 30.3575 36.084C27.2957 37.5759 24.1117 38.5231 20.8665 39.2272C18.3226 39.7789 15.78 39.7426 13.2266 39.4501C12.1982 39.3321 11.1712 39.1959 10.1442 39.0618C9.98357 39.0406 9.81584 39.0113 9.66951 38.9357C9.32241 38.7551 9.14297 38.3355 9.19381 37.8937C9.25016 37.4034 9.52903 37.0756 9.9717 37.0625C10.3235 37.0524 10.6773 37.1109 11.0294 37.1492C12.4644 37.3046 13.8984 37.475 15.3342 37.6193C17.2745 37.813 19.1871 37.5275 21.093 37.1119C24.5019 36.3685 27.8306 35.2972 30.9804 33.5299C31.8138 33.0629 32.611 32.4778 33.3714 31.8534C33.7608 31.5337 34.0953 31.0505 34.3412 30.5593C34.6725 29.8965 34.4188 29.37 33.7659 29.3841C32.7079 29.4063 31.6429 29.4628 30.5959 29.6363C28.1191 30.0458 25.6509 30.531 23.1802 30.995C22.9408 31.0394 22.6989 31.1161 22.4754 31.228C20.5725 32.1823 18.5894 32.0804 16.6035 31.8666C15.9942 31.801 15.6699 31.2886 15.7476 30.6894C15.8244 30.0963 16.2469 29.7614 16.8594 29.8602C18.1087 30.064 19.3534 30.0781 20.5949 29.7967C21.5543 29.5788 22.42 29.144 23.0381 28.1777C23.1332 28.0284 23.1943 27.8478 23.3216 27.5734Z" fill="white"/>
<path d="M10.45 15.5386C10.5599 7.91152 15.2966 2.4158 21.0067 0.643988C27.8926 -1.49235 35.2274 1.82819 38.3443 8.46726C41.0124 14.1502 40.4166 19.639 36.8435 24.7642C36.7162 24.9474 36.5764 25.1277 36.4127 25.2741C36.0359 25.6087 35.5693 25.6237 35.2113 25.3408C34.8792 25.0779 34.7414 24.5291 34.9389 24.1078C35.0465 23.8778 35.2125 23.6756 35.3631 23.4694C40.799 16.0266 37.5001 5.33396 28.9241 2.60303C21.5725 0.260534 13.8014 5.28018 12.5766 13.1343C12.277 15.0565 12.3817 16.9379 12.8241 18.8143C12.8612 18.9707 12.9226 19.123 12.9436 19.2824C13.0193 19.8551 12.7984 20.2425 12.3057 20.4288C11.8435 20.604 11.3778 20.4357 11.1685 19.881C10.9323 19.2545 10.7598 18.5882 10.6605 17.9229C10.532 17.0604 10.5031 16.183 10.45 15.5386Z" fill="white"/>
<path d="M5.89301 37.9398C6.36687 33.6326 6.38234 29.4726 6.01451 25.3248C5.02554 25.0968 2.32296 25.1361 1.72174 25.3883C2.28171 29.3859 2.23445 33.4308 2.08178 37.5494C3.36851 37.6806 4.5773 37.8046 5.89301 37.9398ZM3.73867 23.1439C4.44603 23.1439 5.15387 23.1237 5.86065 23.149C7.03614 23.1893 7.58701 23.8399 7.7111 25.2471C8.07208 29.3425 7.99733 33.4339 7.66938 37.5242C7.49044 39.7575 6.73278 40.1701 5.13594 39.9462C4.13759 39.8069 3.13517 39.7101 2.13486 39.5911C1.94574 39.5679 1.75488 39.5467 1.56995 39.4973C0.813503 39.2935 0.399505 38.7044 0.374805 37.7784C0.364328 37.386 0.370532 36.9896 0.401888 36.5982C0.702552 32.8498 0.455947 29.1297 0.0325337 25.4166C-0.142837 23.8783 0.38774 23.156 1.69822 23.1369C2.37826 23.1268 3.05854 23.1348 3.73865 23.1348C3.73867 23.1379 3.73867 23.1409 3.73867 23.1439Z" fill="white"/>
<path d="M24.9604 21.7717C24.1822 21.5726 23.5589 21.4774 23.0063 21.2543C22.3853 21.0042 21.7903 20.6791 21.2535 20.3126C20.6306 19.8865 20.5515 19.346 20.9338 18.9228C21.3863 18.4226 21.9694 18.3553 22.6423 18.8304C23.6298 19.5268 24.7491 19.8173 26.0009 19.7682C26.4356 19.7509 26.8794 19.698 27.2967 19.5951C28.8812 19.2056 29.6239 17.8148 28.9709 16.524C28.7353 16.0575 28.3231 15.7535 27.7715 15.6314C27.066 15.4736 26.3428 15.3736 25.6254 15.2572C25.267 15.1986 24.8998 15.1764 24.5448 15.1082C22.1653 14.6446 20.8837 13.4461 20.7214 11.66C20.5168 9.4093 21.9736 7.84921 24.0854 7.24133C24.3238 7.17304 24.5653 7.11245 24.9218 7.01627C24.9218 6.34299 24.9218 5.67162 24.9218 4.94543C25.7285 4.94543 26.4053 4.94543 27.1943 4.94543C27.1943 5.61679 27.1943 6.2593 27.1943 6.87103C28.0563 7.12687 28.8163 7.33463 29.5575 7.58278C29.8579 7.68377 30.1615 7.83671 30.3848 8.03196C30.7035 8.31089 30.8568 8.65619 30.617 9.05919C30.3723 9.4699 29.9957 9.68727 29.4675 9.61321C29.1882 9.57474 28.9205 9.45258 28.6588 9.34774C27.4495 8.86298 26.198 8.75526 24.9152 9.06978C23.3229 9.46028 22.5589 10.7838 23.1377 12.1072C23.3442 12.5785 23.7403 12.9065 24.2997 13.0296C25.0046 13.1855 25.7244 13.297 26.4434 13.398C27.4538 13.5404 28.4707 13.6404 29.372 14.1155C30.9878 14.9677 31.5542 16.2614 31.4311 17.7974C31.3029 19.395 30.3511 20.556 28.6351 21.2293C28.207 21.3966 27.7523 21.5149 27.2083 21.689C27.2083 22.3613 27.2083 23.0337 27.2083 23.7646C26.4192 23.7646 25.7468 23.7646 24.9604 23.7646C24.9604 23.0789 24.9604 22.4354 24.9604 21.7717Z" fill="white"/>
</svg>
