<svg width="42" height="50" viewBox="0 0 42 50" fill="none" xmlns="http://www.w3.org/2000/svg">
<path d="M22.755 29.3155H19.2447C17.3704 29.3221 15.5088 29.601 13.7247 30.1429H13.6722C9.99812 31.2637 6.79425 33.4507 4.51809 36.3918C2.24233 39.333 1.01093 42.8772 1 46.5177V48.1726C1 48.392 1.09246 48.6025 1.257 48.7577C1.42193 48.9128 1.64486 49 1.87757 49H40.1224C40.3551 49 40.5781 48.9128 40.743 48.7577C40.9075 48.6025 41 48.392 41 48.1726V46.5177C40.9835 41.9602 39.0564 37.5936 35.6382 34.371C32.22 31.1484 27.5883 29.331 22.755 29.3155ZM27.5463 39.8073C27.9197 39.8206 28.2487 40.0415 28.3847 40.3691C28.521 40.6968 28.4387 41.0695 28.1747 41.3181C27.9106 41.567 27.5153 41.645 27.1678 41.5164C26.8203 41.3879 26.5865 41.0776 26.5724 40.7259C26.5629 40.4855 26.6574 40.2517 26.8348 40.0784C27.0119 39.9052 27.256 39.8073 27.5114 39.8076L27.5463 39.8073ZM39.2445 47.3454H2.75478V46.518C2.76731 43.4055 3.76794 40.3677 5.62768 37.7956C7.48702 35.224 10.1209 33.2359 13.1893 32.0875V35.1903C12.3286 35.3743 11.5595 35.8275 11.0079 36.4769C10.4567 37.1262 10.155 37.9329 10.1531 38.7648V42.3807C10.1531 42.6002 10.2455 42.8107 10.4101 42.9658C10.5746 43.121 10.7979 43.2082 11.0306 43.2082H12.4171C12.9017 43.2082 13.2947 42.8377 13.2947 42.3807C13.2947 41.9238 12.9017 41.5533 12.4171 41.5533H11.9082V38.74C11.9552 38.0452 12.3756 37.421 13.0232 37.0859C13.6704 36.7505 14.4546 36.7505 15.1019 37.0859C15.7491 37.421 16.1699 38.0453 16.2169 38.74V41.5533H15.6379C15.1528 41.5533 14.7603 41.9238 14.7603 42.3807C14.7603 42.8377 15.1528 43.2082 15.6379 43.2082H17.0944C17.3271 43.2082 17.5504 43.121 17.715 42.9658C17.8795 42.8107 17.972 42.6002 17.972 42.3807V38.74C17.9704 37.9093 17.6699 37.1036 17.1203 36.4543C16.5702 35.8052 15.8035 35.3509 14.9444 35.1654V31.5333C16.345 31.1676 17.791 30.9781 19.2445 30.9703H22.7548C24.0742 30.9766 25.3883 31.1321 26.6685 31.4339V38.3016C25.8587 38.5646 25.2295 39.1755 24.9744 39.9468C24.719 40.7177 24.8683 41.5573 25.376 42.2082C25.8837 42.859 26.6893 43.2432 27.5461 43.2432C28.4029 43.2432 29.2087 42.859 29.7165 42.2082C30.2242 41.5573 30.3731 40.7177 30.1181 39.9468C29.863 39.1755 29.2338 38.5645 28.4236 38.3016V31.9385C31.5895 33.0378 34.3229 35.0236 36.257 37.6297C38.1912 40.2358 39.2333 43.3371 39.2443 46.5179L39.2445 47.3454Z" fill="white"/>
<path d="M20.8954 28.0408C24.7077 28.0603 28.3712 26.6481 31.0772 24.116C33.7824 21.5835 35.3071 18.1397 35.3142 14.5452C35.3212 10.9507 33.8098 7.50174 31.114 4.96025C28.4186 2.41848 24.7606 0.993404 20.9482 1.00002C17.1363 1.00667 13.4838 2.44429 10.7976 4.99496C8.112 7.546 6.61422 11.0001 6.63498 14.595C6.66044 18.1538 8.17067 21.5598 10.8399 24.076C13.5086 26.5926 17.1213 28.0167 20.8954 28.0408ZM20.8954 26.3859C17.7518 26.3807 14.7257 25.26 12.4186 23.2472C10.111 21.2341 8.69169 18.4762 8.44287 15.5219H9.59233C12.3853 15.5112 15.1488 14.9855 17.7274 13.9745C20.3057 13.0466 22.5768 11.4903 24.3092 9.46497C25.4414 11.1778 28.0741 14.0158 33.515 15.257C33.3136 18.2793 31.8947 21.1151 29.5487 23.1841C27.2027 25.2526 24.1075 26.3981 20.8954 26.3859ZM20.8954 2.66368C24.0569 2.66811 27.1026 3.787 29.4341 5.80016C31.7655 7.81333 33.215 10.5756 33.4976 13.5444C26.9421 11.931 25.2924 7.75243 25.2221 7.5703C25.1054 7.25336 24.7963 7.03431 24.4409 7.01584C24.0699 6.98408 23.7181 7.17653 23.5634 7.49605C23.5634 7.49605 22.0014 10.5494 17.0169 12.4606C14.2918 13.5278 11.3449 13.9973 8.39914 13.834C8.58209 10.8219 9.97715 7.9891 12.2992 5.91353C14.6212 3.83795 17.6958 2.6755 20.8954 2.66368Z" fill="white"/>
<path d="M22.755 29.3155H19.2447C17.3704 29.3221 15.5088 29.601 13.7247 30.1429H13.6722C9.99812 31.2637 6.79425 33.4507 4.51809 36.3918C2.24233 39.333 1.01093 42.8772 1 46.5177V48.1726C1 48.392 1.09246 48.6025 1.257 48.7577C1.42193 48.9128 1.64486 49 1.87757 49H40.1224C40.3551 49 40.5781 48.9128 40.743 48.7577C40.9075 48.6025 41 48.392 41 48.1726V46.5177C40.9835 41.9602 39.0564 37.5936 35.6382 34.371C32.22 31.1484 27.5883 29.331 22.755 29.3155ZM27.5463 39.8073C27.9197 39.8206 28.2487 40.0415 28.3847 40.3691C28.521 40.6968 28.4387 41.0695 28.1747 41.3181C27.9106 41.567 27.5153 41.645 27.1678 41.5164C26.8203 41.3879 26.5865 41.0776 26.5724 40.7259C26.5629 40.4855 26.6574 40.2517 26.8348 40.0784C27.0119 39.9052 27.256 39.8073 27.5114 39.8076L27.5463 39.8073ZM39.2445 47.3454H2.75478V46.518C2.76731 43.4055 3.76794 40.3677 5.62768 37.7956C7.48702 35.224 10.1209 33.2359 13.1893 32.0875V35.1903C12.3286 35.3743 11.5595 35.8275 11.0079 36.4769C10.4567 37.1262 10.155 37.9329 10.1531 38.7648V42.3807C10.1531 42.6002 10.2455 42.8107 10.4101 42.9658C10.5746 43.121 10.7979 43.2082 11.0306 43.2082H12.4171C12.9017 43.2082 13.2947 42.8377 13.2947 42.3807C13.2947 41.9238 12.9017 41.5533 12.4171 41.5533H11.9082V38.74C11.9552 38.0452 12.3756 37.421 13.0232 37.0859C13.6704 36.7505 14.4546 36.7505 15.1019 37.0859C15.7491 37.421 16.1699 38.0453 16.2169 38.74V41.5533H15.6379C15.1528 41.5533 14.7603 41.9238 14.7603 42.3807C14.7603 42.8377 15.1528 43.2082 15.6379 43.2082H17.0944C17.3271 43.2082 17.5504 43.121 17.715 42.9658C17.8795 42.8107 17.972 42.6002 17.972 42.3807V38.74C17.9704 37.9093 17.6699 37.1036 17.1203 36.4543C16.5702 35.8052 15.8035 35.3509 14.9444 35.1654V31.5333C16.345 31.1676 17.791 30.9781 19.2445 30.9703H22.7548C24.0742 30.9766 25.3883 31.1321 26.6685 31.4339V38.3016C25.8587 38.5646 25.2295 39.1755 24.9744 39.9468C24.719 40.7177 24.8683 41.5573 25.376 42.2082C25.8837 42.859 26.6893 43.2432 27.5461 43.2432C28.4029 43.2432 29.2087 42.859 29.7165 42.2082C30.2242 41.5573 30.3731 40.7177 30.1181 39.9468C29.863 39.1755 29.2338 38.5645 28.4236 38.3016V31.9385C31.5895 33.0378 34.3229 35.0236 36.257 37.6297C38.1912 40.2358 39.2333 43.3371 39.2443 46.5179L39.2445 47.3454Z" stroke="white" stroke-width="0.4"/>
<path d="M20.8954 28.0408C24.7077 28.0603 28.3712 26.6481 31.0772 24.116C33.7824 21.5835 35.3071 18.1397 35.3142 14.5452C35.3212 10.9507 33.8098 7.50174 31.114 4.96025C28.4186 2.41848 24.7606 0.993404 20.9482 1.00002C17.1363 1.00667 13.4838 2.44429 10.7976 4.99496C8.112 7.546 6.61422 11.0001 6.63498 14.595C6.66044 18.1538 8.17067 21.5598 10.8399 24.076C13.5086 26.5926 17.1213 28.0167 20.8954 28.0408ZM20.8954 26.3859C17.7518 26.3807 14.7257 25.26 12.4186 23.2472C10.111 21.2341 8.69169 18.4762 8.44287 15.5219H9.59233C12.3853 15.5112 15.1488 14.9855 17.7274 13.9745C20.3057 13.0466 22.5768 11.4903 24.3092 9.46497C25.4414 11.1778 28.0741 14.0158 33.515 15.257C33.3136 18.2793 31.8947 21.1151 29.5487 23.1841C27.2027 25.2526 24.1075 26.3981 20.8954 26.3859ZM20.8954 2.66368C24.0569 2.66811 27.1026 3.787 29.4341 5.80016C31.7655 7.81333 33.215 10.5756 33.4976 13.5444C26.9421 11.931 25.2924 7.75243 25.2221 7.5703C25.1054 7.25336 24.7963 7.03431 24.4409 7.01584C24.0699 6.98408 23.7181 7.17653 23.5634 7.49605C23.5634 7.49605 22.0014 10.5494 17.0169 12.4606C14.2918 13.5278 11.3449 13.9973 8.39914 13.834C8.58209 10.8219 9.97715 7.9891 12.2992 5.91353C14.6212 3.83795 17.6958 2.6755 20.8954 2.66368Z" stroke="white" stroke-width="0.4"/>
</svg>
