<svg width="82" height="82" viewBox="0 0 82 82" fill="none" xmlns="http://www.w3.org/2000/svg">
<rect x="1" y="1" width="80" height="80" rx="10" fill="url(#paint0_linear_719_1018)" stroke="white" stroke-width="2"/>
<path d="M42.755 45.3155H39.2447C37.3704 45.3221 35.5088 45.601 33.7247 46.1429H33.6722C29.9981 47.2637 26.7942 49.4507 24.5181 52.3918C22.2423 55.333 21.0109 58.8772 21 62.5177V64.1726C21 64.392 21.0925 64.6025 21.257 64.7577C21.4219 64.9128 21.6449 65 21.8776 65H60.1224C60.3551 65 60.5781 64.9128 60.743 64.7577C60.9075 64.6025 61 64.392 61 64.1726V62.5177C60.9835 57.9602 59.0564 53.5936 55.6382 50.371C52.22 47.1484 47.5883 45.331 42.755 45.3155ZM47.5463 55.8073C47.9197 55.8206 48.2487 56.0415 48.3847 56.3691C48.521 56.6968 48.4387 57.0695 48.1747 57.3181C47.9106 57.567 47.5153 57.645 47.1678 57.5164C46.8203 57.3879 46.5865 57.0776 46.5724 56.7259C46.5629 56.4855 46.6574 56.2517 46.8348 56.0784C47.0119 55.9052 47.256 55.8073 47.5114 55.8076L47.5463 55.8073ZM59.2445 63.3454H22.7548V62.518C22.7673 59.4055 23.7679 56.3677 25.6277 53.7956C27.487 51.224 30.1209 49.2359 33.1893 48.0875V51.1903C32.3286 51.3743 31.5595 51.8275 31.0079 52.4769C30.4567 53.1262 30.155 53.9329 30.1531 54.7648V58.3807C30.1531 58.6002 30.2455 58.8107 30.4101 58.9658C30.5746 59.121 30.7979 59.2082 31.0306 59.2082H32.4171C32.9017 59.2082 33.2947 58.8377 33.2947 58.3807C33.2947 57.9238 32.9017 57.5533 32.4171 57.5533H31.9082V54.74C31.9552 54.0452 32.3756 53.421 33.0232 53.0859C33.6704 52.7505 34.4546 52.7505 35.1019 53.0859C35.7491 53.421 36.1699 54.0453 36.2169 54.74V57.5533H35.6379C35.1528 57.5533 34.7603 57.9238 34.7603 58.3807C34.7603 58.8377 35.1528 59.2082 35.6379 59.2082H37.0944C37.3271 59.2082 37.5504 59.121 37.715 58.9658C37.8795 58.8107 37.972 58.6002 37.972 58.3807V54.74C37.9704 53.9093 37.6699 53.1036 37.1203 52.4543C36.5702 51.8052 35.8035 51.3509 34.9444 51.1654V47.5333C36.345 47.1676 37.791 46.9781 39.2445 46.9703H42.7548C44.0742 46.9766 45.3883 47.1321 46.6685 47.4339V54.3016C45.8587 54.5646 45.2295 55.1755 44.9744 55.9468C44.719 56.7177 44.8683 57.5573 45.376 58.2082C45.8837 58.859 46.6893 59.2432 47.5461 59.2432C48.4029 59.2432 49.2087 58.859 49.7165 58.2082C50.2242 57.5573 50.3731 56.7177 50.1181 55.9468C49.863 55.1755 49.2338 54.5645 48.4236 54.3016V47.9385C51.5895 49.0378 54.3229 51.0236 56.257 53.6297C58.1912 56.2358 59.2333 59.3371 59.2443 62.5179L59.2445 63.3454Z" fill="white"/>
<path d="M40.8954 44.0408C44.7077 44.0603 48.3712 42.6481 51.0772 40.116C53.7824 37.5835 55.3071 34.1397 55.3142 30.5452C55.3212 26.9507 53.8098 23.5017 51.114 20.9603C48.4186 18.4185 44.7606 16.9934 40.9482 17C37.1363 17.0067 33.4838 18.4443 30.7976 20.995C28.112 23.546 26.6142 27.0001 26.635 30.595C26.6604 34.1538 28.1707 37.5598 30.8399 40.076C33.5086 42.5926 37.1213 44.0167 40.8954 44.0408ZM40.8954 42.3859C37.7518 42.3807 34.7257 41.26 32.4186 39.2472C30.111 37.2341 28.6917 34.4762 28.4429 31.5219H29.5923C32.3853 31.5112 35.1488 30.9855 37.7274 29.9745C40.3057 29.0466 42.5768 27.4903 44.3092 25.465C45.4414 27.1778 48.0741 30.0158 53.515 31.257C53.3136 34.2793 51.8947 37.1151 49.5487 39.1841C47.2027 41.2526 44.1075 42.3981 40.8954 42.3859ZM40.8954 18.6637C44.0569 18.6681 47.1026 19.787 49.4341 21.8002C51.7655 23.8133 53.215 26.5756 53.4975 29.5444C46.9421 27.931 45.2924 23.7524 45.2221 23.5703C45.1054 23.2534 44.7963 23.0343 44.4409 23.0158C44.0699 22.9841 43.7181 23.1765 43.5634 23.496C43.5634 23.496 42.0014 26.5494 37.0169 28.4606C34.2918 29.5278 31.3449 29.9973 28.3991 29.834C28.5821 26.8219 29.9772 23.9891 32.2992 21.9135C34.6212 19.838 37.6958 18.6755 40.8954 18.6637Z" fill="white"/>
<path d="M42.755 45.3155H39.2447C37.3704 45.3221 35.5088 45.601 33.7247 46.1429H33.6722C29.9981 47.2637 26.7942 49.4507 24.5181 52.3918C22.2423 55.333 21.0109 58.8772 21 62.5177V64.1726C21 64.392 21.0925 64.6025 21.257 64.7577C21.4219 64.9128 21.6449 65 21.8776 65H60.1224C60.3551 65 60.5781 64.9128 60.743 64.7577C60.9075 64.6025 61 64.392 61 64.1726V62.5177C60.9835 57.9602 59.0564 53.5936 55.6382 50.371C52.22 47.1484 47.5883 45.331 42.755 45.3155ZM47.5463 55.8073C47.9197 55.8206 48.2487 56.0415 48.3847 56.3691C48.521 56.6968 48.4387 57.0695 48.1747 57.3181C47.9106 57.567 47.5153 57.645 47.1678 57.5164C46.8203 57.3879 46.5865 57.0776 46.5724 56.7259C46.5629 56.4855 46.6574 56.2517 46.8348 56.0784C47.0119 55.9052 47.256 55.8073 47.5114 55.8076L47.5463 55.8073ZM59.2445 63.3454H22.7548V62.518C22.7673 59.4055 23.7679 56.3677 25.6277 53.7956C27.487 51.224 30.1209 49.2359 33.1893 48.0875V51.1903C32.3286 51.3743 31.5595 51.8275 31.0079 52.4769C30.4567 53.1262 30.155 53.9329 30.1531 54.7648V58.3807C30.1531 58.6002 30.2455 58.8107 30.4101 58.9658C30.5746 59.121 30.7979 59.2082 31.0306 59.2082H32.4171C32.9017 59.2082 33.2947 58.8377 33.2947 58.3807C33.2947 57.9238 32.9017 57.5533 32.4171 57.5533H31.9082V54.74C31.9552 54.0452 32.3756 53.421 33.0232 53.0859C33.6704 52.7505 34.4546 52.7505 35.1019 53.0859C35.7491 53.421 36.1699 54.0453 36.2169 54.74V57.5533H35.6379C35.1528 57.5533 34.7603 57.9238 34.7603 58.3807C34.7603 58.8377 35.1528 59.2082 35.6379 59.2082H37.0944C37.3271 59.2082 37.5504 59.121 37.715 58.9658C37.8795 58.8107 37.972 58.6002 37.972 58.3807V54.74C37.9704 53.9093 37.6699 53.1036 37.1203 52.4543C36.5702 51.8052 35.8035 51.3509 34.9444 51.1654V47.5333C36.345 47.1676 37.791 46.9781 39.2445 46.9703H42.7548C44.0742 46.9766 45.3883 47.1321 46.6685 47.4339V54.3016C45.8587 54.5646 45.2295 55.1755 44.9744 55.9468C44.719 56.7177 44.8683 57.5573 45.376 58.2082C45.8837 58.859 46.6893 59.2432 47.5461 59.2432C48.4029 59.2432 49.2087 58.859 49.7165 58.2082C50.2242 57.5573 50.3731 56.7177 50.1181 55.9468C49.863 55.1755 49.2338 54.5645 48.4236 54.3016V47.9385C51.5895 49.0378 54.3229 51.0236 56.257 53.6297C58.1912 56.2358 59.2333 59.3371 59.2443 62.5179L59.2445 63.3454Z" stroke="white" stroke-width="0.4"/>
<path d="M40.8954 44.0408C44.7077 44.0603 48.3712 42.6481 51.0772 40.116C53.7824 37.5835 55.3071 34.1397 55.3142 30.5452C55.3212 26.9507 53.8098 23.5017 51.114 20.9603C48.4186 18.4185 44.7606 16.9934 40.9482 17C37.1363 17.0067 33.4838 18.4443 30.7976 20.995C28.112 23.546 26.6142 27.0001 26.635 30.595C26.6604 34.1538 28.1707 37.5598 30.8399 40.076C33.5086 42.5926 37.1213 44.0167 40.8954 44.0408ZM40.8954 42.3859C37.7518 42.3807 34.7257 41.26 32.4186 39.2472C30.111 37.2341 28.6917 34.4762 28.4429 31.5219H29.5923C32.3853 31.5112 35.1488 30.9855 37.7274 29.9745C40.3057 29.0466 42.5768 27.4903 44.3092 25.465C45.4414 27.1778 48.0741 30.0158 53.515 31.257C53.3136 34.2793 51.8947 37.1151 49.5487 39.1841C47.2027 41.2526 44.1075 42.3981 40.8954 42.3859ZM40.8954 18.6637C44.0569 18.6681 47.1026 19.787 49.4341 21.8002C51.7655 23.8133 53.215 26.5756 53.4975 29.5444C46.9421 27.931 45.2924 23.7524 45.2221 23.5703C45.1054 23.2534 44.7963 23.0343 44.4409 23.0158C44.0699 22.9841 43.7181 23.1765 43.5634 23.496C43.5634 23.496 42.0014 26.5494 37.0169 28.4606C34.2918 29.5278 31.3449 29.9973 28.3991 29.834C28.5821 26.8219 29.9772 23.9891 32.2992 21.9135C34.6212 19.838 37.6958 18.6755 40.8954 18.6637Z" stroke="white" stroke-width="0.4"/>
<defs>
<linearGradient id="paint0_linear_719_1018" x1="1" y1="1" x2="88.6371" y2="10.4925" gradientUnits="userSpaceOnUse">
<stop stop-color="#A93890"/>
<stop offset="0.494792" stop-color="#E6436F"/>
<stop offset="1" stop-color="#F27D52"/>
</linearGradient>
</defs>
</svg>
