<svg width="38" height="40" viewBox="0 0 38 40" fill="none" xmlns="http://www.w3.org/2000/svg">
<path d="M35.7143 8.57143H31.4286V1.42857C31.4286 1.04975 31.2781 0.68622 31.0102 0.418367C30.7424 0.150514 30.3788 0 30 0H7.14286C6.76403 0 6.40051 0.150514 6.13265 0.418367C5.8648 0.68622 5.71429 1.04975 5.71429 1.42857V8.57143H1.42857C1.04975 8.57143 0.68622 8.72194 0.418367 8.9898C0.150514 9.25765 0 9.62118 0 10V38.5714C0 38.9503 0.150514 39.3138 0.418367 39.5816C0.68622 39.8495 1.04975 40 1.42857 40H35.7143C36.0931 40 36.4566 39.8495 36.7245 39.5816C36.9923 39.3138 37.1429 38.9503 37.1429 38.5714V10C37.1429 9.62118 36.9923 9.25765 36.7245 8.9898C36.4566 8.72194 36.0931 8.57143 35.7143 8.57143ZM2.85714 11.4286H5.71429V37.1429H2.85714V11.4286ZM8.57143 2.85714H28.5714V37.1429H25.7143V37C25.7143 36.6212 25.5638 37.2576 25.2959 36.9898C25.0281 36.7219 24.6645 36.5714 24.2857 36.5714H12.8571C12.4783 36.5714 12.1148 36.7219 11.8469 36.9898C11.5791 37.2576 11.4286 36.6212 11.4286 37V37.1429H8.57143V2.85714ZM14.2857 37.1429V38.4286H17.1429V37.1429H14.2857ZM20 37.1429V38.4286H22.8571V37.1429H20ZM34.2857 37.1429H31.4286V11.4286H34.2857V37.1429Z" fill="white"/>
</svg>
