<svg width="40" height="40" viewBox="0 0 40 40" fill="none" xmlns="http://www.w3.org/2000/svg">
<path fill-rule="evenodd" clip-rule="evenodd" d="M19.9997 0C13.9308 0 9.01095 4.91139 9.01095 10.9699C9.01095 14.576 10.7539 17.7757 13.4447 19.7752C10.5281 20.7323 7.84391 22.3254 5.61751 24.4686C2.86941 27.114 0.980036 30.4429 0.13369 34.0504C-0.66917 37.4726 2.28359 40 5.25898 40L34.741 40C37.7164 40 40.6692 37.4726 39.8663 34.0504C39.02 30.4429 37.1306 27.114 34.3825 24.4686C32.156 22.3253 29.4717 20.7321 26.5549 19.7751C29.2456 17.7755 30.9885 14.5759 30.9885 10.9699C30.9885 4.91139 26.0686 0 19.9997 0ZM12.2272 10.9699C12.2272 6.68461 15.7071 3.2107 19.9997 3.2107C24.2924 3.2107 27.7722 6.68461 27.7722 10.9699C27.7722 15.2552 24.2924 18.7291 19.9997 18.7291C15.7071 18.7291 12.2272 15.2552 12.2272 10.9699ZM7.85001 26.7798C11.0627 23.6871 15.4322 21.9398 20 21.9398C24.5678 21.9398 28.9373 23.6871 32.15 26.7798C34.4567 29.0003 36.031 31.7826 36.7348 34.7826C36.9446 35.6767 36.2063 36.7893 34.741 36.7893L5.25898 36.7893C3.79369 36.7893 3.05541 35.6767 3.26518 34.7826C3.969 31.7826 5.54329 29.0003 7.85001 26.7798Z" fill="white"/>
</svg>
