<svg width="51" height="42" viewBox="0 0 51 42" fill="none" xmlns="http://www.w3.org/2000/svg">
<path d="M37.0952 26.1316L33.1107 28.339C30.6608 29.695 27.8844 30.4134 25.0826 30.4134C22.2831 30.4134 19.5077 29.6957 17.0554 28.339L12.1687 25.6317C12.2299 27.8999 12.1342 30.31 11.2099 32.2329C10.9549 32.758 10.4449 33.2327 10.4542 33.8639C10.4655 34.7394 11.461 34.8874 12.1776 34.7541C12.1776 34.7541 16.402 33.9442 22.2471 39.673C22.8276 40.2423 23.4004 40.7779 24.1871 41.0564C25.7268 41.6025 26.8711 40.6592 27.9287 39.6633C28.6487 38.9859 29.4513 38.3984 30.258 37.8267C32.1949 36.4584 34.6526 34.7377 37.1196 34.6963C37.1196 34.6963 40.3024 35.3907 38.4508 32.4397C38.4515 32.4389 37.6032 29.705 37.0948 26.1315" fill="white"/>
<path d="M5.63859 23.9312L4.7124 29.4868V36.8948H8.4164V29.4868L7.49021 23.9312V18.8058L5.63861 17.7796L5.63859 23.9312Z" fill="white"/>
<path d="M49.2501 12.328L31.3175 2.39536C27.4364 0.245737 22.7306 0.245737 18.8521 2.39536L0.916431 12.328C-0.193498 12.9434 -0.193498 14.5481 0.916431 15.1647L5.63889 17.7793V13.7463H26.9357V15.5979H7.49009V18.8051L18.8513 25.0978C22.7301 27.2462 27.4358 27.2462 31.3167 25.0978L49.2493 15.1652C50.3623 14.5482 50.3623 12.9442 49.2501 12.3281" fill="white"/>
</svg>
