<svg width="42" height="40" viewBox="0 0 42 40" fill="none" xmlns="http://www.w3.org/2000/svg">
<path fill-rule="evenodd" clip-rule="evenodd" d="M6.0142 21.8182H6.56608C7.56253 21.8182 8.37032 22.6322 8.37032 23.6364C8.37032 24.6405 7.56253 25.4545 6.56608 25.4545H6.01398C5.58688 25.4545 5.17339 25.6071 4.84747 25.8853C4.52168 26.1633 4.30429 26.5488 4.23395 26.9732L3.63314 30.6095C3.59003 30.87 3.60367 31.1373 3.67327 31.3919C3.74286 31.6466 3.86666 31.8828 4.03606 32.0843C4.20546 32.2858 4.41639 32.4477 4.65416 32.5588C4.89195 32.6698 5.15088 32.7273 5.41294 32.7273H10.1746C11.171 32.7273 11.9788 33.5413 11.9788 34.5455C11.9788 35.5496 11.171 36.3636 10.1746 36.3636H5.41339C4.62726 36.3637 3.85033 36.1912 3.13705 35.8581C2.4237 35.525 1.79093 35.0393 1.28274 34.4348C0.774555 33.8303 0.403148 33.1215 0.194357 32.3576C-0.0143905 31.594 -0.0555766 30.7936 0.0736588 30.0123L0.674471 26.3759C0.885244 25.1023 1.5376 23.9449 2.51535 23.1104C3.49304 22.276 4.73298 21.8181 6.0142 21.8182ZM33.6297 23.6364C33.6297 22.6322 34.4375 21.8182 35.4339 21.8182H35.9858C37.267 21.8181 38.507 22.276 39.4847 23.1104C40.4624 23.9449 41.1147 25.1018 41.3255 26.3755L41.9263 30.0118C42.0556 30.7933 42.0144 31.5938 41.8056 32.3576C41.5969 33.1215 41.2254 33.8303 40.7173 34.4348C40.2091 35.0393 39.5763 35.525 38.863 35.8581C38.1497 36.1912 37.373 36.3637 36.5868 36.3636H31.8254C30.829 36.3636 30.0212 35.5496 30.0212 34.5455C30.0212 33.5413 30.829 32.7273 31.8254 32.7273H36.5868C36.8489 32.7273 37.1081 32.6698 37.3458 32.5588C37.5836 32.4477 37.7945 32.2858 37.9639 32.0843C38.1333 31.8828 38.2571 31.6465 38.3267 31.3919C38.3963 31.1373 38.4101 30.8705 38.3669 30.61L37.7661 26.9736C37.6959 26.5491 37.4784 26.1634 37.1525 25.8853C36.8266 25.6071 36.4133 25.4545 35.9862 25.4545H35.4339C34.4375 25.4545 33.6297 24.6405 33.6297 23.6364Z" fill="white"/>
<path fill-rule="evenodd" clip-rule="evenodd" d="M18.4469 21.8182C16.6607 21.8182 15.1433 23.1351 14.8783 24.9151L13.485 34.2757C13.3214 35.375 14.1662 36.3636 15.2693 36.3636H25.8336C26.9366 36.3636 27.7815 35.375 27.6178 34.2757L26.2245 24.9151C25.9596 23.1351 24.4422 21.8182 22.656 21.8182H18.4469ZM11.3098 24.3757C11.8397 20.8156 14.8745 18.1818 18.4469 18.1818H22.656C26.2283 18.1818 29.2632 20.8156 29.7931 24.3757L31.1864 33.7363C31.6773 37.0342 29.1427 40 25.8336 40H15.2693C11.9601 40 9.42557 37.0342 9.91645 33.7363L11.3098 24.3757Z" fill="white"/>
<path fill-rule="evenodd" clip-rule="evenodd" d="M21.0025 3.63636C19.0096 3.63636 17.394 5.26442 17.394 7.27273C17.394 9.28104 19.0096 10.9091 21.0025 10.9091C22.9954 10.9091 24.611 9.28104 24.611 7.27273C24.611 5.26442 22.9954 3.63636 21.0025 3.63636ZM13.7855 7.27273C13.7855 3.25611 17.0167 0 21.0025 0C24.9883 0 28.2195 3.25611 28.2195 7.27273C28.2195 11.2893 24.9883 14.5455 21.0025 14.5455C17.0167 14.5455 13.7855 11.2893 13.7855 7.27273Z" fill="white"/>
<path fill-rule="evenodd" clip-rule="evenodd" d="M6.56856 12.7273C5.57211 12.7273 4.76432 13.5413 4.76432 14.5455C4.76432 15.5496 5.57211 16.3636 6.56856 16.3636C7.56502 16.3636 8.3728 15.5496 8.3728 14.5455C8.3728 13.5413 7.56502 12.7273 6.56856 12.7273ZM1.15584 14.5455C1.15584 11.533 3.5792 9.09091 6.56856 9.09091C9.55793 9.09091 11.9813 11.533 11.9813 14.5455C11.9813 17.5579 9.55793 20 6.56856 20C3.5792 20 1.15584 17.5579 1.15584 14.5455Z" fill="white"/>
<path fill-rule="evenodd" clip-rule="evenodd" d="M35.4364 12.7273C34.44 12.7273 33.6322 13.5413 33.6322 14.5455C33.6322 15.5496 34.44 16.3636 35.4364 16.3636C36.4329 16.3636 37.2407 15.5496 37.2407 14.5455C37.2407 13.5413 36.4329 12.7273 35.4364 12.7273ZM30.0237 14.5455C30.0237 11.533 32.4471 9.09091 35.4364 9.09091C38.4258 9.09091 40.8491 11.533 40.8491 14.5455C40.8491 17.5579 38.4258 20 35.4364 20C32.4471 20 30.0237 17.5579 30.0237 14.5455Z" fill="white"/>
</svg>
