<svg width="51" height="50" viewBox="0 0 51 50" fill="none" xmlns="http://www.w3.org/2000/svg">
<g clip-path="url(#clip0_1223_4007)">
<path d="M25.0857 25.7751C26.6173 25.7751 28.1489 25.7751 29.6805 25.7751C31.1494 25.7585 32.5774 26.259 33.7145 27.1891C34.8516 28.1191 35.6254 29.4195 35.9006 30.8625C35.9709 31.2305 36.0068 31.6043 36.0077 31.9791C36.0077 34.9673 36.0077 37.9555 36.0077 40.941C36.0183 41.0332 35.9976 41.1263 35.9491 41.2054C35.9006 41.2845 35.8269 41.3451 35.7399 41.3774C33.0805 42.653 30.2065 43.4212 27.2653 43.6427C23.6381 43.9715 19.9829 43.5045 16.5549 42.2744C15.8132 42.0067 15.0983 41.6586 14.37 41.3533C14.2952 41.3296 14.231 41.2805 14.1884 41.2145C14.1459 41.1485 14.1277 41.0698 14.137 40.9919C14.137 37.9501 14.121 34.9083 14.137 31.8666C14.1755 30.2744 14.8235 28.7576 15.9475 27.6292C17.0715 26.5007 18.5856 25.8466 20.1777 25.8018C21.8164 25.7483 23.4551 25.8018 25.0938 25.8018L25.0857 25.7751Z" fill="white"/>
<path d="M37.5714 37.3798V36.9996C37.5714 35.3716 37.5714 33.7436 37.5714 32.1156C37.5961 30.2004 36.9143 28.3432 35.6563 26.8989C34.3982 25.4546 32.6521 24.5245 30.7516 24.2863C30.7114 24.2863 30.6739 24.2703 30.5347 24.2408C30.9149 23.7749 31.2255 23.3251 31.6057 22.9422C32.1762 22.3504 32.8611 21.881 33.6188 21.5624C34.3765 21.2439 35.1911 21.0829 36.013 21.0893C38.6157 21.0768 41.2183 21.0768 43.8209 21.0893C45.4794 21.0893 47.0701 21.7474 48.2438 22.9191C49.4175 24.0908 50.0783 25.6803 50.0811 27.3388C50.0811 29.7808 50.0811 32.2227 50.0811 34.6647C50.0927 34.7674 50.0697 34.871 50.0159 34.9592C49.9621 35.0474 49.8805 35.1153 49.7839 35.152C46.2669 36.9543 42.3208 37.7511 38.38 37.4548C38.1283 37.436 37.874 37.4066 37.5714 37.3798Z" fill="white"/>
<path d="M19.5298 24.2649C18.5943 24.3599 17.6855 24.6325 16.8522 25.0682C14.1452 26.5569 12.6832 28.8409 12.6029 31.9469C12.56 33.6258 12.6029 35.31 12.6029 36.9915V37.3932C11.9067 37.4253 11.2373 37.4681 10.5706 37.4842C7.02206 37.5711 3.50914 36.7597 0.358223 35.1252C0.271274 35.092 0.197813 35.0309 0.149355 34.9514C0.100896 34.8719 0.080182 34.7786 0.0904635 34.6861C0.0904635 32.2361 0.0904635 29.7834 0.0904635 27.3307C0.0932739 25.6774 0.75004 24.0923 1.91739 22.9214C3.08475 21.7505 4.66788 21.089 6.32124 21.0812C8.94528 21.0652 11.5693 21.0491 14.1934 21.0812C16.4158 21.1134 18.1509 22.1094 19.3986 23.9489C19.4468 24.0186 19.487 24.0935 19.5298 24.1685C19.5379 24.1953 19.5298 24.2221 19.5298 24.2649Z" fill="white"/>
<path d="M18.0596 17.1987C18.059 15.809 18.4707 14.4503 19.2424 13.2946C20.0141 12.1388 21.1112 11.2378 22.395 10.7056C23.6788 10.1734 25.0916 10.0339 26.4547 10.3047C27.8177 10.5755 29.0699 11.2445 30.0528 12.227C31.0357 13.2095 31.7051 14.4614 31.9764 15.8244C32.2477 17.1874 32.1087 18.6002 31.577 19.8842C31.0453 21.1682 30.1448 22.2657 28.9893 23.0378C27.8338 23.8099 26.4753 24.2221 25.0856 24.2221C24.1628 24.2235 23.2487 24.0428 22.3958 23.6904C21.5429 23.338 20.7679 22.8207 20.1152 22.1683C19.4626 21.5159 18.945 20.7411 18.5923 19.8883C18.2395 19.0356 18.0585 18.1216 18.0596 17.1987Z" fill="white"/>
<path d="M16.8815 12.9038C16.8793 14.2185 16.4868 15.5029 15.7538 16.5941C15.0207 17.6854 13.9801 18.5345 12.7639 19.0336C11.5477 19.5328 10.2107 19.6595 8.92238 19.3978C7.63405 19.1361 6.45245 18.4978 5.52738 17.5637C4.60231 16.6296 3.97545 15.4418 3.72628 14.151C3.47711 12.8602 3.61684 11.5245 4.12777 10.3132C4.6387 9.10187 5.49781 8.06957 6.59617 7.34715C7.69453 6.62474 8.98267 6.24474 10.2973 6.25534C12.0509 6.26738 13.7284 6.97374 14.9624 8.21981C16.1964 9.46588 16.8865 11.1501 16.8815 12.9038Z" fill="white"/>
<path d="M46.5626 12.9011C46.561 14.2156 46.1692 15.4999 45.4368 16.5914C44.7045 17.6829 43.6645 18.5323 42.4489 19.0321C41.2332 19.5319 39.8965 19.6596 38.6082 19.3988C37.3199 19.1381 36.138 18.5007 35.2123 17.5675C34.2867 16.6344 33.6589 15.4474 33.4086 14.157C33.1583 12.8666 33.2967 11.531 33.8063 10.3194C34.3159 9.1078 35.1738 8.07478 36.2712 7.35127C37.3685 6.62775 38.656 6.24633 39.9704 6.25534C41.7246 6.26667 43.4029 6.97219 44.6382 8.2176C45.8736 9.46301 46.5655 11.147 46.5626 12.9011Z" fill="white"/>
</g>
<defs>
<clipPath id="clip0_1223_4007">
<rect width="50" height="50" fill="white" transform="translate(0.0839844)"/>
</clipPath>
</defs>
</svg>
