<svg width="51" height="50" viewBox="0 0 51 50" fill="none" xmlns="http://www.w3.org/2000/svg">
<g clip-path="url(#clip0_1223_3962)">
<path d="M25.0789 35.2983L26.4224 34.0564C28.628 31.9929 30.8321 29.9231 33.0345 27.8468C33.1843 27.6812 33.384 27.5689 33.6035 27.5268C35.3778 27.4502 37.1553 27.4884 38.9248 27.6414C40.9322 27.9051 42.7758 28.8876 44.1131 30.4064C45.4505 31.9252 46.1908 33.8773 46.1967 35.9001C46.2636 40.5048 46.1967 45.1046 46.1967 49.7092C46.192 49.7988 46.1824 49.8881 46.168 49.9767H3.97064C3.97064 49.7904 3.94196 49.6232 3.94196 49.4513C3.94196 45.0043 3.94196 40.5525 3.94196 36.1008C3.91944 34.1339 4.58563 32.2209 5.82534 30.6928C7.06504 29.1647 8.8003 28.1175 10.731 27.7322C11.9167 27.4934 13.1889 27.5125 14.3837 27.5125C16.0628 27.5125 17.3097 27.885 18.4906 29.1079C20.47 31.1522 22.6214 33.0294 24.706 34.9735C24.8159 35.0786 24.9307 35.1741 25.0789 35.2983Z" fill="white"/>
<path d="M36.9549 11.8931C36.9549 14.2417 36.2578 16.5375 34.9518 18.4903C33.6458 20.443 31.7895 21.965 29.6177 22.8638C27.4459 23.7625 25.0561 23.9977 22.7505 23.5395C20.4449 23.0813 18.3271 21.9504 16.6648 20.2897C15.0026 18.629 13.8706 16.5132 13.412 14.2097C12.9534 11.9063 13.1887 9.51871 14.0883 7.34892C14.9879 5.17913 16.5114 3.32457 18.4659 2.01978C20.4205 0.714986 22.7185 0.0185547 25.0692 0.0185547C28.2215 0.0185547 31.2447 1.26961 33.4737 3.49653C35.7026 5.72344 36.9549 8.74378 36.9549 11.8931Z" fill="white"/>
</g>
<defs>
<clipPath id="clip0_1223_3962">
<rect width="50" height="49.9534" fill="white" transform="translate(0.0839844 0.0233154)"/>
</clipPath>
</defs>
</svg>
