<svg width="51" height="48" viewBox="0 0 51 48" fill="none" xmlns="http://www.w3.org/2000/svg">
<path d="M29.0183 36.3247V35.8476C27.9055 34.9731 26.9516 33.86 26.2362 32.5879V39.4255H2.78669V6.27065H26.2362V19.8659C27.2695 20.4224 28.1439 21.297 28.8594 22.2511C28.9389 22.3306 28.9389 22.4101 29.0183 22.4101V4.75957C29.0183 4.52104 29.0183 4.28252 28.9389 4.044C28.6209 2.21535 27.0311 0.943237 25.1233 0.943237H18.3665H4.13804C3.02516 0.943237 1.99177 1.18176 1.19686 1.97683C0.401949 2.77189 0.0839844 3.80548 0.0839844 4.91858V43.0019C0.0839844 43.4789 0.163476 43.8765 0.242967 44.3535C0.719914 46.0232 2.23025 47.0567 4.13804 47.0567C7.55616 47.0567 10.9743 46.9772 14.3929 46.9772H24.8857C27.4294 46.9772 28.9398 45.0691 28.9398 42.9224C29.0193 40.7757 29.0193 38.5495 29.0193 36.3233L29.0183 36.3247ZM14.4719 45.6274C13.2 45.6274 12.1667 44.5939 12.1667 43.3217C12.1667 42.0496 13.2 41.016 14.4719 41.016C15.7438 41.016 16.7771 42.0496 16.7771 43.3217C16.7771 44.5939 15.7438 45.6274 14.4719 45.6274Z" fill="white"/>
<path d="M48.971 6.19206C48.4146 5.71502 47.8582 5.397 47.3017 5.07897C47.2222 5.07897 47.1427 4.99946 47.1427 4.99946C46.8248 4.84045 46.4273 4.60193 46.0299 4.60193C45.7914 4.60193 45.6324 4.68144 45.4734 4.76094C45.076 5.07897 44.8375 5.4765 44.8375 5.87404C44.8375 6.27157 45.1555 6.5896 45.5529 6.74861C45.7119 6.82812 45.8709 6.82812 46.0299 6.82812C46.2683 6.82812 46.5068 6.74861 46.6658 6.66911C46.8248 6.5896 46.9838 6.5896 47.0632 6.5896C47.4607 6.5896 47.8582 7.06664 48.2556 7.94121C48.8121 9.13382 48.1761 10.4854 47.6992 11.7575C47.5402 12.0756 47.4607 12.3141 47.3812 12.6321C46.9838 13.8247 46.5068 15.0173 46.1094 16.2099C45.7914 16.3689 45.5529 16.687 45.4734 17.005C45.076 19.5492 43.8041 19.7082 43.4066 19.7082H43.2477C42.6117 19.7082 42.1348 19.3107 41.7373 18.4361L41.5784 18.1976C41.3399 17.5615 41.1809 17.005 41.1809 17.005C41.1014 16.687 40.9424 16.4484 40.7039 16.2894C40.7039 16.2099 40.6245 16.1304 40.6245 16.0509C39.9885 14.3018 39.1936 12.0756 38.3987 9.76987C38.0807 8.73628 38.3192 7.7822 39.1936 6.98713C39.4321 6.82812 39.5911 6.66911 39.8295 6.66911C39.909 6.66911 39.9885 6.74861 40.068 6.74861C40.227 6.82812 40.386 6.90763 40.6245 6.90763H40.7039C41.3399 6.90763 42.0553 6.51009 42.0553 5.71502C42.0553 5.397 41.9758 5.07897 41.7373 4.91996C41.4989 4.68144 41.1809 4.60193 40.8629 4.60193C40.545 4.60193 40.3065 4.76094 39.9885 4.84045C39.8295 4.91996 39.6706 4.91996 39.5116 4.99946C38.5577 5.23798 37.7628 5.87404 37.2063 6.82812C36.6499 7.86171 36.4909 9.13382 36.8884 10.3264C37.5243 12.3936 38.2397 14.5403 39.0346 16.7665C38.9551 16.9255 38.9551 17.164 38.9551 17.323C39.0346 17.8796 39.2731 18.5156 39.5116 19.0722C39.909 20.0262 40.545 20.9008 41.4194 21.3779C41.6578 21.5369 41.8963 21.6164 42.1348 21.6959H42.5322V27.3409C42.5322 29.249 41.7373 31.0777 40.386 32.3498C39.0346 33.6219 37.3653 34.3375 35.537 34.3375C32.4369 34.258 29.6547 31.9523 28.9392 28.772C28.8598 28.295 28.7803 27.7384 28.7008 27.2614C28.5418 25.9893 28.3828 24.6376 27.4289 23.3655C26.1571 21.6164 24.0903 20.5828 21.944 20.5828H19.2413H17.731C17.3335 19.3107 16.1412 18.3566 14.7103 18.3566C12.9615 18.3566 11.4512 19.7877 11.4512 21.6164C11.4512 23.3655 12.882 24.7967 14.7103 24.7967C16.1412 24.7967 17.413 23.8426 17.8105 22.491H19.4003H22.0235C23.6133 22.491 25.0442 23.286 25.9981 24.4786C26.634 25.3532 26.793 26.3868 26.8725 27.4999L27.1109 29.1695C27.9853 33.2244 31.483 36.1661 35.537 36.2456H35.696C37.9218 36.2456 40.068 35.3711 41.7373 33.7014C43.4861 32.0318 44.44 29.6466 44.44 27.2614V21.6164H44.599C45.3144 21.3779 46.0299 20.8213 46.5068 20.2648C47.1427 19.3902 47.5402 18.3566 47.6992 17.2435V16.7665L47.9376 16.0509C48.2556 15.1763 48.5736 14.3018 48.8121 13.5067C49.13 12.4731 49.5275 11.519 49.8454 10.4854C50.0044 10.0084 50.0839 9.45184 50.0839 8.8953C50.0044 7.7822 49.6865 6.82812 48.971 6.19206Z" fill="white"/>
</svg>
