<svg width="42" height="42" viewBox="0 0 42 42" fill="none" xmlns="http://www.w3.org/2000/svg">
<path fill-rule="evenodd" clip-rule="evenodd" d="M20.9997 1C14.9308 1 10.0109 5.91139 10.0109 11.9699C10.0109 15.576 11.7539 18.7757 14.4447 20.7752C11.5281 21.7323 8.84391 23.3254 6.61751 25.4686C3.86941 28.114 1.98004 31.4429 1.13369 35.0504C0.33083 38.4726 3.28359 41 6.25898 41L35.741 41C38.7164 41 41.6692 38.4726 40.8663 35.0504C40.02 31.4429 38.1306 28.114 35.3825 25.4686C33.156 23.3253 30.4717 21.7321 27.5549 20.7751C30.2456 18.7755 31.9885 15.5759 31.9885 11.9699C31.9885 5.91139 27.0686 1 20.9997 1ZM13.2272 11.9699C13.2272 7.68461 16.7071 4.2107 20.9997 4.2107C25.2924 4.2107 28.7722 7.68461 28.7722 11.9699C28.7722 16.2552 25.2924 19.7291 20.9997 19.7291C16.7071 19.7291 13.2272 16.2552 13.2272 11.9699ZM8.85001 27.7798C12.0627 24.6871 16.4322 22.9398 21 22.9398C25.5678 22.9398 29.9373 24.6871 33.15 27.7798C35.4567 30.0003 37.031 32.7826 37.7348 35.7826C37.9446 36.6767 37.2063 37.7893 35.741 37.7893L6.25898 37.7893C4.79369 37.7893 4.05541 36.6767 4.26518 35.7826C4.969 32.7826 6.54329 30.0003 8.85001 27.7798Z" fill="white"/>
<path d="M28.8 28.8C28.8 28.3582 28.4418 28 28 28C27.5582 28 27.2 28.3582 27.2 28.8V31.2H24.8C24.3582 31.2 24 31.5582 24 32C24 32.4418 24.3582 32.8 24.8 32.8H27.2V35.2C27.2 35.6418 27.5582 36 28 36C28.4418 36 28.8 35.6418 28.8 35.2V32.8H31.2C31.6418 32.8 32 32.4418 32 32C32 31.5582 31.6418 31.2 31.2 31.2H28.8V28.8Z" fill="white"/>
<path d="M14.4447 20.7752L14.4759 20.8702C14.5114 20.8586 14.5374 20.8281 14.5434 20.7912C14.5494 20.7544 14.5344 20.7172 14.5044 20.6949L14.4447 20.7752ZM6.61751 25.4686L6.68686 25.5406L6.61751 25.4686ZM1.13369 35.0504L1.03633 35.0276L1.13369 35.0504ZM6.25898 41V40.9V41ZM35.741 41V41.1V41ZM40.8663 35.0504L40.769 35.0733L40.8663 35.0504ZM35.3825 25.4686L35.4518 25.3965L35.3825 25.4686ZM27.5549 20.7751L27.4952 20.6948C27.4652 20.7171 27.4502 20.7542 27.4562 20.7911C27.4621 20.828 27.4882 20.8584 27.5237 20.8701L27.5549 20.7751ZM8.85001 27.7798L8.91936 27.8518L8.85001 27.7798ZM33.15 27.7798L33.2193 27.7077L33.15 27.7798ZM37.7348 35.7826L37.8322 35.7597V35.7597L37.7348 35.7826ZM35.741 37.7893V37.8893V37.7893ZM6.25898 37.7893V37.6893V37.7893ZM4.26518 35.7826L4.36253 35.8054L4.26518 35.7826ZM27.2 31.2V31.3H27.3V31.2H27.2ZM27.2 32.8H27.3V32.7H27.2V32.8ZM28.8 32.8V32.7H28.7V32.8H28.8ZM28.8 31.2H28.7V31.3H28.8V31.2ZM20.9997 4.1107C16.652 4.1107 13.1272 7.62922 13.1272 11.9699H13.3272C13.3272 7.74 16.7621 4.3107 20.9997 4.3107V4.1107ZM28.8722 11.9699C28.8722 7.62922 25.3474 4.1107 20.9997 4.1107V4.3107C25.2373 4.3107 28.6722 7.74 28.6722 11.9699H28.8722ZM20.9997 19.8291C25.3474 19.8291 28.8722 16.3106 28.8722 11.9699H28.6722C28.6722 16.1998 25.2373 19.6291 20.9997 19.6291V19.8291ZM13.1272 11.9699C13.1272 16.3106 16.652 19.8291 20.9997 19.8291V19.6291C16.7621 19.6291 13.3272 16.1998 13.3272 11.9699H13.1272ZM10.1109 11.9699C10.1109 5.96678 14.9858 1.1 20.9997 1.1V0.9C14.8757 0.9 9.91095 5.856 9.91095 11.9699H10.1109ZM14.5044 20.6949C11.8378 18.7134 10.1109 15.543 10.1109 11.9699H9.91095C9.91095 15.609 11.67 18.8379 14.3851 20.8555L14.5044 20.6949ZM6.68686 25.5406C8.90216 23.4081 11.5732 21.8227 14.4759 20.8702L14.4136 20.6802C11.4829 21.6418 8.78566 23.2426 6.54816 25.3965L6.68686 25.5406ZM1.23105 35.0733C2.07295 31.4847 3.9525 28.1728 6.68686 25.5406L6.54816 25.3965C3.78633 28.0551 1.88713 31.4011 1.03633 35.0276L1.23105 35.0733ZM6.25898 40.9C4.79827 40.9 3.34252 40.2791 2.35189 39.2395C1.36333 38.2022 0.837991 36.7486 1.23105 35.0733L1.03633 35.0276C0.626529 36.7744 1.17614 38.2956 2.2071 39.3775C3.23598 40.4572 4.7443 41.1 6.25898 41.1V40.9ZM35.741 40.9L6.25898 40.9V41.1L35.741 41.1V40.9ZM40.769 35.0733C41.162 36.7487 40.6367 38.2022 39.6481 39.2395C38.6575 40.2791 37.2017 40.9 35.741 40.9V41.1C37.2557 41.1 38.764 40.4572 39.7929 39.3775C40.8239 38.2956 41.3735 36.7744 40.9637 35.0276L40.769 35.0733ZM35.3131 25.5406C38.0475 28.1728 39.9271 31.4847 40.769 35.0733L40.9637 35.0276C40.1129 31.4011 38.2137 28.0551 35.4518 25.3965L35.3131 25.5406ZM27.5237 20.8701C30.4266 21.8226 33.0977 23.408 35.3131 25.5406L35.4518 25.3965C33.2142 23.2425 30.5168 21.6417 27.586 20.68L27.5237 20.8701ZM31.8885 11.9699C31.8885 15.5429 30.1617 18.7133 27.4952 20.6948L27.6145 20.8553C30.3295 18.8378 32.0885 15.6089 32.0885 11.9699H31.8885ZM20.9997 1.1C27.0136 1.1 31.8885 5.96678 31.8885 11.9699H32.0885C32.0885 5.856 27.1237 0.9 20.9997 0.9V1.1ZM21 22.8398C16.4069 22.8398 12.0124 24.5967 8.78065 27.7077L8.91936 27.8518C12.1131 24.7774 16.4575 23.0398 21 23.0398V22.8398ZM33.2193 27.7077C29.9876 24.5967 25.5931 22.8398 21 22.8398V23.0398C25.5425 23.0398 29.8869 24.7774 33.0806 27.8518L33.2193 27.7077ZM37.8322 35.7597C37.1239 32.7408 35.5398 29.9415 33.2193 27.7077L33.0806 27.8518C35.3736 30.0591 36.9381 32.8244 37.6375 35.8054L37.8322 35.7597ZM35.741 37.8893C37.26 37.8893 38.059 36.7267 37.8322 35.7597L37.6375 35.8054C37.8301 36.6267 37.1526 37.6893 35.741 37.6893V37.8893ZM6.25898 37.8893L35.741 37.8893V37.6893L6.25898 37.6893V37.8893ZM4.16782 35.7597C3.94097 36.7267 4.73998 37.8893 6.25898 37.8893V37.6893C4.84739 37.6893 4.16985 36.6267 4.36253 35.8054L4.16782 35.7597ZM8.78065 27.7077C6.4602 29.9415 4.87608 32.7408 4.16782 35.7597L4.36253 35.8054C5.06191 32.8244 6.62637 30.0591 8.91936 27.8518L8.78065 27.7077ZM28 28.1C28.3866 28.1 28.7 28.4134 28.7 28.8H28.9C28.9 28.3029 28.4971 27.9 28 27.9V28.1ZM27.3 28.8C27.3 28.4134 27.6134 28.1 28 28.1V27.9C27.5029 27.9 27.1 28.3029 27.1 28.8H27.3ZM27.3 31.2V28.8H27.1V31.2H27.3ZM24.8 31.3H27.2V31.1H24.8V31.3ZM24.1 32C24.1 31.6134 24.4134 31.3 24.8 31.3V31.1C24.3029 31.1 23.9 31.5029 23.9 32H24.1ZM24.8 32.7C24.4134 32.7 24.1 32.3866 24.1 32H23.9C23.9 32.4971 24.3029 32.9 24.8 32.9V32.7ZM27.2 32.7H24.8V32.9H27.2V32.7ZM27.3 35.2V32.8H27.1V35.2H27.3ZM28 35.9C27.6134 35.9 27.3 35.5866 27.3 35.2H27.1C27.1 35.6971 27.5029 36.1 28 36.1V35.9ZM28.7 35.2C28.7 35.5866 28.3866 35.9 28 35.9V36.1C28.4971 36.1 28.9 35.6971 28.9 35.2H28.7ZM28.7 32.8V35.2H28.9V32.8H28.7ZM31.2 32.7H28.8V32.9H31.2V32.7ZM31.9 32C31.9 32.3866 31.5866 32.7 31.2 32.7V32.9C31.6971 32.9 32.1 32.4971 32.1 32H31.9ZM31.2 31.3C31.5866 31.3 31.9 31.6134 31.9 32H32.1C32.1 31.5029 31.6971 31.1 31.2 31.1V31.3ZM28.8 31.3H31.2V31.1H28.8V31.3ZM28.7 28.8V31.2H28.9V28.8H28.7Z" fill="white"/>
</svg>
