<svg width="51" height="50" viewBox="0 0 51 50" fill="none" xmlns="http://www.w3.org/2000/svg">
<path d="M25.0794 34.9137L26.3712 33.7185C28.492 31.7325 30.6113 29.7404 32.729 27.7422C32.8731 27.5828 33.0651 27.4747 33.2761 27.4342C34.9822 27.3604 36.6913 27.3973 38.3927 27.5445C40.323 27.7983 42.0956 28.7438 43.3815 30.2056C44.6674 31.6674 45.3793 33.5461 45.385 35.493C45.4493 39.9246 45.385 44.3517 45.385 48.7833C45.3805 48.8696 45.3713 48.9555 45.3574 49.0408H4.783C4.783 48.8615 4.75541 48.7006 4.75541 48.5351C4.75541 44.2551 4.75541 39.9706 4.75541 35.6861C4.73376 33.7931 5.37433 31.952 6.56635 30.4813C7.75838 29.0105 9.4269 28.0026 11.2834 27.6319C12.4235 27.402 13.6467 27.4204 14.7956 27.4204C16.41 27.4204 17.609 27.779 18.7445 28.9558C20.6477 30.9234 22.7164 32.7301 24.7208 34.6011C24.8265 34.7023 24.9369 34.7942 25.0794 34.9137ZM37.2802 37.9295C37.2802 37.2077 37.2802 36.5503 37.2802 35.8929C37.2802 35.3826 37.1331 35.139 36.586 35.1712C36.0348 35.2033 35.4823 35.2033 34.9311 35.1712C34.3932 35.139 34.2139 35.3781 34.2323 35.8883C34.2553 36.5595 34.2323 37.2307 34.2323 37.9295H32.0532C31.6625 37.9295 31.474 38.0858 31.4832 38.4903C31.4832 39.0971 31.5154 39.704 31.4832 40.3062C31.4556 40.8165 31.6533 41.0095 32.1498 40.9911C32.8256 40.9911 33.5013 40.9911 34.2323 40.9911C34.2323 41.7175 34.2553 42.3703 34.2323 43.0323C34.2323 43.5472 34.3978 43.7816 34.9311 43.754C35.4643 43.7265 36.0344 43.7219 36.586 43.754C37.1377 43.7862 37.3032 43.5472 37.2802 43.0323C37.2526 42.3749 37.2802 41.7175 37.2802 40.9958C38.0203 40.9958 38.6961 40.9958 39.3673 40.9958C39.8684 40.9958 40.0661 40.8027 40.0431 40.3062C40.0155 39.7177 40.0201 39.1293 40.0431 38.5409C40.0431 38.0812 39.8546 37.9157 39.4179 37.9249C38.7329 37.9387 38.0525 37.9295 37.2802 37.9295Z" fill="white"/>
<path d="M36.4986 12.3877C36.4986 14.6481 35.8283 16.8577 34.5726 18.7371C33.3168 20.6165 31.5319 22.0813 29.4436 22.9463C27.3553 23.8113 25.0574 24.0376 22.8405 23.5966C20.6236 23.1557 18.5872 22.0672 16.9889 20.4689C15.3906 18.8706 14.3022 16.8342 13.8612 14.6173C13.4202 12.4004 13.6466 10.1025 14.5115 8.01423C15.3765 5.92595 16.8414 4.14106 18.7208 2.88528C20.6002 1.6295 22.8098 0.959229 25.0701 0.959229C28.1011 0.959229 31.008 2.16329 33.1513 4.30655C35.2945 6.44981 36.4986 9.35669 36.4986 12.3877Z" fill="white"/>
</svg>
