<svg width="51" height="50" viewBox="0 0 51 50" fill="none" xmlns="http://www.w3.org/2000/svg">
<g clip-path="url(#clip0_1223_3861)">
<path d="M10.5096 41.7827C9.15248 38.6904 7.80933 35.6402 6.46338 32.5844C6.49465 32.5533 6.52947 32.5259 6.56713 32.5029C7.74764 31.9997 8.73748 31.2126 9.70488 30.3861C11.4364 28.8771 13.5913 27.9422 15.8738 27.7098C18.0264 27.5061 20.1963 27.8252 22.1998 28.6403C23.5486 29.1632 24.8581 29.7817 26.2124 30.2821C28.5679 31.1507 31.0298 31.6033 33.489 32.0447C34.0863 32.1543 34.6891 32.2302 35.2696 32.3933C35.7339 32.5101 36.1768 32.6998 36.5819 32.9555C37.4231 33.5178 37.4736 34.4933 36.7277 35.1708C36.3252 35.5511 35.8403 35.8328 35.3109 35.9938C34.7816 36.1547 34.2223 36.1906 33.6769 36.0985C31.4084 35.7414 29.1483 35.3282 26.877 34.974C25.3883 34.7159 23.8584 34.8476 22.4354 35.3563C22.2961 35.3987 22.1645 35.4633 22.0456 35.5475C21.9535 35.6156 21.891 35.7167 21.8712 35.8297C21.8513 35.9428 21.8756 36.0591 21.939 36.1547C21.9608 36.1978 21.9911 36.236 22.0281 36.267C22.0651 36.298 22.1081 36.321 22.1543 36.3347C22.2005 36.3484 22.2491 36.3524 22.2969 36.3466C22.3448 36.3408 22.3909 36.3252 22.4326 36.3009C24.115 35.5981 25.8395 35.6571 27.5892 35.972C29.5998 36.329 31.6075 36.686 33.6264 36.984C34.3119 37.093 35.0134 37.0355 35.6721 36.8163C36.3308 36.5972 36.9274 36.2228 37.4119 35.7246C38.3513 34.8109 38.3569 33.5627 37.496 32.5788L37.3839 32.4495C37.8662 32.1375 38.3653 31.8732 38.7859 31.5274C39.8795 30.6503 40.931 29.7198 42.0218 28.8399C42.8882 28.1455 43.7771 27.4821 44.6772 26.8327C44.8706 26.6733 45.0958 26.5574 45.3377 26.4929C45.5796 26.4284 45.8325 26.4168 46.0793 26.4588C46.427 26.5375 46.7298 26.8074 47.0775 26.8889C47.4252 26.9704 47.801 26.8355 48.1262 26.9311C48.7964 27.1335 49.1329 27.8982 48.917 28.6487C48.8295 28.9382 48.696 29.2116 48.5216 29.4584C47.2233 31.2913 45.9054 33.113 44.5959 34.9431C43.8744 35.9649 42.9185 36.7979 41.8087 37.3719C38.8868 38.9013 35.9622 40.4193 33.0824 42.0245C31.4102 42.9867 29.4375 43.2808 27.5584 42.8482C25.6152 42.4153 23.7028 41.8333 21.7764 41.3133C20.3744 40.9338 18.9555 40.4868 17.5226 40.1888C15.9713 39.8661 14.3576 40.0503 12.9183 40.7145C12.1304 41.0715 11.3312 41.4201 10.5096 41.7827Z" fill="white"/>
<path d="M0.0839844 33.1609L5.06681 31.5951L10.2824 43.4528L5.76783 46.0869C3.86667 41.7605 1.98234 37.479 0.0839844 33.1553" fill="white"/>
<path d="M18.5338 17.4939C18.5404 15.1646 19.2338 12.8892 20.5268 10.9539C21.8198 9.01861 23.6547 7.5098 25.8008 6.61721C27.9469 5.72461 30.3083 5.4881 32.5881 5.93739C34.8679 6.38669 36.9643 7.50174 38.6136 9.14233C40.263 10.7829 41.3917 12.8758 41.8578 15.1578C42.3239 17.4398 42.1066 19.809 41.2333 21.9675C40.3599 24.126 38.8694 25.9774 36.9493 27.289C35.0292 28.6005 32.7651 29.3136 30.4418 29.3386C28.8809 29.3566 27.332 29.0632 25.8853 28.4755C24.4385 27.8879 23.1228 27.0176 22.0146 25.9153C20.9065 24.8131 20.0281 23.5009 19.4305 22.0551C18.8329 20.6094 18.5281 19.0589 18.5338 17.4939ZM30.54 8.14289C28.0929 8.09244 25.7228 9.00115 23.9337 10.6757C22.1447 12.3503 21.0779 14.6586 20.9603 17.1096C20.7779 22.2655 24.7847 26.7278 29.7592 26.9012C35.1545 27.0887 39.5073 23.1139 39.6849 17.8361C39.7229 16.5967 39.5161 15.3621 39.0765 14.2031C38.6368 13.0442 37.9729 11.9838 37.1231 11.0829C36.2732 10.1821 35.2541 9.45861 34.1243 8.95404C32.9945 8.44948 31.7764 8.17381 30.54 8.14289Z" fill="white"/>
<path d="M30.919 23.7326V25.0872H29.7268V23.6154C28.9983 23.5829 28.2839 23.4029 27.6267 23.0863C26.9694 22.7698 26.3829 22.3231 25.9023 21.7733L27.2348 20.5125C27.8893 21.1171 28.586 21.7827 29.7221 21.7452C29.7221 20.6156 29.7221 19.5 29.7221 18.3844C29.7221 18.2766 29.5304 18.1407 29.3948 18.0704C28.9273 17.8173 28.4597 17.6017 27.9922 17.3486C26.8047 16.6736 26.1221 15.7033 26.267 14.2737C26.412 12.8441 27.3236 11.9676 28.6281 11.4614L28.7356 11.4286C29.5631 11.3114 30.2551 11.077 29.853 9.95679H31.0499L31.106 11.152C32.2966 11.2505 33.4165 11.759 34.2758 12.591L33.093 13.9972C32.5732 13.421 31.8547 13.0642 31.0826 12.9988C31.0826 14.03 31.0826 15.0331 31.0826 16.0361C31.0826 16.1393 31.293 16.2611 31.4286 16.3314C32.0691 16.6292 32.6933 16.9609 33.2987 17.3251C33.7827 17.6448 34.1733 18.0876 34.4307 18.6083C34.688 19.1289 34.8028 19.7087 34.7633 20.2885C34.7239 20.8682 34.5316 21.427 34.206 21.9078C33.8805 22.3886 33.4335 22.774 32.9106 23.0248C32.264 23.3068 31.5984 23.5433 30.919 23.7326ZM30.9423 21.7874C31.9008 21.7874 32.4945 21.2437 32.546 20.4046C32.5543 19.9672 32.3952 19.5431 32.1013 19.2197C31.8073 18.8962 31.401 18.698 30.9657 18.6657L30.9423 21.7874ZM29.8483 15.8299V13.041C29.0161 13.1488 28.5533 13.5472 28.4738 14.1706C28.3849 14.869 28.8384 15.4315 29.8483 15.8299Z" fill="white"/>
</g>
<defs>
<clipPath id="clip0_1223_3861">
<rect width="50" height="50" fill="white" transform="translate(0.0839844)"/>
</clipPath>
</defs>
</svg>
