<svg width="50" height="56" viewBox="0 0 50 56" fill="none" xmlns="http://www.w3.org/2000/svg">
<g clip-path="url(#clip0_1225_4602)">
<path d="M50.1665 44.6254V55.1217H0.164063V44.6254C0.163729 42.7579 0.722081 40.9279 1.77565 39.3432C2.82921 37.7586 4.33573 36.4829 6.12394 35.6612C6.9622 38.856 8.5893 42.5565 11.7364 45.1215C11.6289 45.428 11.5874 45.7514 11.6143 46.073C11.654 46.5893 11.856 47.0829 12.1947 47.4915C12.5334 47.9001 12.9937 48.2053 13.5174 48.3687C14.0411 48.5321 14.6047 48.5462 15.137 48.4093C15.6692 48.2724 16.1462 47.9906 16.5077 47.5995C16.8693 47.2084 17.0991 46.7256 17.1681 46.2121C17.2371 45.6986 17.1422 45.1775 16.8955 44.7145C16.6488 44.2516 16.2612 43.8676 15.7818 43.6111C15.3025 43.3546 14.7528 43.2372 14.2022 43.2735C13.7516 43.3024 13.3156 43.4351 12.9327 43.6598C10.1384 41.3247 8.7022 37.8495 7.96715 34.8901L15.7659 31.6771L25.1641 43.3985L34.5613 31.6753L42.4593 34.9301C42.398 35.0765 42.3207 35.2166 42.2287 35.3481L40.3462 38.0835C39.538 37.7875 38.6567 37.7133 37.8052 37.8696C36.9537 38.0259 36.1673 38.4061 35.5376 38.9659L32.3881 41.7518C32.3465 41.7914 32.3087 41.8345 32.2752 41.8804C31.9383 42.3728 31.823 42.9702 31.9543 43.5421C32.0857 44.114 32.4531 44.6139 32.9763 44.9325L33.7066 45.3787C33.7119 45.5014 33.7433 45.6219 33.799 45.733C33.8547 45.8441 33.9335 45.9437 34.0307 46.0259C34.128 46.1081 34.2418 46.1713 34.3654 46.2117C34.4891 46.2521 34.6201 46.2689 34.7507 46.2612C34.9025 46.2512 35.0498 46.2082 35.1808 46.1357C35.3118 46.0631 35.4231 45.963 35.5057 45.8431L35.7557 45.4796C35.8761 45.3069 35.9309 45.1012 35.9113 44.8957C35.8916 44.6901 35.7987 44.4968 35.6474 44.347C35.4962 44.1971 35.2955 44.0994 35.0777 44.0697C34.86 44.04 34.6379 44.08 34.4474 44.1832H34.4426L33.7758 43.7788C33.5902 43.6646 33.4563 43.4899 33.4002 43.2884C33.344 43.0869 33.3696 42.8731 33.472 42.6883L36.5455 39.972C37.0539 39.5224 37.7083 39.2456 38.4041 39.1856C39.0999 39.1255 39.7971 39.2858 40.3845 39.6408C40.9718 39.9959 41.4154 40.5251 41.6445 41.1442C41.8735 41.7633 41.8748 42.4365 41.6482 43.0563L40.2619 46.8064C40.1262 46.9698 39.9303 47.0797 39.7127 47.1146C39.495 47.1495 39.2713 47.1068 39.0855 46.995L38.4139 46.5901C38.4339 46.385 38.3802 46.1795 38.2612 46.0063C38.1422 45.8332 37.9649 45.7023 37.7574 45.6347C37.5499 45.567 37.3242 45.5665 37.1164 45.6331C36.9085 45.6997 36.7304 45.8296 36.6104 46.0022L36.3652 46.3657C36.2647 46.5085 36.209 46.6749 36.2046 46.846C36.2002 47.0171 36.2471 47.1859 36.3402 47.3332C36.4333 47.4804 36.5686 47.6001 36.7308 47.6786C36.893 47.757 37.0754 47.7912 37.2573 47.777C37.3601 47.7717 37.4613 47.7499 37.5562 47.7125L38.2865 48.1537C38.7148 48.4154 39.2229 48.5382 39.7328 48.5031C40.0966 48.4772 40.4492 48.3728 40.7629 48.1982C41.0767 48.0235 41.3431 47.7833 41.5416 47.4962C41.5716 47.4476 41.5978 47.397 41.6201 47.3449L43.0316 43.5062C43.3092 42.7525 43.3582 41.9413 43.1729 41.163C42.9877 40.3848 42.5756 39.6701 41.9825 39.0986L43.8747 36.3496C44.0201 36.1401 44.1448 35.9187 44.2473 35.688C46.024 36.5125 47.5197 37.7862 48.5656 39.3653C49.6115 40.9445 50.166 42.7664 50.1665 44.6254Z" fill="white"/>
<path d="M30.4153 33.1079C25.5412 34.2698 19.7471 33.0702 19.7471 33.0702L25.1643 40.6807L30.5824 33.0702L30.4153 33.1079Z" fill="white"/>
<path d="M9.50271 20.7726C10.6792 18.8833 11.5077 15.987 11.6599 15.4563L11.6841 15.3654L11.689 15.3745C11.6841 15.1541 11.6744 14.9655 11.6744 14.8092C11.6226 11.773 12.2205 9.41018 13.1857 7.56127V7.55173C15.6167 1.29254 20.0032 2.24584 20.0866 2.26493L20.0929 2.26266C21.5707 0.448284 26.0087 0.598232 26.0087 0.598232L26.014 0.603684C27.008 0.626355 27.9976 0.736344 28.9697 0.932207C30.5355 1.24866 32.006 1.88954 33.2734 2.80792C34.6704 3.81893 35.9869 5.26707 37.0776 7.31273C38.0626 9.12392 38.6901 11.4408 38.6901 14.4334C38.6901 14.5575 38.6853 14.6815 38.6853 14.8056C38.6853 14.9755 38.6756 15.1918 38.6707 15.454C38.8224 15.987 39.651 18.8833 40.8274 20.7703C41.2345 21.4274 41.2393 22.2366 40.793 22.8755C40.2662 23.6315 39.6303 24.3153 38.9033 24.9075C38.4443 25.2812 37.9562 25.6222 37.4429 25.9276C37.4376 25.9276 37.4376 25.9326 37.4327 25.9372C37.4279 25.9417 37.4134 25.9417 37.4085 25.9508C36.4036 26.5415 35.168 27.0868 33.6635 27.4771C32.1289 27.9229 30.6142 28.1896 29.3738 28.3504C28.977 28.4009 28.82 27.896 29.1732 27.7252C33.0912 25.8381 33.9983 21.9513 34.1766 20.8826C34.1815 20.8553 34.196 20.8371 34.2008 20.814C34.2057 20.7403 34.211 20.6713 34.2159 20.6068C34.2464 20.1877 34.3444 19.7755 34.5066 19.384C35.2712 17.4856 35.6583 14.6402 30.0972 13.4129C29.3864 13.2425 25.2518 12.5532 20.9597 8.79266C20.9597 8.79266 19.3375 11.9002 18.1116 13.013C16.8862 14.1345 15.2193 15.1137 15.3497 17.8259C15.3545 17.8854 15.3545 17.9499 15.3642 18.0145C15.3346 19.7854 15.5371 21.553 15.967 23.2776C16.3149 24.4822 17.3693 26.9873 20.261 28.0678C20.5847 28.1919 20.4548 28.6376 20.1157 28.6054C18.003 28.3782 15.0619 27.6311 12.1154 25.4292C12.1105 25.4246 12.1105 25.4246 12.1105 25.4201C11.8804 25.2588 11.6599 25.0934 11.4588 24.928C11.4483 24.923 11.4383 24.9169 11.4292 24.9098C10.702 24.3172 10.0653 23.6334 9.53711 22.8778C9.09133 22.2389 9.09618 21.4297 9.50271 20.7726Z" fill="white"/>
</g>
<defs>
<clipPath id="clip0_1225_4602">
<rect width="50" height="55" fill="white" transform="translate(0 0.5)"/>
</clipPath>
</defs>
</svg>
