<svg width="51" height="50" viewBox="0 0 51 50" fill="none" xmlns="http://www.w3.org/2000/svg">
<g clip-path="url(#clip0_1223_3916)">
<path d="M0.630017 38.5629H3.56868V17.6879C3.56868 16.1633 4.21738 15.5028 5.73796 15.5028C8.6044 15.5028 11.4704 15.5028 14.336 15.5028H14.9276V16.1777C14.9276 23.1565 14.9276 30.1361 14.9276 37.1166C14.9276 37.5826 15.0054 38.0499 15.0483 38.5289H16.164V34.9421C16.164 26.5701 16.164 18.1982 16.164 9.82627C16.164 8.75987 16.6816 7.50985 17.5496 7.28273C17.7556 7.23655 17.9665 7.21638 18.1775 7.22269C23.1942 7.22269 28.2109 7.22269 33.2276 7.22269C34.4822 7.22269 35.1116 8.49882 35.1193 9.77667C35.1193 19.0875 35.1193 28.3936 35.1193 37.6949C35.1193 37.9559 35.083 38.217 35.061 38.512H36.2286C36.2715 38.0682 36.3584 37.5983 36.3584 37.118C36.3679 30.1374 36.3701 23.1578 36.3649 16.179V15.5028H45.8464C45.993 15.5028 46.1396 15.5028 46.2849 15.5211C47.2866 15.6229 47.9275 16.2925 47.9392 17.3028C47.956 18.7934 47.9392 20.284 47.9392 21.7759C47.9392 26.9857 47.9392 32.1958 47.9392 37.4064V38.5302H50.6326L50.7623 44.7282C50.6326 44.7387 50.1189 44.7282 49.9788 44.7282H0.631367C0.550927 44.7282 0.469189 44.7282 0.387451 44.7204L0.630017 38.5629ZM25.6287 21.0881C27.2759 21.0933 28.8581 20.4418 30.0289 19.2761C31.1997 18.1104 31.8638 16.5256 31.8758 14.8685C31.9082 11.4487 29.1084 8.60324 25.691 8.57844C24.8745 8.57433 24.0653 8.73204 23.3094 9.04257C22.5535 9.35311 21.8658 9.81038 21.2856 10.3883C20.7054 10.9662 20.244 11.6534 19.9278 12.4107C19.6116 13.168 19.4467 13.9805 19.4426 14.8019C19.4385 15.6233 19.5953 16.4375 19.904 17.1979C20.2126 17.9584 20.6671 18.6502 21.2416 19.2339C21.816 19.8176 22.4991 20.2818 23.2519 20.5999C24.0046 20.9181 24.8123 21.0839 25.6287 21.0881ZM22.1646 38.3906H29.534V29.1337H22.1646V38.3906ZM8.8388 28.7552H6.3737V31.2599H8.8388V28.7552ZM12.8063 28.7552H10.3217V31.2351H12.8063V28.7552ZM45.6311 31.2691V28.763H43.1737V31.2691H45.6311ZM6.3724 19.9799V22.4599H8.82971V19.9799H6.3724ZM10.3114 22.4299H12.7765V19.9903H10.3114V22.4299ZM43.1517 22.4677H45.6401V19.9969H43.1517V22.4677ZM8.82712 26.7947V24.3147H6.3737V26.7947H8.82712ZM12.792 26.7842V24.3212H10.3269V26.7842H12.792ZM45.6401 26.7842V24.3186H43.175V26.7881L45.6401 26.7842ZM39.2387 19.9799V22.4599H41.6804V19.9799H39.2387ZM39.2153 24.3042V26.7842H41.6674V24.3042H39.2153ZM41.6869 28.7617H39.2218V31.2573H41.6869V28.7617Z" fill="white"/>
<path d="M27.205 16.3761V18.7569H24.1068V16.3931H21.748V13.3049H24.0743V10.928H27.2076V13.2774H29.5274V16.3814L27.205 16.3761Z" fill="white"/>
</g>
<defs>
<clipPath id="clip0_1223_3916">
<rect width="50" height="50" fill="white" transform="translate(0.631348)"/>
</clipPath>
</defs>
</svg>
