<svg width="414" height="129" viewBox="0 0 414 129" fill="none" xmlns="http://www.w3.org/2000/svg">
<rect width="414" height="129" fill="white"/>
<path d="M171.087 91.6997C173.116 92.4326 175.428 92.9983 177.277 92.9983C183.737 92.9983 185.677 86.5183 188.078 80.694L166.938 33.5469H177.92L192.599 68.2097L205.34 33.5469H215.859L197.48 81.6197C193.408 92.4326 189.26 101.394 179.281 101.394C176.597 101.394 173.463 100.841 171.061 99.8254V91.6997H171.087Z" fill="#4C3B66"/>
<path d="M268.953 57.0239C268.953 71.9124 258.421 82.3524 243.472 82.3524C228.419 82.3524 217.978 71.9124 217.978 57.0239C217.978 42.1353 228.419 31.6953 243.472 31.6953C258.434 31.6953 268.953 42.1482 268.953 57.0239ZM258.974 57.0239C258.974 47.5096 252.424 40.6567 243.459 40.6567C234.417 40.6567 228.034 47.4967 228.034 57.0239C228.034 66.551 234.417 73.391 243.459 73.391C252.424 73.391 258.974 66.551 258.974 57.0239Z" fill="#4C3B66"/>
<path d="M310.862 80.514V74.5097C307.625 79.4083 301.717 82.3654 295.719 82.3654C284.173 82.3654 276.698 73.8669 276.698 62.2183V33.5469H286.767V61.4597C286.767 68.3897 290.826 73.3911 297.941 73.3911C304.864 73.3911 310.785 68.0297 310.785 60.5469V33.5469H320.764V80.5011H310.862V80.514Z" fill="#4C3B66"/>
<path d="M364.945 80.514V74.5097C361.708 79.4083 355.8 82.3654 349.802 82.3654C338.256 82.3654 330.781 73.8669 330.781 62.2183V33.5469H340.85V61.4597C340.85 68.3897 344.922 73.3911 352.024 73.3911C358.947 73.3911 364.855 68.0297 364.855 60.5469V33.5469H374.834V80.5011H364.945V80.514Z" fill="#4C3B66"/>
<path d="M88.8248 53.3196C88.8248 53.3196 121.126 82.2868 138.246 61.561C145.477 51.571 144.642 37.5182 135.639 28.4925C125.66 18.5025 109.477 18.5025 99.4977 28.4925L97.6097 30.3696C93.9878 34.0082 88.1184 34.0082 84.4966 30.3825L82.6086 28.4925C72.6293 18.5025 56.4465 18.5025 46.4671 28.4925C36.8346 38.1353 36.5392 53.5253 45.4782 63.5668C50.0376 47.3539 68.5836 36.9268 88.8248 53.3196Z" fill="url(#paint0_linear_404_28279)"/>
<path d="M54.931 73.122L74.7227 92.9348C78.8968 97.1134 84.6635 99.6977 91.0467 99.6848C97.417 99.672 103.184 97.0748 107.345 92.8834L135.652 64.6748C136.628 63.6977 137.476 62.6434 138.259 61.5634C121.139 82.2891 88.8376 53.322 88.8376 53.322C68.5964 36.9291 50.0505 47.3563 45.5039 63.5691C45.825 63.942 46.1461 64.3148 46.4928 64.6748L54.931 73.122Z" fill="url(#paint1_linear_404_28279)"/>
<path d="M285.909 107.019V90.1875H287.946V97.6826H296.91V90.1875H298.947V107.019H296.91V99.4906H287.946V107.019H285.909Z" fill="black"/>
<path d="M303.022 107.019V90.1875H313.169V91.9955H305.059V97.6826H312.644V99.4906H305.059V105.211H313.3V107.019H303.022Z" fill="black"/>
<path d="M317.528 107.019H315.394L321.568 90.1875H323.669L329.842 107.019H327.709L322.684 92.8502H322.553L317.528 107.019ZM318.316 100.444H326.92V102.252H318.316V100.444Z" fill="black"/>
<path d="M332.463 107.019V90.1875H334.498V105.211H342.314V107.019H332.463Z" fill="black"/>
<path d="M342.312 91.9955V90.1875H354.922V91.9955H349.635V107.019H347.598V91.9955H342.312Z" fill="black"/>
<path d="M358.063 107.019V90.1875H360.098V97.6826H369.065V90.1875H371.1V107.019H369.065V99.4906H360.098V107.019H358.063Z" fill="black"/>
<defs>
<linearGradient id="paint0_linear_404_28279" x1="91.058" y1="71.7279" x2="91.058" y2="20.0913" gradientUnits="userSpaceOnUse">
<stop stop-color="#EE9E68"/>
<stop offset="0.4643" stop-color="#E7677E"/>
<stop offset="1" stop-color="#AD5D9E"/>
</linearGradient>
<linearGradient id="paint1_linear_404_28279" x1="91.8689" y1="93.9184" x2="91.8689" y2="40.1911" gradientUnits="userSpaceOnUse">
<stop stop-color="#6B4379"/>
<stop offset="0.508" stop-color="#97619C"/>
<stop offset="1" stop-color="#9D66A2"/>
</linearGradient>
</defs>
</svg>
