<svg width="25" height="25" viewBox="0 0 25 25" fill="none" xmlns="http://www.w3.org/2000/svg">
<path d="M12.5041 0C7.28545 0 5.75919 0.00538507 5.46252 0.0300025C4.39157 0.119049 3.72515 0.287717 2.99914 0.649286C2.43963 0.927194 1.99836 1.24934 1.56287 1.70091C0.769749 2.52444 0.28907 3.53761 0.115064 4.74194C0.0304644 5.3266 0.0058536 5.44585 0.00085454 8.43225C-0.00106818 9.42772 0.00085454 10.7378 0.00085454 12.4951C0.00085454 17.7109 0.00662269 19.236 0.031618 19.5322C0.11814 20.5746 0.281571 21.2305 0.62766 21.9478C1.28907 23.321 2.5523 24.3519 4.04048 24.7365C4.55577 24.8692 5.12489 24.9423 5.85552 24.9769C6.16508 24.9904 9.32026 25 12.4774 25C15.6345 25 18.7916 24.9962 19.0934 24.9808C19.9394 24.941 20.4307 24.875 20.9738 24.7346C21.7117 24.5453 22.3994 24.1972 22.9889 23.7145C23.5784 23.2319 24.0554 22.6263 24.3867 21.9401C24.726 21.2401 24.8981 20.5592 24.976 19.5713C24.9929 19.3559 25 15.9215 25 12.4918C25 9.06154 24.9923 5.63355 24.9754 5.41815C24.8966 4.41422 24.7245 3.73916 24.3742 3.02564C24.0867 2.44155 23.7675 2.00536 23.3042 1.55936C22.4774 0.769296 21.466 0.288486 20.2607 0.114625C19.6768 0.0301949 19.5604 0.00519275 16.5725 0H12.5041Z" fill="url(#paint0_radial_1437_4871)"/>
<path d="M12.5041 0C7.28545 0 5.75919 0.00538507 5.46252 0.0300025C4.39157 0.119049 3.72515 0.287717 2.99914 0.649286C2.43963 0.927194 1.99836 1.24934 1.56287 1.70091C0.769749 2.52444 0.28907 3.53761 0.115064 4.74194C0.0304644 5.3266 0.0058536 5.44585 0.00085454 8.43225C-0.00106818 9.42772 0.00085454 10.7378 0.00085454 12.4951C0.00085454 17.7109 0.00662269 19.236 0.031618 19.5322C0.11814 20.5746 0.281571 21.2305 0.62766 21.9478C1.28907 23.321 2.5523 24.3519 4.04048 24.7365C4.55577 24.8692 5.12489 24.9423 5.85552 24.9769C6.16508 24.9904 9.32026 25 12.4774 25C15.6345 25 18.7916 24.9962 19.0934 24.9808C19.9394 24.941 20.4307 24.875 20.9738 24.7346C21.7117 24.5453 22.3994 24.1972 22.9889 23.7145C23.5784 23.2319 24.0554 22.6263 24.3867 21.9401C24.726 21.2401 24.8981 20.5592 24.976 19.5713C24.9929 19.3559 25 15.9215 25 12.4918C25 9.06154 24.9923 5.63355 24.9754 5.41815C24.8966 4.41422 24.7245 3.73916 24.3742 3.02564C24.0867 2.44155 23.7675 2.00536 23.3042 1.55936C22.4774 0.769296 21.466 0.288486 20.2607 0.114625C19.6768 0.0301949 19.5604 0.00519275 16.5725 0H12.5041Z" fill="url(#paint1_radial_1437_4871)"/>
<path d="M12.5041 0C7.28545 0 5.75919 0.00538507 5.46252 0.0300025C4.39157 0.119049 3.72515 0.287717 2.99914 0.649286C2.43963 0.927194 1.99836 1.24934 1.56287 1.70091C0.769749 2.52444 0.28907 3.53761 0.115064 4.74194C0.0304644 5.3266 0.0058536 5.44585 0.00085454 8.43225C-0.00106818 9.42772 0.00085454 10.7378 0.00085454 12.4951C0.00085454 17.7109 0.00662269 19.236 0.031618 19.5322C0.11814 20.5746 0.281571 21.2305 0.62766 21.9478C1.28907 23.321 2.5523 24.3519 4.04048 24.7365C4.55577 24.8692 5.12489 24.9423 5.85552 24.9769C6.16508 24.9904 9.32026 25 12.4774 25C15.6345 25 18.7916 24.9962 19.0934 24.9808C19.9394 24.941 20.4307 24.875 20.9738 24.7346C21.7117 24.5453 22.3994 24.1972 22.9889 23.7145C23.5784 23.2319 24.0554 22.6263 24.3867 21.9401C24.726 21.2401 24.8981 20.5592 24.976 19.5713C24.9929 19.3559 25 15.9215 25 12.4918C25 9.06154 24.9923 5.63355 24.9754 5.41815C24.8966 4.41422 24.7245 3.73916 24.3742 3.02564C24.0867 2.44155 23.7675 2.00536 23.3042 1.55936C22.4774 0.769296 21.466 0.288486 20.2607 0.114625C19.6768 0.0301949 19.5604 0.00519275 16.5725 0H12.5041Z" fill="#9EA1AD"/>
<path d="M12.4991 3.26941C9.99269 3.26941 9.67813 3.28037 8.6937 3.32518C7.7112 3.37019 7.04055 3.52578 6.45374 3.75407C5.84674 3.98985 5.33184 4.30527 4.81886 4.81858C4.30549 5.3317 3.99016 5.84674 3.75367 6.45372C3.52487 7.04088 3.36913 7.7119 3.32491 8.69429C3.28107 9.67899 3.26953 9.99382 3.26953 12.501C3.26953 15.0081 3.28068 15.3218 3.32529 16.3065C3.37047 17.2893 3.52602 17.9601 3.75406 18.547C3.98997 19.1542 4.3053 19.6693 4.81847 20.1824C5.33126 20.6959 5.84616 21.0121 6.45278 21.2479C7.03998 21.4761 7.71081 21.6317 8.69313 21.6767C9.67756 21.7215 9.99192 21.7325 12.4982 21.7325C15.0048 21.7325 15.3184 21.7215 16.3029 21.6767C17.2854 21.6317 17.9568 21.4761 18.544 21.2479C19.1508 21.0121 19.6649 20.6959 20.1777 20.1824C20.6911 19.6693 21.0064 19.1542 21.2429 18.5472C21.4698 17.9601 21.6255 17.2891 21.6716 16.3067C21.7159 15.322 21.7274 15.0081 21.7274 12.501C21.7274 9.99382 21.7159 9.67918 21.6716 8.69448C21.6255 7.71171 21.4698 7.04088 21.2429 6.45391C21.0064 5.84674 20.6911 5.3317 20.1777 4.81858C19.6643 4.30507 19.151 3.98966 18.5434 3.75407C17.955 3.52578 17.284 3.37019 16.3015 3.32518C15.3171 3.28037 15.0037 3.26941 12.4965 3.26941H12.4991ZM11.6712 4.93301C11.9169 4.93263 12.1911 4.93301 12.4991 4.93301C14.9633 4.93301 15.2554 4.94186 16.2284 4.98609C17.1283 5.02725 17.6166 5.17765 17.942 5.304C18.3727 5.47133 18.6797 5.67134 19.0025 5.99445C19.3256 6.31755 19.5255 6.62527 19.6932 7.05608C19.8195 7.3811 19.97 7.86961 20.011 8.76968C20.0552 9.74284 20.0648 10.0352 20.0648 12.4988C20.0648 14.9625 20.0552 15.2548 20.011 16.228C19.9699 17.1281 19.8195 17.6166 19.6932 17.9416C19.5259 18.3724 19.3256 18.6792 19.0025 19.0021C18.6795 19.3252 18.3728 19.5252 17.942 19.6925C17.617 19.8195 17.1283 19.9695 16.2284 20.0106C15.2555 20.0549 14.9633 20.0645 12.4991 20.0645C10.0348 20.0645 9.74274 20.0549 8.76984 20.0106C7.87001 19.9691 7.38164 19.8187 7.05613 19.6923C6.62544 19.525 6.3178 19.325 5.99479 19.0019C5.67177 18.6788 5.47181 18.3718 5.30415 17.9408C5.17783 17.6158 5.02728 17.1273 4.98632 16.2272C4.9421 15.2541 4.93326 14.9617 4.93326 12.4965C4.93326 10.0313 4.9421 9.74053 4.98632 8.76737C5.02747 7.8673 5.17783 7.3788 5.30415 7.05338C5.47143 6.62258 5.67177 6.31486 5.99479 5.99176C6.3178 5.66865 6.62544 5.46863 7.05613 5.30093C7.38145 5.17399 7.87001 5.02398 8.76984 4.98263C9.62122 4.94417 9.95116 4.93263 11.6712 4.9307V4.93301ZM17.4255 6.46583C17.2065 6.46583 16.9923 6.53081 16.8102 6.65256C16.6281 6.7743 16.4861 6.94733 16.4023 7.14978C16.3185 7.35222 16.2966 7.57498 16.3393 7.78988C16.3821 8.00478 16.4876 8.20217 16.6426 8.35708C16.7975 8.51199 16.9948 8.61747 17.2097 8.66017C17.4246 8.70287 17.6472 8.68087 17.8496 8.59697C18.052 8.51307 18.2249 8.37102 18.3465 8.18879C18.4682 8.00657 18.5331 7.79235 18.533 7.57323C18.533 6.96164 18.0369 6.46545 17.4255 6.46545V6.46583ZM12.4991 7.76017C9.88175 7.76017 7.75965 9.88285 7.75965 12.501C7.75965 15.1191 9.88175 17.2408 12.4991 17.2408C15.1165 17.2408 17.2381 15.1191 17.2381 12.501C17.2381 9.88285 15.1165 7.76017 12.4991 7.76017ZM12.4991 9.42378C14.1981 9.42378 15.5755 10.8014 15.5755 12.501C15.5755 14.2003 14.1981 15.5781 12.4991 15.5781C10.8 15.5781 9.4228 14.2003 9.4228 12.501C9.4228 10.8014 10.8 9.42378 12.4991 9.42378Z" fill="white"/>
<defs>
<radialGradient id="paint0_radial_1437_4871" cx="0" cy="0" r="1" gradientUnits="userSpaceOnUse" gradientTransform="translate(6.64066 26.9255) rotate(-90) scale(24.7768 23.0444)">
<stop stop-color="#FFDD55"/>
<stop offset="0.1" stop-color="#FFDD55"/>
<stop offset="0.5" stop-color="#FF543E"/>
<stop offset="1" stop-color="#C837AB"/>
</radialGradient>
<radialGradient id="paint1_radial_1437_4871" cx="0" cy="0" r="1" gradientUnits="userSpaceOnUse" gradientTransform="translate(-4.18763 1.80096) rotate(78.6806) scale(11.0754 45.6531)">
<stop stop-color="#3771C8"/>
<stop offset="0.128" stop-color="#3771C8"/>
<stop offset="1" stop-color="#6600FF" stop-opacity="0"/>
</radialGradient>
</defs>
</svg>
