<svg width="22" height="22" viewBox="0 0 22 22" fill="none" xmlns="http://www.w3.org/2000/svg">
<path d="M0 2.44208C0 1.73422 0.247755 1.15024 0.743243 0.690154C1.23873 0.230044 1.88289 0 2.67568 0C3.45432 0 4.08429 0.226498 4.56564 0.679537C5.06113 1.14672 5.30888 1.75546 5.30888 2.50579C5.30888 3.18533 5.06822 3.75159 4.58687 4.20463C4.09138 4.67181 3.44015 4.90541 2.6332 4.90541H2.61197C1.83333 4.90541 1.20335 4.67181 0.722008 4.20463C0.240662 3.73745 0 3.14993 0 2.44208ZM0.276062 21.0232V6.83784H4.99035V21.0232H0.276062ZM7.60232 21.0232H12.3166V13.1023C12.3166 12.6068 12.3732 12.2246 12.4865 11.9556C12.6847 11.4743 12.9855 11.0672 13.389 10.7346C13.7925 10.4019 14.2986 10.2355 14.9073 10.2355C16.4929 10.2355 17.2857 11.3044 17.2857 13.4421V21.0232H22V12.89C22 10.7947 21.5045 9.2056 20.5135 8.12259C19.5225 7.03958 18.213 6.49807 16.5849 6.49807C14.7587 6.49807 13.3359 7.28378 12.3166 8.85521V8.89768H12.2954L12.3166 8.85521V6.83784H7.60232C7.63062 7.29085 7.64479 8.69947 7.64479 11.0637C7.64479 13.4279 7.63062 16.7477 7.60232 21.0232Z" fill="#9EA1AD"/>
</svg>
