<svg width="25" height="21" viewBox="0 0 25 21" fill="none" xmlns="http://www.w3.org/2000/svg">
<path d="M7.86225 20.3252C17.2966 20.3252 22.456 12.5063 22.456 5.72602C22.456 5.50396 22.4515 5.28293 22.4415 5.06281C23.4454 4.33614 24.3117 3.43641 25 2.40579C24.0809 2.81453 23.092 3.08963 22.0545 3.21367C23.1135 2.57846 23.9264 1.57353 24.31 0.375661C23.3031 0.973168 22.2016 1.39438 21.053 1.62114C20.117 0.623781 18.7845 0 17.309 0C14.4765 0 12.1795 2.29787 12.1795 5.13034C12.1795 5.53303 12.2246 5.92459 12.3126 6.30031C8.04964 6.08572 4.26956 4.04395 1.73974 0.939329C1.28409 1.72238 1.04443 2.61233 1.04522 3.51829C1.04522 5.29848 1.95071 6.86997 3.32774 7.78938C2.51321 7.7645 1.71656 7.5444 1.00478 7.14761C1.00401 7.16916 1.00401 7.19014 1.00401 7.21316C1.00401 9.69807 2.772 11.7728 5.11895 12.2429C4.67816 12.363 4.22332 12.4237 3.76646 12.4235C3.43653 12.4235 3.11499 12.391 2.80249 12.331C3.45549 14.3697 5.34898 15.8533 7.59395 15.8948C5.83841 17.2712 3.62698 18.0911 1.22348 18.0911C0.814608 18.0915 0.406076 18.0677 0 18.02C2.27002 19.4756 4.96545 20.3249 7.8625 20.3249" fill="#FFFFFF"/>
<path d="M7.86225 20.3252C17.2966 20.3252 22.456 12.5063 22.456 5.72602C22.456 5.50396 22.4515 5.28293 22.4415 5.06281C23.4454 4.33614 24.3117 3.43641 25 2.40579C24.0809 2.81453 23.092 3.08963 22.0545 3.21367C23.1135 2.57846 23.9264 1.57353 24.31 0.375661C23.3031 0.973168 22.2016 1.39438 21.053 1.62114C20.117 0.623781 18.7845 0 17.309 0C14.4765 0 12.1795 2.29787 12.1795 5.13034C12.1795 5.53303 12.2246 5.92459 12.3126 6.30031C8.04964 6.08572 4.26956 4.04395 1.73974 0.939329C1.28409 1.72238 1.04443 2.61233 1.04522 3.51829C1.04522 5.29848 1.95071 6.86997 3.32774 7.78938C2.51321 7.7645 1.71656 7.5444 1.00478 7.14761C1.00401 7.16916 1.00401 7.19014 1.00401 7.21316C1.00401 9.69807 2.772 11.7728 5.11895 12.2429C4.67816 12.363 4.22332 12.4237 3.76646 12.4235C3.43653 12.4235 3.11499 12.391 2.80249 12.331C3.45549 14.3697 5.34898 15.8533 7.59395 15.8948C5.83841 17.2712 3.62698 18.0911 1.22348 18.0911C0.814608 18.0915 0.406076 18.0677 0 18.02C2.27002 19.4756 4.96545 20.3249 7.8625 20.3249" fill="#FFFFFF"/>
</svg>
