<svg width="508" height="348" viewBox="0 0 508 348" fill="none" xmlns="http://www.w3.org/2000/svg">
<path opacity="0.26" d="M31.1527 347.826C31.1527 347.826 -31.261 264.954 20.5975 175.236C66.61 95.6306 120.256 101.072 159.616 133.377C176.377 147.137 224.708 135.072 265.846 54.0715C321.943 -56.3932 516.401 10.6037 480.945 180.555C463.786 262.799 533.163 265.789 497.814 348L31.1527 347.826Z" fill="#DFEBFD"/>
<path d="M145.919 221.324C145.919 221.324 115.529 178.066 103.652 183.674C91.7755 189.283 145.919 221.324 145.919 221.324Z" fill="#C8EBDB"/>
<path d="M143.987 209.701C143.987 209.701 139.345 177.176 132.027 178.451C124.709 179.728 143.987 209.701 143.987 209.701Z" fill="#C8EBDB"/>
<path d="M118.293 311.08C118.293 311.08 121.214 296.607 109.87 294.789C109.87 294.789 102.176 294.519 97.6454 297.42C97.6454 297.42 110.512 304.849 108.982 307.157C107.452 309.466 95.2416 297.847 95.2416 297.847C95.2416 297.847 81.4488 303.887 78.3704 308.264C78.3704 308.264 94.6693 311.167 92.6181 313.028C90.5667 314.89 73.466 312.655 73.466 312.655C73.466 312.655 62.4463 321.531 67.2459 328.597C72.0453 335.663 77.523 335.612 79.2568 334.384C80.9907 333.157 89.478 323.011 90.5572 324.391C91.6364 325.771 87.9016 334.337 83.4833 337.109C83.4833 337.109 97.3584 341.781 101.538 335.86C105.717 329.94 103.784 325.337 106.433 321.724C109.082 318.112 112.121 316.421 111.578 318.898C111.035 321.375 105.498 326.582 105.474 331.316C105.45 336.05 104.981 339.497 110.388 335.31C115.795 331.124 122.978 321.442 120.635 316.262C118.293 311.08 118.293 311.08 118.293 311.08Z" fill="#C8EBDB"/>
<path d="M73.3418 325.453C73.3418 325.453 105.705 305.701 118.294 311.079C118.294 311.079 122.612 315.014 130.044 316.642L131.999 318.322C131.999 318.322 122.891 315.48 120.636 316.261C120.636 316.261 117.296 302.75 73.3418 325.453Z" fill="#82B378"/>
<path d="M130.043 316.643C130.043 316.643 140.075 317.928 145.81 327.033L144.586 327.867C144.586 327.867 136.899 319.435 130.681 317.932C124.464 316.427 130.043 316.643 130.043 316.643Z" fill="#82B378"/>
<path d="M128.2 268.849C128.2 268.849 151.701 255.688 140.734 237.828C140.734 237.828 131.96 226.861 122.56 224.041C122.56 224.041 127.573 250.675 122.56 251.302C117.547 251.928 119.113 221.221 119.113 221.221C119.113 221.221 94.3594 209.314 84.646 210.254C84.646 210.254 99.9997 236.262 94.9861 235.635C89.9727 235.008 72.7391 208.688 72.7391 208.688C72.7391 208.688 47.3586 203.986 43.2852 219.028C39.2118 234.068 45.7919 241.588 49.5519 242.528C53.312 243.468 77.4392 243.155 76.8125 246.288C76.1858 249.422 59.8921 254.435 50.8053 251.615C50.8053 251.615 60.8323 276.369 73.9925 275.115C87.1526 273.862 91.226 265.715 99.3728 265.089C107.52 264.462 113.473 266.655 109.4 268.849C105.326 271.042 91.5394 269.567 84.9593 275.161C78.3792 280.756 73.0525 284.202 85.2726 286.709C97.4928 289.216 119.427 287.649 123.813 278.249C128.2 268.849 128.2 268.849 128.2 268.849Z" fill="#C8EBDB"/>
<path d="M54.8789 223.728C54.8789 223.728 120.68 245.035 128.2 268.848C128.2 268.848 127.887 279.502 134.467 291.722V296.422C134.467 296.422 127.574 280.442 123.814 278.249C123.814 278.249 138.541 257.568 54.8789 223.728Z" fill="#82B378"/>
<path d="M134.466 291.722C134.466 291.722 144.614 307.131 138.829 325.89L136.218 325.188C136.218 325.188 138.752 304.527 133.443 294.136C128.134 283.744 134.466 291.722 134.466 291.722Z" fill="#82B378"/>
<path d="M152.085 158.742L116.923 340.519C116.208 344.218 119.041 347.651 122.806 347.651H141.351L152.085 158.742Z" fill="#5F338D"/>
<path d="M385.809 210.778C385.809 210.778 369.993 200.687 378.333 188.705C378.333 188.705 384.871 181.431 391.52 179.844C391.52 179.844 386.971 198.165 390.432 198.799C393.894 199.436 394.029 178.02 394.029 178.02C394.029 178.02 411.719 170.73 418.436 171.771C418.436 171.771 406.721 189.242 410.232 189.006C413.744 188.77 426.777 171.156 426.777 171.156C426.777 171.156 444.613 168.901 446.846 179.523C449.077 190.143 444.203 195.111 441.549 195.614C438.898 196.118 422.132 194.936 422.444 197.139C422.755 199.345 433.885 203.482 440.316 201.883C440.316 201.883 432.356 218.694 423.255 217.298C414.152 215.902 411.646 210.074 406.005 209.312C400.365 208.552 396.137 209.84 398.884 211.527C401.629 213.215 411.275 212.741 415.626 216.894C419.979 221.044 423.544 223.654 414.947 224.909C406.351 226.165 391.16 224.199 388.486 217.489C385.809 210.778 385.809 210.778 385.809 210.778Z" fill="#C7DCFB"/>
<path d="M438.597 182.328C438.597 182.328 391.991 194.518 385.809 210.778C385.809 210.778 385.603 218.197 380.54 226.433L380.352 229.701C380.352 229.701 385.783 218.864 388.486 217.489C388.486 217.489 379.07 202.52 438.597 182.328Z" fill="#C7DCFB"/>
<path d="M380.54 226.432C380.54 226.432 372.867 236.743 376.141 250.016L377.985 249.633C377.985 249.633 377.047 235.166 381.155 228.152C385.262 221.137 380.54 226.432 380.54 226.432Z" fill="#C7DCFB"/>
<path d="M343.226 166.984C343.226 166.984 318.925 161.647 323.835 142.92C323.835 142.92 328.65 130.875 336.204 125.863C336.204 125.863 338.909 150.752 343.51 149.96C348.109 149.171 338.496 122.448 338.496 122.448C338.496 122.448 357.187 105.288 366.026 103.517C366.026 103.517 359.423 130.621 363.686 128.723C367.95 126.827 376.131 98.9419 376.131 98.9419C376.131 98.9419 397.307 87.985 404.938 100.189C412.569 112.394 408.767 120.804 405.695 122.643C402.623 124.481 381.211 130.668 382.606 133.27C384 135.872 399.746 135.94 407.022 131.011C407.022 131.011 404.793 155.579 392.823 157.998C380.854 160.416 375.07 154.306 367.7 155.936C360.331 157.564 355.657 161.098 359.845 161.947C364.033 162.793 375.825 157.796 383.141 160.977C390.457 164.16 396.089 165.778 385.959 171.269C375.827 176.759 356.019 181.253 349.622 174.117C343.226 166.984 343.226 166.984 343.226 166.984Z" fill="#DFEBFD"/>
<path d="M395.951 107.452C395.951 107.452 343.492 143.919 343.227 166.985C343.227 166.985 346.358 176.317 343.816 188.885L345.075 193.039C345.075 193.039 346.887 177.065 349.622 174.118C349.622 174.118 331.064 159.784 395.951 107.452Z" fill="#DFEBFD"/>
<path d="M343.815 188.885C343.815 188.885 338.974 205.226 349.114 220.256L351.234 218.937C351.234 218.937 343.458 201.353 345.366 190.745C347.276 180.135 343.815 188.885 343.815 188.885Z" fill="#DFEBFD"/>
<path d="M152.508 158.006L129.202 336.484C128.429 342.401 133.036 347.651 139.005 347.651H173.194L153.918 157.361L152.508 158.006Z" fill="#78ACEA"/>
<path d="M152.507 158.006L142.073 335.345C141.681 342.02 146.988 347.651 153.675 347.651H204.665L152.507 158.006Z" fill="#699DEE"/>
<path d="M152.115 159.454L157.188 335.345C156.795 342.02 162.102 347.651 168.79 347.651H219.78L152.115 159.454Z" fill="#5288D8"/>
<path d="M396.247 347.651H195.195C190.175 347.651 185.872 344.063 184.97 339.125L154.378 171.822C152.987 164.227 158.822 157.228 166.544 157.228H365.228C370.247 157.228 374.551 160.816 375.453 165.754L406.472 335.385C407.64 341.769 402.737 347.651 396.247 347.651Z" fill="#D7E9FF"/>
<path d="M158.358 193.551H380.677L374.975 161.963C374.482 159.223 372.096 157.23 369.312 157.23H153.969C152.793 157.23 151.905 158.297 152.115 159.455L158.358 193.551Z" fill="#5F338D"/>
<path d="M163.556 147.724C158.239 147.724 153.916 152.045 153.916 157.36H155.768C155.768 153.067 159.261 149.574 163.556 149.574C167.85 149.574 171.344 153.067 171.344 157.36C171.344 158.223 171.205 159.052 170.943 159.825C170.18 162.116 168.379 163.933 166.102 164.72C165.436 164.952 164.732 165.097 163.998 165.136V166.989C164.855 166.951 165.678 166.8 166.461 166.552C169.589 165.563 172.03 163.016 172.875 159.825C173.083 159.038 173.194 158.213 173.194 157.36C173.194 152.045 168.871 147.724 163.556 147.724Z" fill="#78ACEA"/>
<path d="M166.536 165.994C166.536 166.186 166.508 166.375 166.461 166.551C166.217 167.434 165.409 168.08 164.45 168.08C163.297 168.08 162.361 167.146 162.361 165.994C162.361 164.842 163.297 163.906 164.45 163.906C165.122 163.906 165.719 164.227 166.102 164.719C166.375 165.072 166.536 165.514 166.536 165.994Z" fill="#78ACEA"/>
<path d="M198.111 147.724C192.796 147.724 188.473 152.045 188.473 157.36H190.323C190.323 153.067 193.817 149.574 198.111 149.574C202.406 149.574 205.899 153.067 205.899 157.36C205.899 158.223 205.758 159.052 205.498 159.825C204.733 162.116 202.934 163.933 200.657 164.72C199.993 164.952 199.287 165.097 198.553 165.136V166.989C199.408 166.951 200.233 166.8 201.016 166.552C204.144 165.563 206.587 163.016 207.432 159.825C207.64 159.038 207.751 158.213 207.751 157.36C207.751 152.045 203.426 147.724 198.111 147.724Z" fill="#78ACEA"/>
<path d="M201.091 165.994C201.091 166.186 201.065 166.375 201.017 166.551C200.773 167.434 199.966 168.08 199.004 168.08C197.852 168.08 196.918 167.146 196.918 165.994C196.918 164.842 197.852 163.906 199.004 163.906C199.679 163.906 200.277 164.227 200.658 164.719C200.93 165.072 201.091 165.514 201.091 165.994Z" fill="#78ACEA"/>
<path d="M232.669 147.724C227.355 147.724 223.031 152.045 223.031 157.36H224.88C224.88 153.067 228.372 149.574 232.669 149.574C236.963 149.574 240.457 153.067 240.457 157.36C240.457 158.223 240.316 159.052 240.055 159.825C239.291 162.116 237.49 163.933 235.216 164.72C234.549 164.952 233.843 165.097 233.11 165.136V166.989C233.964 166.951 234.789 166.8 235.573 166.552C238.702 165.561 241.141 163.016 241.986 159.825C242.194 159.038 242.306 158.213 242.306 157.36C242.306 152.045 237.982 147.724 232.669 147.724Z" fill="#78ACEA"/>
<path d="M235.649 165.994C235.649 166.186 235.621 166.375 235.574 166.551C235.33 167.434 234.523 168.08 233.563 168.08C232.411 168.08 231.475 167.146 231.475 165.994C231.475 164.842 232.411 163.906 233.563 163.906C234.235 163.906 234.832 164.227 235.217 164.719C235.489 165.072 235.649 165.514 235.649 165.994Z" fill="#78ACEA"/>
<path d="M267.224 147.724C261.909 147.724 257.588 152.045 257.588 157.36H259.438C259.438 153.067 262.931 149.574 267.224 149.574C271.52 149.574 275.014 153.067 275.014 157.36C275.014 158.223 274.873 159.052 274.613 159.825C273.848 162.116 272.049 163.933 269.772 164.72C269.106 164.952 268.402 165.097 267.668 165.136V166.989C268.521 166.951 269.348 166.8 270.131 166.552C273.261 165.561 275.7 163.016 276.545 159.825C276.753 159.038 276.864 158.213 276.864 157.36C276.864 152.045 272.541 147.724 267.224 147.724Z" fill="#78ACEA"/>
<path d="M270.208 165.994C270.208 166.186 270.18 166.375 270.132 166.551C269.888 167.434 269.079 168.08 268.119 168.08C266.967 168.08 266.033 167.146 266.033 165.994C266.033 164.842 266.967 163.906 268.119 163.906C268.792 163.906 269.391 164.227 269.773 164.719C270.047 165.072 270.208 165.514 270.208 165.994Z" fill="#78ACEA"/>
<path d="M301.783 147.724C296.468 147.724 292.145 152.045 292.145 157.36H293.993C293.993 153.067 297.489 149.574 301.783 149.574C306.076 149.574 309.571 153.067 309.571 157.36C309.571 158.223 309.43 159.052 309.17 159.825C308.404 162.116 306.604 163.933 304.327 164.72C303.665 164.952 302.957 165.097 302.225 165.136V166.989C303.08 166.951 303.905 166.8 304.686 166.552C307.815 165.563 310.259 163.016 311.101 159.825C311.31 159.038 311.421 158.213 311.421 157.36C311.421 152.045 307.097 147.724 301.783 147.724Z" fill="#78ACEA"/>
<path d="M304.762 165.994C304.762 166.186 304.735 166.375 304.687 166.551C304.443 167.434 303.638 168.08 302.676 168.08C301.524 168.08 300.588 167.146 300.588 165.994C300.588 164.842 301.524 163.906 302.676 163.906C303.35 163.906 303.947 164.227 304.328 164.719C304.602 165.072 304.762 165.514 304.762 165.994Z" fill="#78ACEA"/>
<path d="M336.341 147.724C331.024 147.724 326.701 152.045 326.701 157.36H328.551C328.551 153.067 332.044 149.574 336.341 149.574C340.635 149.574 344.127 153.067 344.127 157.36C344.127 158.223 343.986 159.052 343.727 159.825C342.961 162.116 341.162 163.933 338.886 164.72C338.221 164.952 337.515 165.097 336.782 165.136V166.989C337.638 166.951 338.461 166.8 339.245 166.552C342.37 165.563 344.813 163.016 345.658 159.825C345.866 159.038 345.977 158.213 345.977 157.36C345.977 152.045 341.654 147.724 336.341 147.724Z" fill="#78ACEA"/>
<path d="M339.319 165.994C339.319 166.186 339.291 166.375 339.244 166.551C339 167.434 338.191 168.08 337.231 168.08C336.079 168.08 335.145 167.146 335.145 165.994C335.145 164.842 336.079 163.906 337.231 163.906C337.903 163.906 338.502 164.227 338.885 164.719C339.158 165.072 339.319 165.514 339.319 165.994Z" fill="#78ACEA"/>
<path d="M370.896 147.724C365.581 147.724 361.26 152.045 361.26 157.36H363.108C363.108 153.067 366.602 149.574 370.896 149.574C375.189 149.574 378.686 153.067 378.686 157.36C378.686 158.223 378.545 159.052 378.285 159.825C377.52 162.116 375.721 163.933 373.442 164.72C372.778 164.952 372.074 165.097 371.34 165.136V166.989C372.195 166.951 373.02 166.8 373.803 166.552C376.929 165.563 379.372 163.016 380.215 159.825C380.423 159.038 380.534 158.213 380.534 157.36C380.534 152.045 376.211 147.724 370.896 147.724Z" fill="#78ACEA"/>
<path d="M373.876 165.994C373.876 166.186 373.85 166.375 373.802 166.551C373.556 167.434 372.749 168.08 371.789 168.08C370.637 168.08 369.703 167.146 369.703 165.994C369.703 164.842 370.637 163.906 371.789 163.906C372.462 163.906 373.059 164.227 373.441 164.719C373.715 165.072 373.876 165.514 373.876 165.994Z" fill="#78ACEA"/>
<path d="M286.922 252.891H275.683C274.384 252.891 273.117 251.83 272.865 250.529L270.698 239.29C270.448 237.991 271.304 236.928 272.605 236.928H283.844C285.143 236.928 286.41 237.991 286.66 239.29L288.83 250.529C289.079 251.83 288.221 252.891 286.922 252.891Z" fill="#AFCDFB"/>
<path d="M315.281 252.891H304.043C302.744 252.891 301.476 251.83 301.226 250.529L299.057 239.29C298.807 237.991 299.666 236.928 300.965 236.928H312.203C313.502 236.928 314.769 237.991 315.021 239.29L317.189 250.529C317.439 251.83 316.582 252.891 315.281 252.891Z" fill="#AFCDFB"/>
<path d="M343.641 252.891H332.403C331.102 252.891 329.834 251.83 329.585 250.529L327.417 239.29C327.165 237.991 328.024 236.928 329.323 236.928H340.561C341.86 236.928 343.127 237.991 343.379 239.29L345.547 250.529C345.797 251.83 344.94 252.891 343.641 252.891Z" fill="#78ACEA"/>
<path d="M201.844 252.891H190.606C189.307 252.891 188.038 251.83 187.788 250.529L185.62 239.29C185.368 237.991 186.227 236.928 187.526 236.928H198.764C200.063 236.928 201.333 237.991 201.582 239.29L203.75 250.529C204.002 251.83 203.143 252.891 201.844 252.891Z" fill="#AFCDFB"/>
<path d="M189.526 219.151H184.695C184.138 219.151 183.593 218.695 183.486 218.135L182.554 213.306C182.447 212.747 182.815 212.291 183.373 212.291H188.202C188.761 212.291 189.306 212.747 189.413 213.306L190.345 218.135C190.453 218.695 190.084 219.151 189.526 219.151Z" fill="#5F338D"/>
<path d="M230.203 252.891H218.965C217.666 252.891 216.396 251.83 216.146 250.529L213.979 239.29C213.729 237.991 214.586 236.928 215.885 236.928H227.123C228.422 236.928 229.691 237.991 229.941 239.29L232.109 250.529C232.361 251.83 231.502 252.891 230.203 252.891Z" fill="#AFCDFB"/>
<path d="M258.562 252.891H247.324C246.025 252.891 244.758 251.83 244.506 250.529L242.338 239.29C242.088 237.991 242.945 236.928 244.244 236.928H255.483C256.784 236.928 258.051 237.991 258.301 239.29L260.468 250.529C260.72 251.83 259.861 252.891 258.562 252.891Z" fill="#AFCDFB"/>
<path d="M372 252.891H360.762C359.463 252.891 358.194 251.83 357.944 250.529L355.776 239.29C355.524 237.991 356.383 236.928 357.682 236.928H368.921C370.22 236.928 371.489 237.991 371.739 239.29L373.906 250.529C374.158 251.83 373.299 252.891 372 252.891Z" fill="#78ACEA"/>
<path d="M282.213 228.482H270.974C269.675 228.482 268.406 227.419 268.156 226.12L265.989 214.881C265.739 213.582 266.595 212.519 267.894 212.519H279.133C280.432 212.519 281.701 213.582 281.951 214.881L284.119 226.12C284.37 227.419 283.512 228.482 282.213 228.482Z" fill="#AFCDFB"/>
<path d="M310.572 228.482H299.334C298.035 228.482 296.767 227.419 296.516 226.12L294.348 214.881C294.098 213.582 294.955 212.519 296.254 212.519H307.492C308.793 212.519 310.061 213.582 310.31 214.881L312.48 226.12C312.73 227.419 311.871 228.482 310.572 228.482Z" fill="#AFCDFB"/>
<path d="M338.932 228.482H327.693C326.394 228.482 325.127 227.419 324.877 226.12L322.707 214.881C322.457 213.582 323.316 212.519 324.615 212.519H335.854C337.153 212.519 338.42 213.582 338.672 214.881L340.839 226.12C341.089 227.419 340.23 228.482 338.932 228.482Z" fill="#78ACEA"/>
<path d="M367.293 228.482H356.054C354.753 228.482 353.486 227.419 353.236 226.12L351.067 214.881C350.817 213.582 351.676 212.519 352.975 212.519H364.213C365.512 212.519 366.779 213.582 367.031 214.881L369.199 226.12C369.449 227.419 368.592 228.482 367.293 228.482Z" fill="#78ACEA"/>
<path d="M291.913 278.762H280.674C279.375 278.762 278.106 277.699 277.856 276.4L275.688 265.162C275.437 263.863 276.295 262.8 277.594 262.8H288.833C290.132 262.8 291.401 263.863 291.651 265.162L293.818 276.4C294.068 277.699 293.212 278.762 291.913 278.762Z" fill="#AFCDFB"/>
<path d="M320.272 278.762H309.033C307.734 278.762 306.465 277.699 306.215 276.4L304.048 265.162C303.796 263.863 304.655 262.8 305.954 262.8H317.192C318.491 262.8 319.76 263.863 320.01 265.162L322.178 276.4C322.43 277.699 321.571 278.762 320.272 278.762Z" fill="#AFCDFB"/>
<path d="M348.631 278.762H337.392C336.093 278.762 334.826 277.699 334.574 276.4L332.407 265.162C332.157 263.863 333.013 262.8 334.312 262.8H345.551C346.85 262.8 348.119 263.863 348.369 265.162L350.537 276.4C350.788 277.699 349.93 278.762 348.631 278.762Z" fill="#78ACEA"/>
<path d="M206.834 278.762H195.595C194.296 278.762 193.029 277.699 192.777 276.4L190.61 265.162C190.36 263.863 191.217 262.8 192.518 262.8H203.756C205.055 262.8 206.322 263.863 206.572 265.162L208.742 276.4C208.992 277.699 208.133 278.762 206.834 278.762Z" fill="#AFCDFB"/>
<path d="M235.193 278.762H223.955C222.656 278.762 221.388 277.699 221.137 276.4L218.969 265.162C218.719 263.863 219.578 262.8 220.877 262.8H232.115C233.414 262.8 234.682 263.863 234.933 265.162L237.101 276.4C237.351 277.699 236.494 278.762 235.193 278.762Z" fill="#AFCDFB"/>
<path d="M263.555 278.762H252.316C251.015 278.762 249.748 277.699 249.498 276.4L247.328 265.162C247.079 263.863 247.937 262.8 249.236 262.8H260.475C261.774 262.8 263.041 263.863 263.293 265.162L265.46 276.4C265.71 277.699 264.854 278.762 263.555 278.762Z" fill="#AFCDFB"/>
<path d="M376.99 278.762H365.752C364.453 278.762 363.185 277.699 362.934 276.4L360.766 265.162C360.516 263.863 361.373 262.8 362.672 262.8H373.912C375.211 262.8 376.478 263.863 376.728 265.162L378.898 276.4C379.148 277.699 378.289 278.762 376.99 278.762Z" fill="#78ACEA"/>
<path d="M296.902 304.633H285.664C284.365 304.633 283.098 303.57 282.846 302.271L280.678 291.033C280.428 289.734 281.285 288.671 282.584 288.671H293.824C295.123 288.671 296.391 289.734 296.64 291.033L298.81 302.271C299.06 303.57 298.201 304.633 296.902 304.633Z" fill="#AFCDFB"/>
<path d="M325.262 304.633H314.023C312.724 304.633 311.457 303.57 311.205 302.271L309.037 291.033C308.788 289.734 309.644 288.671 310.945 288.671H322.184C323.483 288.671 324.75 289.734 325 291.033L327.169 302.271C327.419 303.57 326.561 304.633 325.262 304.633Z" fill="#AFCDFB"/>
<path d="M353.621 304.633H342.382C341.083 304.633 339.816 303.57 339.566 302.271L337.397 291.033C337.147 289.734 338.006 288.671 339.305 288.671H350.543C351.842 288.671 353.109 289.734 353.361 291.033L355.529 302.271C355.779 303.57 354.922 304.633 353.621 304.633Z" fill="#78ACEA"/>
<path d="M211.825 304.633H200.586C199.285 304.633 198.018 303.57 197.768 302.271L195.601 291.033C195.349 289.734 196.207 288.671 197.506 288.671H208.745C210.044 288.671 211.311 289.734 211.563 291.033L213.73 302.271C213.98 303.57 213.124 304.633 211.825 304.633Z" fill="#AFCDFB"/>
<path d="M240.184 304.633H228.946C227.647 304.633 226.377 303.57 226.127 302.271L223.96 291.033C223.708 289.734 224.567 288.671 225.866 288.671H237.104C238.403 288.671 239.672 289.734 239.922 291.033L242.09 302.271C242.342 303.57 241.483 304.633 240.184 304.633Z" fill="#5F338D"/>
<path d="M268.543 304.633H257.304C256.005 304.633 254.736 303.57 254.486 302.271L252.319 291.033C252.069 289.734 252.926 288.671 254.225 288.671H265.463C266.762 288.671 268.031 289.734 268.281 291.033L270.449 302.271C270.701 303.57 269.842 304.633 268.543 304.633Z" fill="#AFCDFB"/>
<path d="M381.981 304.633H370.742C369.443 304.633 368.174 303.57 367.924 302.271L365.757 291.033C365.505 289.734 366.364 288.671 367.663 288.671H378.901C380.2 288.671 381.469 289.734 381.719 291.033L383.887 302.271C384.137 303.57 383.28 304.633 381.981 304.633Z" fill="#78ACEA"/>
<path d="M301.611 329.043H290.373C289.074 329.043 287.806 327.98 287.555 326.681L285.387 315.443C285.137 314.142 285.996 313.079 287.295 313.079H298.533C299.832 313.079 301.1 314.142 301.351 315.443L303.519 326.681C303.769 327.98 302.912 329.043 301.611 329.043Z" fill="#AFCDFB"/>
<path d="M329.971 329.043H318.732C317.431 329.043 316.164 327.98 315.914 326.681L313.744 315.443C313.495 314.142 314.353 313.079 315.652 313.079H326.891C328.19 313.079 329.457 314.142 329.709 315.443L331.876 326.681C332.126 327.98 331.27 329.043 329.971 329.043Z" fill="#AFCDFB"/>
<path d="M358.331 329.043H347.092C345.793 329.043 344.524 327.98 344.274 326.681L342.106 315.443C341.855 314.142 342.713 313.079 344.012 313.079H355.251C356.55 313.079 357.819 314.142 358.069 315.443L360.236 326.681C360.486 327.98 359.629 329.043 358.331 329.043Z" fill="#78ACEA"/>
<path d="M216.534 329.043H205.295C203.996 329.043 202.727 327.98 202.477 326.681L200.309 315.443C200.058 314.142 200.916 313.079 202.215 313.079H213.454C214.753 313.079 216.022 314.142 216.272 315.443L218.439 326.681C218.691 327.98 217.833 329.043 216.534 329.043Z" fill="#AFCDFB"/>
<path d="M244.892 329.043H233.654C232.355 329.043 231.086 327.98 230.836 326.681L228.668 315.443C228.418 314.142 229.275 313.079 230.574 313.079H241.813C243.114 313.079 244.381 314.142 244.631 315.443L246.798 326.681C247.05 327.98 246.191 329.043 244.892 329.043Z" fill="#AFCDFB"/>
<path d="M273.252 329.043H262.013C260.714 329.043 259.447 327.98 259.195 326.681L257.028 315.443C256.778 314.142 257.635 313.079 258.935 313.079H270.174C271.473 313.079 272.74 314.142 272.99 315.443L275.16 326.681C275.41 327.98 274.551 329.043 273.252 329.043Z" fill="#AFCDFB"/>
<path d="M223.59 214.715H193.817C193.377 214.715 193.018 214.356 193.018 213.918C193.018 213.48 193.377 213.121 193.817 213.121H223.59C224.028 213.121 224.387 213.48 224.387 213.918C224.387 214.356 224.028 214.715 223.59 214.715Z" fill="#AFCDFB"/>
<path d="M224.496 218.323H194.721C194.283 218.323 193.924 217.964 193.924 217.523C193.924 217.085 194.283 216.726 194.721 216.726H224.496C224.934 216.726 225.293 217.085 225.293 217.523C225.293 217.964 224.934 218.323 224.496 218.323Z" fill="#AFCDFB"/>
<path d="M191.656 187.865H181.439C180.602 187.865 179.918 187.178 179.918 186.341C179.918 185.507 180.602 184.82 181.439 184.82H191.656C192.493 184.82 193.177 185.507 193.177 186.341C193.177 187.178 192.493 187.865 191.656 187.865Z" fill="white"/>
<path d="M219.693 187.865H209.476C208.639 187.865 207.953 187.178 207.953 186.341C207.953 185.507 208.639 184.82 209.476 184.82H219.693C220.53 184.82 221.214 185.507 221.214 186.341C221.214 187.178 220.53 187.865 219.693 187.865Z" fill="white"/>
<path d="M247.729 187.865H237.511C236.674 187.865 235.988 187.178 235.988 186.341C235.988 185.507 236.674 184.82 237.511 184.82H247.729C248.565 184.82 249.25 185.507 249.25 186.341C249.25 187.178 248.565 187.865 247.729 187.865Z" fill="white"/>
<path d="M275.762 187.865H265.545C264.708 187.865 264.023 187.178 264.023 186.341C264.023 185.507 264.708 184.82 265.545 184.82H275.762C276.599 184.82 277.285 185.507 277.285 186.341C277.285 187.178 276.599 187.865 275.762 187.865Z" fill="white"/>
<path d="M303.799 187.865H293.582C292.745 187.865 292.061 187.178 292.061 186.341C292.061 185.507 292.745 184.82 293.582 184.82H303.799C304.636 184.82 305.32 185.507 305.32 186.341C305.32 187.178 304.636 187.865 303.799 187.865Z" fill="white"/>
<path d="M331.834 187.865H321.617C320.78 187.865 320.094 187.178 320.094 186.341C320.094 185.507 320.78 184.82 321.617 184.82H331.834C332.671 184.82 333.355 185.507 333.355 186.341C333.355 187.178 332.671 187.865 331.834 187.865Z" fill="white"/>
<path d="M359.869 187.865H349.652C348.815 187.865 348.129 187.178 348.129 186.341C348.129 185.507 348.815 184.82 349.652 184.82H359.869C360.706 184.82 361.39 185.507 361.39 186.341C361.39 187.178 360.706 187.865 359.869 187.865Z" fill="white"/>
<path d="M295.248 228.703C292.993 228.703 291.349 227.987 290.455 226.597C288.737 223.932 290.062 220.196 294.393 215.494C297.556 212.059 301.251 209.338 301.286 209.31C301.431 209.203 301.636 209.235 301.743 209.38C301.85 209.524 301.818 209.729 301.673 209.836C301.528 209.943 287.291 220.483 291.002 226.244C292.178 228.069 294.695 228.19 296.6 227.97C300.128 227.561 304.727 225.661 308.904 222.887C313.227 220.015 316.273 216.781 317.259 214.008C317.907 212.192 317.707 210.905 316.664 210.183C315.317 209.251 312.503 209.249 309.138 210.181C305.913 211.071 302.669 212.676 300.67 214.367C300.533 214.484 300.327 214.466 300.21 214.329C300.093 214.193 300.11 213.986 300.247 213.869C302.314 212.12 305.653 210.466 308.963 209.552C312.567 208.555 315.508 208.59 317.035 209.645C317.939 210.272 318.818 211.575 317.874 214.228C316.84 217.13 313.703 220.483 309.265 223.43C305.007 226.258 300.301 228.198 296.676 228.616C296.176 228.674 295.7 228.703 295.248 228.703Z" fill="#C65447"/>
<path d="M358.035 199.923L358.959 204.92L333.828 209.573L332.902 204.577L358.035 199.923Z" fill="#CE3644"/>
<path d="M327.521 208.157L333.828 209.573L332.902 204.577L327.521 208.157Z" fill="#FFB27D"/>
<path d="M361.264 201.039L361.555 202.62C361.736 203.591 361.093 204.524 360.121 204.704L358.959 204.92L358.035 199.923L359.298 199.689C360.215 199.52 361.093 200.125 361.264 201.039Z" fill="#FFB27D"/>
<path d="M330.752 206.006L331.081 208.955L327.521 208.156L330.752 206.006Z" fill="#CE3644"/>
<path d="M465.96 347.651H447.953C446.989 346.832 448.622 344.973 450.327 344.848C451.069 344.791 452.005 344.948 453.076 345.174C453.324 341.882 454.738 327.087 460.072 327.68C466.067 328.347 460.072 334.197 458.377 337.66C457.121 340.226 455.797 343.904 455.19 345.64C455.678 345.747 456.181 345.85 456.697 345.943C457.49 343.504 460.449 335.296 464.209 335.774C468.624 336.333 466.851 339.625 463.719 341.578C461.425 343.014 458.605 345.057 457.264 346.042C458.4 346.229 459.584 346.354 460.786 346.326C463.87 346.253 465.377 347.161 465.96 347.651Z" fill="#C8EBDB"/>
<path d="M54.9125 346.794C53.9583 345.295 51.0864 341.404 47.2611 341.919C43.0936 342.481 51.8642 345.229 54.5494 346.806C53.9531 346.814 53.4405 346.766 53.0639 346.631C51.2687 345.993 48.1942 347.22 47.2114 347.651H64.3014C64.1832 347.242 63.8754 346.574 63.0796 346.088C62.7989 345.915 62.2347 345.892 61.5065 345.947C62.5227 344.749 63.2285 340.922 60.3995 341.907C58.3329 342.627 58.3386 344.965 58.5415 346.348C58.1018 346.417 57.656 346.487 57.2154 346.55C56.3646 342.213 53.355 329.505 47.2552 329.166C41.0713 328.823 52.4991 342.346 56.3041 346.671C55.8167 346.73 55.3473 346.774 54.9125 346.794Z" fill="#C8EBDB"/>
</svg>
