<svg width="160" height="128" viewBox="0 0 160 128" fill="none" xmlns="http://www.w3.org/2000/svg">
<path d="M159.995 28.209H0V128H159.995V28.209Z" fill="white"/>
<path d="M0 10.7609V28.2248H159.995V10.7609C159.996 9.93586 159.834 9.11877 159.52 8.35634C159.205 7.59391 158.744 6.90109 158.162 6.31748C157.58 5.73386 156.89 5.27089 156.13 4.95502C155.369 4.63915 154.554 4.47656 153.732 4.47656H6.26785C4.60551 4.47656 3.01126 5.13866 1.83581 6.31721C0.660364 7.49576 0 9.09421 0 10.7609Z" fill="#D7E9FF"/>
<path d="M24.1845 20.9863C26.2324 20.9863 27.8925 19.3218 27.8925 17.2685C27.8925 15.2153 26.2324 13.5508 24.1845 13.5508C22.1367 13.5508 20.4766 15.2153 20.4766 17.2685C20.4766 19.3218 22.1367 20.9863 24.1845 20.9863Z" fill="#78ACEA"/>
<path d="M24.1831 18.6681C23.6196 18.6681 23.0793 18.4437 22.6808 18.0442C22.2824 17.6447 22.0586 17.1029 22.0586 16.538V2.13009C22.0586 1.56516 22.2824 1.02336 22.6808 0.623889C23.0793 0.224419 23.6196 0 24.1831 0C24.7465 0 25.2869 0.224419 25.6853 0.623889C26.0838 1.02336 26.3076 1.56516 26.3076 2.13009V16.538C26.3076 17.1029 26.0838 17.6447 25.6853 18.0442C25.2869 18.4437 24.7465 18.6681 24.1831 18.6681Z" fill="white"/>
<path d="M46.788 20.9863C48.8359 20.9863 50.496 19.3218 50.496 17.2685C50.496 15.2153 48.8359 13.5508 46.788 13.5508C44.7402 13.5508 43.0801 15.2153 43.0801 17.2685C43.0801 19.3218 44.7402 20.9863 46.788 20.9863Z" fill="#78ACEA"/>
<path d="M46.7944 18.6681C46.2313 18.6669 45.6916 18.4421 45.2935 18.0429C44.8953 17.6437 44.6711 17.1026 44.6699 16.538V2.13009C44.6711 1.56552 44.8953 1.0244 45.2935 0.625178C45.6916 0.22596 46.2313 0.00116528 46.7944 0C47.3583 -1.20667e-06 47.8991 0.224276 48.2982 0.62362C48.6973 1.02296 48.9221 1.56475 48.9233 2.13009V16.538C48.9221 17.1033 48.6973 17.6451 48.2982 18.0445C47.8991 18.4438 47.3583 18.6681 46.7944 18.6681Z" fill="white"/>
<path d="M69.4013 20.9863C71.4492 20.9863 73.1093 19.3218 73.1093 17.2685C73.1093 15.2153 71.4492 13.5508 69.4013 13.5508C67.3535 13.5508 65.6934 15.2153 65.6934 17.2685C65.6934 19.3218 67.3535 20.9863 69.4013 20.9863Z" fill="#78ACEA"/>
<path d="M69.4077 18.6681C68.8443 18.6681 68.3039 18.4437 67.9055 18.0442C67.507 17.6447 67.2832 17.1029 67.2832 16.538V2.13009C67.2832 1.56516 67.507 1.02336 67.9055 0.623889C68.3039 0.224419 68.8443 0 69.4077 0C69.9712 0 70.5115 0.224419 70.9099 0.623889C71.3084 1.02336 71.5322 1.56516 71.5322 2.13009V16.538C71.5322 17.1029 71.3084 17.6447 70.9099 18.0442C70.5115 18.4437 69.9712 18.6681 69.4077 18.6681Z" fill="white"/>
<path d="M92.0166 20.9863C94.0644 20.9863 95.7245 19.3218 95.7245 17.2685C95.7245 15.2153 94.0644 13.5508 92.0166 13.5508C89.9687 13.5508 88.3086 15.2153 88.3086 17.2685C88.3086 19.3218 89.9687 20.9863 92.0166 20.9863Z" fill="#78ACEA"/>
<path d="M92.019 18.6681C91.4556 18.6681 90.9152 18.4437 90.5168 18.0442C90.1184 17.6447 89.8945 17.1029 89.8945 16.538V2.13009C89.8945 1.56516 90.1184 1.02336 90.5168 0.623889C90.9152 0.224419 91.4556 0 92.019 0C92.5825 0 93.1229 0.224419 93.5213 0.623889C93.9197 1.02336 94.1435 1.56516 94.1435 2.13009V16.538C94.1435 17.1029 93.9197 17.6447 93.5213 18.0442C93.1229 18.4437 92.5825 18.6681 92.019 18.6681Z" fill="white"/>
<path d="M114.63 20.9863C116.678 20.9863 118.338 19.3218 118.338 17.2685C118.338 15.2153 116.678 13.5508 114.63 13.5508C112.582 13.5508 110.922 15.2153 110.922 17.2685C110.922 19.3218 112.582 20.9863 114.63 20.9863Z" fill="#78ACEA"/>
<path d="M114.623 18.6681C114.059 18.6669 113.52 18.4421 113.122 18.0429C112.723 17.6437 112.499 17.1026 112.498 16.538V2.13009C112.499 1.56552 112.723 1.0244 113.122 0.625178C113.52 0.22596 114.059 0.00116528 114.623 0C115.186 -1.20667e-06 115.727 0.224276 116.126 0.62362C116.525 1.02296 116.75 1.56475 116.751 2.13009V16.538C116.75 17.1033 116.525 17.6451 116.126 18.0445C115.727 18.4438 115.186 18.6681 114.623 18.6681Z" fill="white"/>
<path d="M137.237 20.9863C139.285 20.9863 140.945 19.3218 140.945 17.2685C140.945 15.2153 139.285 13.5508 137.237 13.5508C135.189 13.5508 133.529 15.2153 133.529 17.2685C133.529 19.3218 135.189 20.9863 137.237 20.9863Z" fill="#78ACEA"/>
<path d="M137.236 18.6681C136.672 18.6681 136.132 18.4437 135.734 18.0442C135.335 17.6447 135.111 17.1029 135.111 16.538V2.13009C135.111 1.56516 135.335 1.02336 135.734 0.623889C136.132 0.224419 136.672 0 137.236 0C137.799 0 138.34 0.224419 138.738 0.623889C139.137 1.02336 139.36 1.56516 139.36 2.13009V16.538C139.36 17.1029 139.137 17.6447 138.738 18.0442C138.34 18.4437 137.799 18.6681 137.236 18.6681Z" fill="white"/>
<path d="M65.773 41.0801H44.7832V62.1252H65.773V41.0801Z" fill="#CDE2FE"/>
<path d="M93.691 41.0801H72.7012V62.1252H93.691V41.0801Z" fill="#78ACEA"/>
<path d="M121.621 41.0801H100.631V62.1252H121.621V41.0801Z" fill="#CDE2FE"/>
<path d="M149.546 41.0801H128.557V62.1252H149.546V41.0801Z" fill="#CDE2FE"/>
<path d="M37.8453 41.0801H16.8555V62.1252H37.8453V41.0801Z" fill="#CDE2FE"/>
<path d="M65.773 67.793H44.7832V88.8381H65.773V67.793Z" fill="#CDE2FE"/>
<path d="M93.691 67.793H72.7012V88.8381H93.691V67.793Z" fill="#CDE2FE"/>
<path d="M121.621 67.793H100.631V88.8381H121.621V67.793Z" fill="#78ACEA"/>
<path d="M149.546 67.793H128.557V88.8381H149.546V67.793Z" fill="#CDE2FE"/>
<path d="M37.8453 67.793H16.8555V88.8381H37.8453V67.793Z" fill="#CDE2FE"/>
<path d="M65.773 94.5078H44.7832V115.553H65.773V94.5078Z" fill="#78ACEA"/>
<path d="M93.691 94.5078H72.7012V115.553H93.691V94.5078Z" fill="#CDE2FE"/>
<path d="M121.621 94.5078H100.631V115.553H121.621V94.5078Z" fill="#CDE2FE"/>
<path d="M149.546 94.5078H128.557V115.553H149.546V94.5078Z" fill="#CDE2FE"/>
<path d="M37.8453 94.5078H16.8555V115.553H37.8453V94.5078Z" fill="#CDE2FE"/>
<path d="M41.0618 47.1661L32.043 31.0918L16.011 40.1344L25.0298 56.2087L41.0618 47.1661Z" fill="#78ACEA"/>
</svg>
