<svg width="20" height="20" viewBox="0 0 20 20" fill="none" xmlns="http://www.w3.org/2000/svg">
<path fill-rule="evenodd" clip-rule="evenodd" d="M0.883887 0.375847C1.37204 -0.125282 2.1635 -0.125282 2.65165 0.375847L19.6339 17.8094C20.122 18.3105 20.122 19.123 19.6339 19.6242C19.1457 20.1253 18.3543 20.1253 17.8661 19.6242L0.883887 2.19059C0.395732 1.68947 0.395732 0.876975 0.883887 0.375847Z" fill="#232020"/>
<path fill-rule="evenodd" clip-rule="evenodd" d="M0.366116 19.6242C-0.122039 19.123 -0.122039 18.3105 0.366116 17.8094L17.3483 0.375847C17.8365 -0.125281 18.628 -0.125282 19.1161 0.375847C19.6043 0.876976 19.6043 1.68947 19.1161 2.19059L2.13388 19.6242C1.64573 20.1253 0.854272 20.1253 0.366116 19.6242Z" fill="#232020"/>
</svg>
