<svg width="113" height="94" viewBox="0 0 113 94" fill="none" xmlns="http://www.w3.org/2000/svg">
<g clip-path="url(#clip0_719_1495)">
<path d="M63.5 94C98.5701 94 127 68.0325 127 36C127 3.96748 98.5701 -22 63.5 -22C28.4299 -22 0 3.96748 0 36C0 68.0325 28.4299 94 63.5 94Z" fill="#FAEFE9"/>
<g opacity="0.4">
<path d="M88 49.3318L88.3378 49C94.137 51.8063 98.3674 58.0484 100.912 67.553C102.074 71.9924 102.772 76.4837 103 80.9921L102.412 81C102.405 80.7495 101.547 55.8872 88 49.3318Z" fill="#F299A4"/>
<path d="M89 78.1901L89.2997 78C94.6626 79.6757 94.9888 85.7382 95 85.9955L94.4781 86C94.4755 85.9382 94.1465 79.7982 89 78.1901Z" fill="#F299A4"/>
<path d="M84.7519 49.4941C86.5432 49.4941 87.9952 48.0404 87.9952 46.2471C87.9952 44.4538 86.5432 43 84.7519 43C82.9607 43 81.5087 44.4538 81.5087 46.2471C81.5087 48.0404 82.9607 49.4941 84.7519 49.4941Z" fill="#F299A4"/>
<path d="M86.373 77.745C88.1642 77.745 89.6163 76.2912 89.6163 74.4979C89.6163 72.7046 88.1642 71.2509 86.373 71.2509C84.5818 71.2509 83.1297 72.7046 83.1297 74.4979C83.1297 76.2912 84.5818 77.745 86.373 77.745Z" fill="#F299A4"/>
<path d="M100.937 45.0345C101.968 47.3499 102.308 49.9142 101.916 52.4185C101.524 54.9229 100.418 57.2605 98.7297 59.1496C97.699 56.8343 97.359 54.27 97.7506 51.7656C98.1422 49.2613 99.2488 46.9237 100.937 45.0345Z" fill="#F299A4"/>
<path d="M81.084 56.9172C83.5408 56.3045 86.1222 56.4161 88.5172 57.2385C90.9121 58.061 93.0184 59.5592 94.5824 61.5527C92.1255 62.1654 89.5441 62.0538 87.1492 61.2313C84.7542 60.4089 82.6479 58.9107 81.084 56.9172Z" fill="#F299A4"/>
<path d="M82.7774 82.9393C84.4995 82.5099 86.3088 82.5881 87.9875 83.1646C89.6661 83.741 91.1425 84.7911 92.2387 86.1884C90.5166 86.6179 88.7073 86.5396 87.0286 85.9632C85.35 85.3867 83.8736 84.3366 82.7774 82.9393Z" fill="#F299A4"/>
</g>
<g opacity="0.4">
<path d="M31.3939 57.7651L30.9944 57.1949C23.8448 62.2204 23.4099 80.4025 23.395 81.174L24.0908 81.1876C24.0942 81.0022 24.5328 62.5878 31.3939 57.7651Z" fill="#F299A4"/>
<path d="M34.6738 56.9664C32.7523 56.9664 31.1947 55.4069 31.1947 53.4832C31.1947 51.5595 32.7523 50 34.6738 50C36.5953 50 38.153 51.5595 38.153 53.4832C38.153 55.4069 36.5953 56.9664 34.6738 56.9664Z" fill="#F299A4"/>
<path d="M38.5312 62.5385C36.684 62.0778 34.743 62.1618 32.9423 62.7801C31.1415 63.3985 29.5578 64.525 28.3819 66.0239C30.2292 66.4846 32.1701 66.4007 33.9708 65.7823C35.7716 65.1639 37.3553 64.0374 38.5312 62.5385Z" fill="#F299A4"/>
<path d="M18.614 55.2692C20.3722 55.9994 21.8811 57.2229 22.9589 58.7921C24.0367 60.3613 24.6374 62.2094 24.6886 64.1136C22.9304 63.3833 21.4216 62.1599 20.3438 60.5907C19.266 59.0215 18.6653 57.1734 18.614 55.2692Z" fill="#F299A4"/>
</g>
<path d="M57.4362 74.0064C60.5001 74.0064 62.984 71.6961 62.984 68.8462C62.984 65.9962 60.5001 63.6859 57.4362 63.6859C54.3722 63.6859 51.8883 65.9962 51.8883 68.8462C51.8883 71.6961 54.3722 74.0064 57.4362 74.0064Z" fill="url(#paint0_linear_719_1495)"/>
<path d="M56.841 15.0004C48.1704 15.0574 41.0711 21.6111 40.9479 29.6753C40.9468 29.7497 40.9462 30.2733 40.9463 30.958C40.9464 31.9619 41.3751 32.9247 42.1383 33.6347C42.9015 34.3446 43.9366 34.7435 45.016 34.7436C45.551 34.7435 46.0808 34.6453 46.5751 34.4547C47.0693 34.2641 47.5183 33.9847 47.8965 33.6326C48.2746 33.2805 48.5745 32.8626 48.7789 32.4026C48.9833 31.9427 49.0882 31.4498 49.0878 30.9522C49.0874 30.4864 49.0871 30.164 49.0871 30.1442C49.0868 28.8979 49.4354 27.673 50.0984 26.59C50.7615 25.507 51.7162 24.6031 52.8687 23.9674C54.0212 23.3317 55.3318 22.986 56.6715 22.9643C58.0112 22.9426 59.3339 23.2457 60.5095 23.8437C61.6851 24.4417 62.6731 25.314 63.3763 26.3749C64.0795 27.4358 64.4737 28.6487 64.5201 29.8942C64.5664 31.1398 64.2634 32.3751 63.6408 33.4787C63.0184 34.582 62.098 35.5157 60.9701 36.1878C60.9696 36.1881 60.9695 36.1888 60.9699 36.1892C60.9703 36.1896 60.971 36.1897 60.9705 36.19C60.9508 36.2018 55.1757 39.6663 53.4124 44.416C53.4123 44.4164 53.4125 44.4168 53.4129 44.4169C53.4133 44.417 53.4135 44.4174 53.4134 44.4178C53.103 45.3923 52.9458 46.4035 52.9465 47.4199C52.9465 47.8378 52.9729 51.4944 53.024 54.4622C53.0418 55.4862 53.4918 56.4627 54.2768 57.1809C55.0617 57.8991 56.1188 58.3015 57.2199 58.3013C57.7731 58.3012 58.3209 58.1995 58.8317 58.0018C59.3426 57.8041 59.8063 57.5144 60.1963 57.1494C60.5863 56.7844 60.8949 56.3512 61.1042 55.8749C61.3136 55.3986 61.4196 54.8884 61.4162 54.3738C61.3985 51.6558 61.3889 48.4909 61.3889 48.2612C61.3889 45.3395 64.4191 42.4285 66.9082 40.5301C69.7745 38.3441 71.8371 35.365 72.6656 32.0046C72.8489 31.3127 72.95 30.6042 72.967 29.8918C72.967 27.9271 72.549 25.9819 71.7372 24.1681C70.9253 22.3544 69.7356 20.708 68.2367 19.3237C66.7377 17.9395 64.9591 16.8449 63.0033 16.1029C61.0475 15.3609 58.9531 14.9862 56.841 15.0004Z" fill="url(#paint1_linear_719_1495)"/>
</g>
<defs>
<linearGradient id="paint0_linear_719_1495" x1="51.8883" y1="63.6859" x2="64.0213" y2="65.0988" gradientUnits="userSpaceOnUse">
<stop stop-color="#A93890"/>
<stop offset="0.494792" stop-color="#E6436F"/>
<stop offset="1" stop-color="#F27D52"/>
</linearGradient>
<linearGradient id="paint1_linear_719_1495" x1="40.9463" y1="15" x2="76.2091" y2="17.8245" gradientUnits="userSpaceOnUse">
<stop stop-color="#A93890"/>
<stop offset="0.494792" stop-color="#E6436F"/>
<stop offset="1" stop-color="#F27D52"/>
</linearGradient>
<clipPath id="clip0_719_1495">
<rect width="113" height="94" rx="13" fill="white"/>
</clipPath>
</defs>
</svg>
