<svg width="24" height="25" viewBox="0 0 24 25" fill="none" xmlns="http://www.w3.org/2000/svg">
<path d="M17.9999 10.25H16.4999C16.4993 9.65345 16.262 9.0815 15.8402 8.65967C15.4184 8.23784 14.8464 8.0006 14.2499 8V6.5C15.2441 6.50119 16.1972 6.89666 16.9002 7.59966C17.6032 8.30267 17.9987 9.2558 17.9999 10.25Z" fill="#6C54A0"/>
<path d="M20.9999 10.25H19.4999C19.4983 8.85811 18.9447 7.52367 17.9604 6.53945C16.9762 5.55523 15.6418 5.00159 14.2499 5.00001V3.50001C16.0395 3.50199 17.7552 4.21379 19.0207 5.47923C20.2861 6.74467 20.9979 8.4604 20.9999 10.25ZM15.2496 16.6115L16.9296 14.9315C17.1545 14.7066 17.4405 14.5526 17.752 14.4886C18.0636 14.4246 18.3871 14.4534 18.6824 14.5715L20.7284 15.3905C21.03 15.5112 21.2884 15.7194 21.4705 15.9884C21.6526 16.2573 21.7499 16.5747 21.7499 16.8995V20.6203C21.7504 20.8414 21.7058 21.0603 21.6188 21.2636C21.5318 21.4669 21.4042 21.6504 21.2438 21.8026C21.0835 21.9549 20.8937 22.0729 20.6862 22.1493C20.4787 22.2257 20.2577 22.2589 20.0369 22.247C5.69539 21.3545 2.79889 9.20751 2.26114 4.55601C2.2351 4.3286 2.25749 4.09826 2.32685 3.88013C2.39621 3.66201 2.51097 3.46104 2.66357 3.29044C2.81617 3.11984 3.00316 2.98349 3.21224 2.89034C3.42132 2.79719 3.64775 2.74937 3.87664 2.75001H7.53139C7.85619 2.75 8.17355 2.8473 8.44252 3.02938C8.71149 3.21146 8.91973 3.46995 9.04039 3.77151L9.85864 5.81751C9.97673 6.11284 10.0056 6.43633 9.94157 6.74788C9.87758 7.05944 9.72357 7.34538 9.49864 7.57026L7.81864 9.25026C7.81864 9.25026 8.75014 15.7993 15.2496 16.6115Z" fill="#6C54A0"/>
</svg>
