<svg width="24" height="18" viewBox="0 0 24 18" fill="none" xmlns="http://www.w3.org/2000/svg">
<path d="M21.85 5.7135V5.53895L21.6994 5.62723L12.5194 11.0092L12.5193 11.0093C12.3619 11.1018 12.1826 11.1506 12 11.1506C11.8174 11.1506 11.6381 11.1018 11.4807 11.0093L11.4806 11.0092L2.30058 5.62723L2.15 5.53895V5.7135V15.3765C2.15 15.6387 2.36277 15.8515 2.625 15.8515H21.375C21.501 15.8515 21.6218 15.8015 21.7109 15.7124C21.8 15.6233 21.85 15.5025 21.85 15.3765V5.7135ZM21.8006 3.19127L21.85 3.1623V3.105V2.625C21.85 2.49902 21.8 2.3782 21.7109 2.28912C21.6218 2.20004 21.501 2.15 21.375 2.15H2.625C2.49902 2.15 2.3782 2.20004 2.28912 2.28912C2.20004 2.3782 2.15 2.49902 2.15 2.625V3.105V3.1623L2.19943 3.19127L11.9494 8.90627L12 8.93591L12.0506 8.90627L21.8006 3.19127ZM2.625 0.1H21.375C22.7688 0.1 23.9 1.23123 23.9 2.625V15.375C23.9 16.0447 23.634 16.6869 23.1604 17.1604C22.6869 17.634 22.0447 17.9 21.375 17.9H2.625C1.95533 17.9 1.31308 17.634 0.839555 17.1604C0.366026 16.6869 0.1 16.0447 0.1 15.375V2.625C0.1 1.23123 1.23123 0.1 2.625 0.1Z" fill="#6C54A0" stroke="#F1DCE9" stroke-width="0.2"/>
</svg>
