<svg width="37" height="28" viewBox="0 0 37 28" fill="none" xmlns="http://www.w3.org/2000/svg">
<path d="M0.7 1.875C0.7 0.949923 1.44992 0.2 2.375 0.2H34.625C35.5501 0.2 36.3 0.949923 36.3 1.875C36.3 2.80008 35.5501 3.55 34.625 3.55H2.375C1.44992 3.55 0.7 2.80008 0.7 1.875ZM0.7 25.875C0.7 24.9499 1.44992 24.2 2.375 24.2H34.625C35.5501 24.2 36.3 24.9499 36.3 25.875C36.3 26.8001 35.5501 27.55 34.625 27.55H2.375C1.44992 27.55 0.7 26.8001 0.7 25.875ZM11.2 13.875C11.2 12.9499 11.9499 12.2 12.875 12.2H34.625C35.5501 12.2 36.3 12.9499 36.3 13.875C36.3 14.8001 35.5501 15.55 34.625 15.55H12.875C11.9499 15.55 11.2 14.8001 11.2 13.875Z" fill="#6C54A0" stroke="white" stroke-width="0.4" stroke-linecap="round"/>
</svg>
