<svg width="18" height="18" viewBox="0 0 18 18" fill="none" xmlns="http://www.w3.org/2000/svg">
<path d="M9 6.49984C8.33696 6.49984 7.70107 6.76323 7.23223 7.23207C6.76339 7.70091 6.5 8.3368 6.5 8.99984C6.5 9.6629 6.76339 10.2988 7.23223 10.7676C7.70107 11.2364 8.33696 11.4998 9 11.4998C9.663 11.4998 10.2989 11.2364 10.7678 10.7676C11.2366 10.2988 11.5 9.6629 11.5 8.99984C11.5 8.3368 11.2366 7.70091 10.7678 7.23207C10.2989 6.76323 9.663 6.49984 9 6.49984ZM9 4.83317C10.1051 4.83317 11.1649 5.27216 11.9463 6.05356C12.7277 6.83496 13.1667 7.89477 13.1667 8.99984C13.1667 10.1049 12.7277 11.1647 11.9463 11.9461C11.1649 12.7275 10.1051 13.1665 9 13.1665C7.89493 13.1665 6.83512 12.7275 6.05372 11.9461C5.27232 11.1647 4.83333 10.1049 4.83333 8.99984C4.83333 7.89477 5.27232 6.83496 6.05372 6.05356C6.83512 5.27216 7.89493 4.83317 9 4.83317ZM14.4167 4.62484C14.4167 4.9011 14.3069 5.16606 14.1116 5.36141C13.9162 5.55676 13.6513 5.6665 13.375 5.6665C13.0987 5.6665 12.8338 5.55676 12.6384 5.36141C12.4431 5.16606 12.3333 4.9011 12.3333 4.62484C12.3333 4.34857 12.4431 4.08362 12.6384 3.88827C12.8338 3.69292 13.0987 3.58317 13.375 3.58317C13.6513 3.58317 13.9162 3.69292 14.1116 3.88827C14.3069 4.08362 14.4167 4.34857 14.4167 4.62484ZM9 2.33317C6.93833 2.33317 6.60166 2.339 5.6425 2.3815C4.98916 2.41234 4.55083 2.49984 4.14416 2.65817C3.7825 2.79817 3.52166 2.96567 3.24416 3.244C2.98334 3.496 2.78279 3.80366 2.6575 4.144C2.49916 4.55234 2.41166 4.98984 2.38166 5.64234C2.33833 6.56234 2.33333 6.884 2.33333 8.99984C2.33333 11.0615 2.33916 11.3982 2.38166 12.3573C2.4125 13.0098 2.5 13.449 2.6575 13.8548C2.79916 14.2173 2.96583 14.4782 3.2425 14.7548C3.52333 15.0348 3.78416 15.2023 4.1425 15.3407C4.55416 15.4998 4.9925 15.5882 5.6425 15.6182C6.5625 15.6615 6.88416 15.6665 9 15.6665C11.0617 15.6665 11.3983 15.6607 12.3575 15.6182C13.0092 15.5873 13.4483 15.4998 13.855 15.3423C14.2158 15.2015 14.4783 15.034 14.755 14.7573C15.0358 14.4765 15.2033 14.2157 15.3417 13.8573C15.5 13.4465 15.5883 13.0073 15.6183 12.3573C15.6617 11.4373 15.6667 11.1157 15.6667 8.99984C15.6667 6.93817 15.6608 6.6015 15.6183 5.64234C15.5875 4.99067 15.5 4.55067 15.3417 4.144C15.2161 3.80401 15.0159 3.49647 14.7558 3.244C14.5039 2.98304 14.1963 2.78248 13.8558 2.65734C13.4475 2.499 13.0092 2.4115 12.3575 2.3815C11.4375 2.33817 11.1158 2.33317 9 2.33317ZM9 0.666504C11.2642 0.666504 11.5467 0.674844 12.435 0.716504C13.3225 0.758174 13.9267 0.897344 14.4583 1.104C15.0083 1.31567 15.4717 1.60234 15.935 2.06484C16.3587 2.48142 16.6866 2.98533 16.8958 3.5415C17.1017 4.07234 17.2417 4.67734 17.2833 5.56484C17.3225 6.45317 17.3333 6.73567 17.3333 8.99984C17.3333 11.264 17.325 11.5465 17.2833 12.4348C17.2417 13.3223 17.1017 13.9265 16.8958 14.4582C16.6872 15.0147 16.3593 15.5187 15.935 15.9348C15.5183 16.3584 15.0144 16.6863 14.4583 16.8957C13.9275 17.1015 13.3225 17.2415 12.435 17.2832C11.5467 17.3223 11.2642 17.3332 9 17.3332C6.73583 17.3332 6.45333 17.3248 5.565 17.2832C4.6775 17.2415 4.07333 17.1015 3.54166 16.8957C2.98527 16.6869 2.48127 16.359 2.065 15.9348C1.64117 15.5183 1.31327 15.0144 1.10416 14.4582C0.8975 13.9273 0.75833 13.3223 0.71666 12.4348C0.6775 11.5465 0.66666 11.264 0.66666 8.99984C0.66666 6.73567 0.675 6.45317 0.71666 5.56484C0.75833 4.6765 0.8975 4.07317 1.10416 3.5415C1.31269 2.98499 1.64067 2.48094 2.065 2.06484C2.48139 1.64086 2.98535 1.31295 3.54166 1.104C4.07333 0.897344 4.67666 0.758174 5.565 0.716504C6.45333 0.677344 6.73583 0.666504 9 0.666504Z" fill="#CCD2E9"/>
</svg>
