<svg width="16" height="16" viewBox="0 0 16 16" fill="none" xmlns="http://www.w3.org/2000/svg">
<path d="M8 5.95817C8.7642 5.17734 9.7592 4.6665 10.9167 4.6665C12.1322 4.6665 13.298 5.14939 14.1576 6.00893C15.0171 6.86847 15.5 8.0343 15.5 9.2498V15.4998H13.8333V9.2498C13.8333 8.4763 13.526 7.73442 12.9791 7.18744C12.4321 6.64046 11.6902 6.33317 10.9167 6.33317C10.1431 6.33317 9.4013 6.64046 8.8543 7.18744C8.3073 7.73442 8 8.4763 8 9.2498V15.4998H6.33334V5.08317H8V5.95817ZM2.16667 3.4165C1.83515 3.4165 1.51721 3.28481 1.28279 3.05039C1.04837 2.81597 0.916672 2.49802 0.916672 2.1665C0.916672 1.83498 1.04837 1.51704 1.28279 1.28262C1.51721 1.0482 1.83515 0.916504 2.16667 0.916504C2.49819 0.916504 2.81614 1.0482 3.05056 1.28262C3.28498 1.51704 3.41667 1.83498 3.41667 2.1665C3.41667 2.49802 3.28498 2.81597 3.05056 3.05039C2.81614 3.28481 2.49819 3.4165 2.16667 3.4165ZM1.33334 5.08317H3.00001V15.4998H1.33334V5.08317Z" fill="#CCD2E9"/>
</svg>
