<svg width="10" height="16" viewBox="0 0 10 16" fill="none" xmlns="http://www.w3.org/2000/svg">
<path d="M5.8333 6.49984H9.5833L9.1667 8.1665H5.8333V15.6665H4.16667V8.1665H0.833328V6.49984H4.16667V4.93984C4.16667 3.454 4.32167 2.91484 4.61167 2.3715C4.89584 1.83468 5.3348 1.39568 5.8717 1.1115C6.415 0.821504 6.9542 0.666504 8.44 0.666504C8.875 0.666504 9.2567 0.708174 9.5833 0.791504V2.33317H8.44C7.3367 2.33317 7.0008 2.39817 6.6583 2.5815C6.405 2.7165 6.2167 2.90484 6.0817 3.15817C5.8983 3.50067 5.8333 3.8365 5.8333 4.93984V6.49984Z" fill="#CCD2E9"/>
</svg>
