<svg width="24" height="25" viewBox="0 0 24 25" fill="none" xmlns="http://www.w3.org/2000/svg">
<g clip-path="url(#clip0_450_188)">
<path d="M18 10.25H16.5C16.4994 9.65345 16.2622 9.0815 15.8403 8.65967C15.4185 8.23784 14.8466 8.0006 14.25 8V6.5C15.2442 6.50119 16.1973 6.89666 16.9003 7.59966C17.6033 8.30267 17.9988 9.2558 18 10.25Z" fill="#6C54A0"/>
<path d="M21 10.25H19.5C19.4984 8.8581 18.9448 7.52367 17.9606 6.53944C16.9763 5.55522 15.6419 5.00159 14.25 5V3.5C16.0396 3.50199 17.7553 4.21378 19.0208 5.47922C20.2862 6.74466 20.998 8.4604 21 10.25Z" fill="#6C54A0"/>
<path d="M3.24728 3.77875L4.63121 2.90433C5.2611 2.50594 6.01439 2.3525 6.75047 2.47264C7.48654 2.59278 8.15509 2.97829 8.63131 3.55722L10.1515 5.40518C10.561 5.90299 10.806 6.51678 10.852 7.16043C10.898 7.80407 10.7427 8.44526 10.4079 8.99403L9.19085 10.9894C9.17582 11.0141 9.16541 11.0413 9.16016 11.0698C9.0857 11.4711 9.60718 12.3444 10.8185 13.5475C12.1845 14.9033 13.0721 15.3434 13.3754 15.1543L15.3475 13.8959C15.8877 13.5517 16.522 13.3867 17.1616 13.424C17.8011 13.4613 18.4138 13.6991 18.9138 14.1041L20.7628 15.6001C21.3433 16.0698 21.7355 16.735 21.8665 17.4721C21.9976 18.2093 21.8585 18.9681 21.4753 19.6078L20.628 21.0199C20.3335 21.5114 19.925 21.9234 19.4373 22.2207C18.9496 22.5181 18.3972 22.6919 17.8273 22.7275C14.4428 22.9378 10.8609 21.131 7.07268 17.3708C3.28283 13.6082 1.43688 10.0232 1.60295 6.61087C1.63073 6.0396 1.79473 5.484 2.08109 4.99101C2.36745 4.49803 2.76776 4.08214 3.24819 3.7785L3.24728 3.77875ZM4.00478 4.98653C3.7165 5.16868 3.47628 5.41818 3.30442 5.71395C3.13256 6.00971 3.03412 6.34306 3.01741 6.68582C2.87405 9.62627 4.53539 12.8538 8.06505 16.3577C11.5921 19.8594 14.8181 21.486 17.7337 21.3043C18.0759 21.2829 18.4075 21.1785 18.7002 21C18.9929 20.8214 19.2381 20.5741 19.4148 20.279L20.2614 18.868C20.4679 18.5236 20.5429 18.115 20.4724 17.718C20.4019 17.3211 20.1908 16.9628 19.8783 16.7098L18.029 15.2129C17.7599 14.9949 17.43 14.8668 17.0857 14.8467C16.7414 14.8266 16.3999 14.9154 16.109 15.1006L14.1319 16.3623C13.0353 17.0501 11.6342 16.3559 9.82591 14.5598C8.29449 13.0404 7.57691 11.8354 7.76827 10.8032C7.8053 10.6036 7.87806 10.413 7.98311 10.24L9.20019 8.24465C9.38055 7.94914 9.46424 7.60383 9.43949 7.25718C9.41475 6.91053 9.28282 6.57995 9.06222 6.31186L7.54232 4.46481C7.28588 4.15299 6.92582 3.94535 6.52939 3.88066C6.13296 3.81597 5.72726 3.89866 5.38805 4.11328L4.00412 4.9877L4.00478 4.98653Z" fill="#6C54A0"/>
</g>
<defs>
<clipPath id="clip0_450_188">
<rect width="24" height="24" fill="white" transform="translate(0 0.5)"/>
</clipPath>
</defs>
</svg>
