<svg width="52" height="52" viewBox="0 0 52 52" fill="none" xmlns="http://www.w3.org/2000/svg">
<path d="M41.8276 19.0525C41.8861 19.6021 41.4328 20.0518 40.88 20.0518L39.0666 20.0518C38.5147 20.0518 38.0761 19.6014 37.9798 19.0579C37.7764 17.9097 37.2258 16.8422 36.3905 16.0064C35.5552 15.1708 34.4885 14.6199 33.3411 14.4163C32.7977 14.3199 32.3472 13.8813 32.3472 13.3294V11.514C32.3472 10.9612 32.7969 10.5079 33.3466 10.5664C35.5067 10.7965 37.5352 11.759 39.0854 13.31C40.6357 14.8612 41.5978 16.891 41.8276 19.0525Z" fill="#6C54A0"/>
<path d="M49.4782 19.0512C49.511 19.6029 49.0601 20.0518 48.5073 20.0518L46.6937 20.0518C46.1419 20.0518 45.6982 19.6042 45.6564 19.0539C45.4154 15.8784 44.0471 12.8804 41.7809 10.6131C39.5149 8.34588 36.5187 6.97689 33.3451 6.73557C32.7949 6.69373 32.3472 6.25011 32.3472 5.69827V3.88261C32.3472 3.32989 32.7961 2.87896 33.3478 2.91176C37.5326 3.16054 41.4959 4.93397 44.4765 7.91615C47.4572 10.8985 49.2297 14.864 49.4782 19.0512Z" fill="#6C54A0"/>
<path d="M4.3737 3.59036L7.89222 1.36605C9.49366 0.352658 11.4088 -0.0376677 13.2802 0.267941C15.1516 0.573549 16.8514 1.5542 18.0621 3.02684L21.9269 7.72761C22.9683 8.99392 23.5911 10.5553 23.708 12.1925C23.825 13.8298 23.4301 15.4608 22.579 16.8568L19.4847 21.9324C19.4465 21.9952 19.42 22.0646 19.4066 22.1371C19.2173 23.1578 20.5432 25.3793 23.6229 28.4397C27.0958 31.8886 29.3525 33.0079 30.1234 32.527L35.1373 29.3259C36.5108 28.4503 38.1235 28.0306 39.7495 28.1255C41.3755 28.2205 42.9333 28.8254 44.2044 29.8555L48.9053 33.6609C50.3812 34.8558 51.3783 36.548 51.7115 38.423C52.0446 40.298 51.6911 42.2284 50.7167 43.8555L48.5626 47.4476C47.8139 48.6978 46.7753 49.7458 45.5353 50.5022C44.2954 51.2586 42.891 51.7009 41.442 51.7913C32.8372 52.3262 23.7305 47.7303 14.0994 38.1653C4.46409 28.594 -0.229082 19.4746 0.193142 10.7946C0.263771 9.34141 0.680723 7.9281 1.40877 6.67407C2.13681 5.42003 3.15225 4.36276 4.3737 3.59036ZM6.29958 6.66267C5.56664 7.12601 4.95591 7.76067 4.51898 8.51303C4.08205 9.26539 3.83176 10.1133 3.78927 10.9852C3.4248 18.465 7.6486 26.675 16.6224 35.5881C25.5897 44.4955 33.7913 48.6333 41.2042 48.171C42.0741 48.1167 42.9171 47.8511 43.6613 47.397C44.4056 46.9428 45.0289 46.3135 45.4781 45.5628L47.6304 41.9737C48.1554 41.0977 48.3461 40.0582 48.167 39.0485C47.9878 38.0387 47.4511 37.1273 46.6564 36.4837L41.9549 32.6759C41.2706 32.1214 40.432 31.7957 39.5566 31.7445C38.6813 31.6933 37.813 31.9192 37.0735 32.3904L32.047 35.5999C29.2587 37.3494 25.6968 35.5837 21.0993 31.0146C17.2058 27.1497 15.3814 24.0846 15.8679 21.4589C15.962 20.9512 16.147 20.4662 16.4141 20.0262L19.5084 14.9505C19.967 14.1988 20.1797 13.3204 20.1168 12.4386C20.0539 11.5568 19.7185 10.7159 19.1577 10.034L15.2935 5.33554C14.6415 4.54234 13.726 4.01415 12.7182 3.8496C11.7103 3.68505 10.6788 3.89538 9.81642 4.44133L6.29791 6.66564L6.29958 6.66267Z" fill="#6C54A0"/>
</svg>
