<svg width="1140" height="641" viewBox="0 0 1140 641" fill="none" xmlns="http://www.w3.org/2000/svg">
<g clip-path="url(#clip0_1640_6291)">
<g filter="url(#filter0_d_1640_6291)">
<path fill-rule="evenodd" clip-rule="evenodd" d="M0 30C0 13.4315 13.4315 0 30 0L992.477 0L1060.79 0L1110 0C1126.57 0 1140 13.4315 1140 30V611C1140 627.569 1126.57 641 1110 641L30 641C13.4315 641 0 627.569 0 611L0 30Z" fill="white"/>
</g>
<g filter="url(#filter1_d_1640_6291)">
<path d="M129.533 181.924C199.5 186.132 266.261 206.61 329.959 232.489C331.954 233.261 333.877 234.102 335.872 234.874C457.71 285.089 580.046 346.034 714.424 380.539C856.069 416.868 1001.85 409.153 1140 370.16V0H0V198.615C42.0375 184.869 85.9275 179.329 129.533 181.924Z" fill="url(#paint0_linear_1640_6291)"/>
</g>
</g>
<defs>
<filter id="filter0_d_1640_6291" x="-35" y="-18" width="1210" height="711" filterUnits="userSpaceOnUse" color-interpolation-filters="sRGB">
<feFlood flood-opacity="0" result="BackgroundImageFix"/>
<feColorMatrix in="SourceAlpha" type="matrix" values="0 0 0 0 0 0 0 0 0 0 0 0 0 0 0 0 0 0 127 0" result="hardAlpha"/>
<feOffset dy="17"/>
<feGaussianBlur stdDeviation="17.5"/>
<feColorMatrix type="matrix" values="0 0 0 0 0.890196 0 0 0 0 0.858824 0 0 0 0 0.968627 0 0 0 0.17 0"/>
<feBlend mode="normal" in2="BackgroundImageFix" result="effect1_dropShadow_1640_6291"/>
<feBlend mode="normal" in="SourceGraphic" in2="effect1_dropShadow_1640_6291" result="shape"/>
</filter>
<filter id="filter1_d_1640_6291" x="-16" y="-12" width="1172" height="436" filterUnits="userSpaceOnUse" color-interpolation-filters="sRGB">
<feFlood flood-opacity="0" result="BackgroundImageFix"/>
<feColorMatrix in="SourceAlpha" type="matrix" values="0 0 0 0 0 0 0 0 0 0 0 0 0 0 0 0 0 0 127 0" result="hardAlpha"/>
<feOffset dy="4"/>
<feGaussianBlur stdDeviation="8"/>
<feComposite in2="hardAlpha" operator="out"/>
<feColorMatrix type="matrix" values="0 0 0 0 0.694118 0 0 0 0 0.227451 0 0 0 0 0.54902 0 0 0 0.04 0"/>
<feBlend mode="normal" in2="BackgroundImageFix" result="effect1_dropShadow_1640_6291"/>
<feBlend mode="normal" in="SourceGraphic" in2="effect1_dropShadow_1640_6291" result="shape"/>
</filter>
<linearGradient id="paint0_linear_1640_6291" x1="0" y1="0" x2="1155.53" y2="353.182" gradientUnits="userSpaceOnUse">
<stop stop-color="#EFDBE9"/>
<stop offset="0.494792" stop-color="#F8DDE4"/>
<stop offset="1" stop-color="#FAE5E0"/>
</linearGradient>
<clipPath id="clip0_1640_6291">
<rect width="1140" height="641" rx="30" fill="white"/>
</clipPath>
</defs>
</svg>
