<?xml version="1.0" standalone="no"?>
<!DOCTYPE svg PUBLIC "-//W3C//DTD SVG 20010904//EN"
 "http://www.w3.org/TR/2001/REC-SVG-20010904/DTD/svg10.dtd">
<svg version="1.0" xmlns="http://www.w3.org/2000/svg"
 width="1248.000000pt" height="1248.000000pt" viewBox="0 0 1248.000000 1248.000000"
 preserveAspectRatio="xMidYMid meet">
<metadata>
Created by potrace 1.14, written by Peter Selinger 2001-2017
</metadata>
<g transform="translate(0.000000,1248.000000) scale(0.100000,-0.100000)"
fill="#000000" stroke="none">
<path d="M2839 10955 c-2 -1 -35 -6 -74 -9 -95 -8 -154 -15 -185 -22 -14 -2
-36 -7 -50 -9 -71 -11 -105 -18 -245 -51 -11 -3 -29 -7 -40 -9 -31 -7 -236
-74 -270 -89 -16 -7 -46 -19 -65 -26 -19 -7 -73 -31 -118 -52 -46 -21 -86 -38
-88 -38 -19 0 -409 -234 -434 -260 -3 -3 -32 -25 -65 -49 -33 -25 -62 -47 -65
-50 -3 -3 -27 -24 -55 -45 -64 -51 -331 -319 -370 -371 -17 -22 -42 -53 -57
-70 -16 -16 -28 -36 -28 -42 0 -7 -4 -13 -8 -13 -4 0 -25 -25 -47 -56 -22 -31
-45 -62 -52 -69 -7 -7 -9 -15 -6 -19 4 -3 2 -6 -3 -6 -5 0 -20 -20 -34 -45
-14 -25 -28 -45 -32 -45 -5 0 -8 -9 -8 -20 0 -11 -4 -20 -9 -20 -5 0 -13 -10
-17 -22 -4 -13 -10 -25 -14 -28 -4 -3 -14 -18 -23 -35 -27 -53 -101 -200 -102
-205 -1 -3 -9 -23 -19 -45 -10 -22 -27 -62 -38 -90 -11 -27 -25 -61 -30 -75
-6 -14 -12 -32 -13 -40 -2 -8 -12 -42 -24 -75 -25 -69 -65 -211 -77 -270 -4
-22 -9 -47 -11 -55 -2 -8 -6 -28 -8 -45 -3 -16 -7 -41 -10 -55 -5 -24 -10 -54
-20 -124 -26 -187 -26 -703 0 -769 4 -9 5 -26 2 -37 -3 -11 -2 -20 2 -20 4 0
7 -12 6 -27 0 -16 5 -48 12 -72 7 -24 10 -47 7 -53 -3 -5 -1 -14 4 -21 5 -7
12 -30 15 -52 6 -47 51 -214 71 -265 8 -19 15 -39 16 -45 24 -103 183 -457
247 -552 12 -18 20 -33 18 -33 -3 0 20 -36 50 -81 30 -45 55 -83 55 -85 0 -3
22 -34 50 -69 27 -35 50 -67 50 -70 0 -4 6 -12 13 -19 6 -8 30 -35 52 -61 22
-26 50 -59 62 -73 12 -14 19 -30 16 -35 -3 -5 212 -225 478 -488 715 -707
1015 -1006 1043 -1040 15 -17 26 -29 26 -26 0 2 222 -219 493 -490 574 -576
540 -543 549 -543 5 0 8 -3 8 -8 0 -8 900 -910 1015 -1017 39 -35 73 -65 77
-65 4 0 15 -8 25 -18 39 -39 197 -152 213 -152 5 0 10 -4 10 -9 0 -5 12 -16
28 -23 36 -19 76 -42 82 -48 34 -34 452 -226 456 -209 0 2 7 -1 15 -7 11 -9
95 -38 144 -50 6 -1 44 -11 85 -23 41 -11 86 -22 100 -25 14 -3 50 -10 80 -16
30 -6 66 -13 80 -15 53 -7 146 -18 170 -19 14 0 28 -5 32 -11 5 -6 8 -6 8 1 0
6 7 11 15 11 8 0 15 -3 15 -7 0 -8 382 -4 450 5 30 4 67 8 82 9 15 1 30 5 33
8 4 4 13 4 21 1 8 -3 21 0 29 7 11 9 15 9 15 1 0 -7 5 -9 10 -6 6 4 20 8 33
11 82 15 251 56 262 62 6 4 19 7 30 8 20 2 150 45 190 63 11 5 61 26 110 46
50 21 133 60 185 88 52 27 105 55 117 61 13 6 23 14 23 19 0 4 6 7 14 7 8 0
21 6 28 13 7 7 29 22 47 33 19 10 46 28 59 39 13 11 25 18 26 15 1 -3 13 5 26
17 14 13 72 60 130 105 74 59 632 610 1900 1878 988 987 1807 1810 1820 1828
22 30 39 51 83 102 7 8 28 35 47 60 19 25 37 47 41 50 3 3 30 41 60 85 30 44
57 82 62 83 4 2 7 12 7 23 0 10 3 19 8 19 4 0 16 17 27 38 11 20 30 54 42 75
13 20 20 37 16 37 -5 0 0 5 10 11 9 5 17 15 17 20 0 6 20 52 44 102 72 152
159 383 150 398 -3 5 -1 9 4 9 5 0 14 21 20 48 7 26 14 54 17 62 8 31 54 236
59 265 18 115 18 121 32 235 8 69 13 492 6 504 -3 5 -5 31 -6 58 0 26 -2 48
-6 48 -3 0 -5 12 -4 27 1 31 -20 169 -42 268 -8 39 -17 81 -20 95 -12 58 -76
271 -94 315 -4 11 -16 40 -25 65 -34 93 -88 216 -102 232 -8 9 -12 22 -8 27 3
6 3 11 -2 11 -4 0 -18 21 -31 48 -13 26 -34 65 -47 87 -13 22 -27 47 -31 55
-14 28 -174 265 -199 294 -14 16 -25 32 -25 35 0 3 -18 25 -40 49 -22 24 -40
45 -40 49 0 11 -290 305 -290 294 0 -3 -4 -1 -8 4 -6 10 -141 124 -167 143 -6
4 -26 19 -45 33 -55 41 -200 139 -206 139 -3 0 -24 13 -47 28 -23 15 -76 45
-117 66 -41 21 -90 47 -107 58 -18 11 -33 17 -33 14 0 -3 -16 3 -35 14 -41 23
-250 106 -292 116 -15 4 -34 11 -40 17 -7 5 -13 7 -13 4 0 -3 -24 2 -52 12
-71 24 -238 64 -322 77 -22 3 -43 7 -46 9 -3 2 -32 6 -65 9 -33 4 -67 9 -75
11 -86 23 -534 23 -700 0 -104 -14 -128 -17 -155 -20 -16 -2 -30 -4 -30 -5 0
-2 -37 -9 -62 -12 -13 -1 -23 -5 -23 -8 0 -3 -10 -5 -22 -6 -13 0 -36 -4 -53
-7 -16 -4 -43 -9 -60 -13 -16 -3 -36 -11 -42 -16 -7 -6 -13 -8 -13 -5 0 4 -18
0 -39 -8 -22 -7 -42 -11 -45 -8 -3 4 -6 1 -6 -5 0 -7 -3 -11 -7 -10 -10 2 -73
-13 -93 -22 -8 -4 -42 -18 -75 -30 -33 -12 -69 -26 -80 -30 -99 -43 -134 -59
-230 -107 -60 -31 -145 -78 -188 -104 -43 -27 -83 -49 -88 -49 -5 0 -9 -4 -9
-8 0 -4 -15 -16 -32 -27 -18 -10 -52 -32 -74 -49 -23 -17 -54 -40 -70 -51 -92
-67 -185 -149 -354 -315 -231 -225 -266 -256 -364 -322 -55 -37 -104 -64 -108
-62 -4 3 -8 1 -8 -4 0 -5 -8 -12 -17 -15 -10 -3 -58 -20 -107 -37 -49 -18
-101 -34 -115 -36 -14 -3 -37 -7 -51 -10 -78 -16 -268 -21 -340 -10 -123 20
-225 50 -323 96 -71 33 -199 114 -246 156 -90 82 -131 123 -131 133 0 6 -4 11
-9 11 -4 0 -71 62 -148 138 -136 134 -189 183 -207 192 -5 3 -24 19 -42 35
-18 17 -54 46 -81 65 -26 19 -52 38 -58 43 -55 41 -105 77 -109 77 -3 0 -22
11 -43 25 -21 14 -45 30 -53 35 -52 35 -262 143 -371 190 -84 37 -273 107
-310 115 -9 2 -47 12 -85 23 -57 17 -89 25 -134 37 -5 1 -42 9 -100 20 -14 3
-41 7 -60 10 -19 3 -44 7 -55 9 -12 2 -48 7 -80 11 -33 4 -73 9 -90 12 -35 5
-491 13 -496 8z m2642 -3522 c13 -16 12 -17 -3 -4 -10 7 -18 15 -18 17 0 8 8
3 21 -13z m293 -201 c3 -5 -1 -9 -9 -9 -8 0 -12 4 -9 9 3 4 7 8 9 8 2 0 6 -4
9 -8z m56 -48 c0 -2 -9 0 -20 6 -11 6 -20 13 -20 16 0 2 9 0 20 -6 11 -6 20
-13 20 -16z m55 -42 c-3 -3 -11 0 -18 7 -9 10 -8 11 6 5 10 -3 15 -9 12 -12z
m46 -39 c13 -16 12 -17 -3 -4 -10 7 -18 15 -18 17 0 8 8 3 21 -13z m84 -73
c10 -11 16 -20 13 -20 -3 0 -13 9 -23 20 -10 11 -16 20 -13 20 3 0 13 -9 23
-20z m109 -89 c-2 -3 -12 3 -22 13 -16 17 -16 18 5 5 12 -7 20 -15 17 -18z
m101 -81 c3 -6 -1 -7 -9 -4 -18 7 -21 14 -7 14 6 0 13 -4 16 -10z m56 -47 c13
-16 12 -17 -3 -4 -10 7 -18 15 -18 17 0 8 8 3 21 -13z m40 -30 c13 -16 12 -17
-3 -4 -10 7 -18 15 -18 17 0 8 8 3 21 -13z m64 -51 c-3 -3 -11 0 -18 7 -9 10
-8 11 6 5 10 -3 15 -9 12 -12z m56 -39 c13 -16 12 -17 -3 -4 -17 13 -22 21
-14 21 2 0 10 -8 17 -17z m40 -30 c13 -16 12 -17 -3 -4 -10 7 -18 15 -18 17 0
8 8 3 21 -13z m174 -123 c3 -6 -1 -7 -9 -4 -18 7 -21 14 -7 14 6 0 13 -4 16
-10z m260 -180 c3 -6 -1 -7 -9 -4 -18 7 -21 14 -7 14 6 0 13 -4 16 -10z m250
-160 c3 -5 1 -10 -4 -10 -6 0 -11 5 -11 10 0 6 2 10 4 10 3 0 8 -4 11 -10z"/>
</g>
</svg>
