<svg width="40" height="40" viewBox="0 0 40 40" fill="none" xmlns="http://www.w3.org/2000/svg">
<path d="M10.9999 18.3828C10.9999 19.665 11.3339 20.9282 11.9657 22.0359C12.1581 22.3732 12.5875 22.4907 12.9249 22.2982C13.2622 22.1058 13.3797 21.6764 13.1872 21.3391C12.6762 20.4433 12.4061 19.421 12.4061 18.3828C12.4061 15.0873 15.0872 12.4062 18.3827 12.4062C21.6782 12.4062 24.3593 15.0873 24.3593 18.3828C24.3593 21.6783 21.6782 24.3594 18.3827 24.3594C17.3571 24.3594 16.3458 24.0954 15.4578 23.5961C15.1193 23.4057 14.6907 23.5258 14.5003 23.8643C14.31 24.2028 14.4301 24.6314 14.7685 24.8218C15.8664 25.4393 17.1162 25.7656 18.3827 25.7656C20.1573 25.7656 21.7875 25.1361 23.0622 24.0889L27.8013 28.7957C27.9384 28.932 28.1176 29 28.2968 29C28.4775 29 28.6582 28.9307 28.7956 28.7924C29.0693 28.5168 29.0677 28.0717 28.7922 27.798L24.0595 23.0975C25.1243 21.8177 25.7655 20.1738 25.7655 18.3828C25.7655 14.3119 22.4536 11 18.3827 11C14.3118 11 10.9999 14.3119 10.9999 18.3828Z" fill="#6C54A0"/>
<rect x="0.499878" y="0.5" width="39" height="39" rx="1.5" stroke="#6C54A0"/>
</svg>
