<svg width="82" height="82" viewBox="0 0 82 82" fill="none" xmlns="http://www.w3.org/2000/svg">
<rect x="1" y="1" width="80" height="80" rx="10" fill="url(#paint0_linear_336_2395)" stroke="white" stroke-width="2"/>
<g clip-path="url(#clip0_336_2395)">
<path d="M40.1425 36.6175C40.4175 35.7925 41.5825 35.7925 41.8575 36.6175L43.47 41.46C43.8249 42.5245 44.4229 43.4917 45.2166 44.285C46.0103 45.0782 46.9778 45.6757 48.0425 46.03L52.8825 47.6425C53.7075 47.9175 53.7075 49.0825 52.8825 49.3575L48.04 50.97C46.9755 51.325 46.0083 51.923 45.2151 52.7166C44.4218 53.5103 43.8244 54.4778 43.47 55.5425L41.8575 60.3825C41.7982 60.5632 41.6834 60.7205 41.5294 60.832C41.3754 60.9436 41.1901 61.0036 41 61.0036C40.8099 61.0036 40.6246 60.9436 40.4706 60.832C40.3166 60.7205 40.2018 60.5632 40.1425 60.3825L38.53 55.54C38.1753 54.4758 37.5777 53.5088 36.7845 52.7156C35.9913 51.9223 35.0243 51.3247 33.96 50.97L29.1175 49.3575C28.9369 49.2983 28.7795 49.1834 28.668 49.0294C28.5565 48.8755 28.4964 48.6902 28.4964 48.5C28.4964 48.3099 28.5565 48.1246 28.668 47.9706C28.7795 47.8167 28.9369 47.7018 29.1175 47.6425L33.96 46.03C35.0243 45.6754 35.9913 45.0777 36.7845 44.2845C37.5777 43.4913 38.1753 42.5243 38.53 41.46L40.1425 36.6175ZM30.485 23.87C30.5209 23.7618 30.5899 23.6676 30.6824 23.6008C30.7748 23.534 30.886 23.4981 31 23.4981C31.1141 23.4981 31.2252 23.534 31.3177 23.6008C31.4101 23.6676 31.4792 23.7618 31.515 23.87L32.4825 26.775C32.915 28.07 33.93 29.085 35.225 29.5175L38.13 30.485C38.2383 30.5209 38.3325 30.5899 38.3993 30.6824C38.466 30.7749 38.502 30.886 38.502 31C38.502 31.1141 38.466 31.2252 38.3993 31.3177C38.3325 31.4101 38.2383 31.4792 38.13 31.515L35.225 32.4825C34.5863 32.6953 34.006 33.054 33.53 33.53C33.0539 34.006 32.6953 34.5864 32.4825 35.225L31.515 38.13C31.4792 38.2383 31.4101 38.3325 31.3177 38.3993C31.2252 38.4661 31.1141 38.502 31 38.502C30.886 38.502 30.7748 38.4661 30.6824 38.3993C30.5899 38.3325 30.5209 38.2383 30.485 38.13L29.5175 35.225C29.3047 34.5864 28.9461 34.006 28.4701 33.53C27.9941 33.054 27.4137 32.6953 26.775 32.4825L23.87 31.515C23.7618 31.4792 23.6675 31.4101 23.6008 31.3177C23.534 31.2252 23.498 31.1141 23.498 31C23.498 30.886 23.534 30.7749 23.6008 30.6824C23.6675 30.5899 23.7618 30.5209 23.87 30.485L26.775 29.5175C27.4137 29.3047 27.9941 28.9461 28.4701 28.4701C28.9461 27.9941 29.3047 27.4137 29.5175 26.775L30.485 23.87ZM48.1575 21.2475C48.1822 21.1764 48.2284 21.1146 48.2898 21.0709C48.3512 21.0273 48.4247 21.0038 48.5 21.0038C48.5754 21.0038 48.6488 21.0273 48.7102 21.0709C48.7716 21.1146 48.8178 21.1764 48.8425 21.2475L49.4875 23.1825C49.775 24.0475 50.4525 24.725 51.3175 25.0125L53.2525 25.6575C53.3237 25.6822 53.3854 25.7285 53.4291 25.7898C53.4728 25.8512 53.4963 25.9247 53.4963 26C53.4963 26.0754 53.4728 26.1489 53.4291 26.2102C53.3854 26.2716 53.3237 26.3179 53.2525 26.3425L51.3175 26.9875C50.8912 27.1293 50.5039 27.3686 50.1862 27.6862C49.8686 28.0039 49.6293 28.3913 49.4875 28.8175L48.8425 30.7525C48.8178 30.8237 48.7716 30.8855 48.7102 30.9291C48.6488 30.9728 48.5754 30.9963 48.5 30.9963C48.4247 30.9963 48.3512 30.9728 48.2898 30.9291C48.2284 30.8855 48.1822 30.8237 48.1575 30.7525L47.5125 28.8175C47.3707 28.3913 47.1315 28.0039 46.8138 27.6862C46.4961 27.3686 46.1088 27.1293 45.6825 26.9875L43.75 26.3425C43.6788 26.3179 43.6171 26.2716 43.5734 26.2102C43.5297 26.1489 43.5063 26.0754 43.5063 26C43.5063 25.9247 43.5297 25.8512 43.5734 25.7898C43.6171 25.7285 43.6788 25.6822 43.75 25.6575L45.685 25.0125C46.55 24.725 47.2275 24.0475 47.515 23.1825L48.1575 21.25V21.2475Z" fill="#FCFAFA"/>
</g>
<defs>
<linearGradient id="paint0_linear_336_2395" x1="1" y1="1" x2="88.6371" y2="10.4925" gradientUnits="userSpaceOnUse">
<stop stop-color="#A93890"/>
<stop offset="0.494792" stop-color="#E6436F"/>
<stop offset="1" stop-color="#F27D52"/>
</linearGradient>
<clipPath id="clip0_336_2395">
<rect width="40" height="40" fill="white" transform="translate(21 21)"/>
</clipPath>
</defs>
</svg>
