<svg width="319" height="216" viewBox="0 0 319 216" fill="none" xmlns="http://www.w3.org/2000/svg">
<path d="M114.864 184.582C114.681 183.95 114.484 183.329 114.274 182.719L113.75 182.899C113.957 183.5 114.151 184.112 114.331 184.736L114.864 184.582ZM113.592 180.887C113.346 180.277 113.087 179.679 112.814 179.093L112.311 179.328C112.58 179.904 112.836 180.493 113.077 181.094L113.592 180.887ZM111.939 177.344C111.629 176.764 111.304 176.198 110.966 175.647L110.493 175.936C110.826 176.479 111.144 177.035 111.45 177.606L111.939 177.344ZM109.896 174.008C109.52 173.469 109.131 172.946 108.728 172.438L108.294 172.782C108.689 173.281 109.072 173.796 109.441 174.326L109.896 174.008ZM107.465 170.942C107.025 170.455 106.572 169.984 106.107 169.531L105.72 169.928C106.177 170.373 106.621 170.835 107.052 171.314L107.465 170.942ZM104.66 168.211C104.161 167.785 103.649 167.378 103.126 166.99L102.796 167.435C103.309 167.816 103.81 168.215 104.3 168.633L104.66 168.211ZM101.513 165.876C100.963 165.522 100.4 165.189 99.8278 164.876L99.5616 165.362C100.123 165.669 100.674 165.997 101.214 166.343L101.513 165.876ZM98.078 163.994C97.4851 163.722 96.8827 163.469 96.271 163.237L96.0747 163.756C96.6742 163.983 97.2649 164.231 97.8456 164.499L98.078 163.994ZM94.4174 162.607C93.7946 162.419 93.1634 162.252 92.525 162.105L92.4014 162.646C93.0275 162.789 93.6465 162.953 94.2566 163.138L94.4174 162.607ZM90.6021 161.733C89.9604 161.631 89.3126 161.55 88.6587 161.49L88.6077 162.042C89.25 162.101 89.8856 162.181 90.5151 162.281L90.6021 161.733ZM86.7042 161.373C86.4236 161.366 86.1418 161.362 85.8595 161.362C85.4901 161.362 85.1191 161.368 84.7464 161.382L84.7658 161.936C85.1318 161.923 85.4968 161.916 85.8595 161.916C86.1368 161.916 86.4136 161.92 86.6892 161.928L86.7042 161.373ZM82.793 161.511C82.149 161.573 81.5018 161.654 80.8512 161.757L80.9366 162.305C81.5767 162.204 82.2134 162.124 82.8462 162.063L82.793 161.511ZM78.9278 162.113C78.2966 162.249 77.6627 162.403 77.0271 162.576L77.1729 163.111C77.7991 162.941 78.4231 162.789 79.0443 162.656L78.9278 162.113ZM75.1552 163.14C74.5423 163.342 73.9289 163.561 73.3144 163.798L73.5141 164.315C74.1203 164.082 74.7248 163.865 75.3282 163.667L75.1552 163.14ZM71.5085 164.545C70.9195 164.805 70.3299 165.082 69.7404 165.375L69.9872 165.872C70.5695 165.582 71.1513 165.309 71.7326 165.052L71.5085 164.545ZM68.011 166.283C67.4603 166.588 66.9095 166.908 66.3593 167.242L66.3233 167.264L66.6111 167.738L66.6472 167.716C67.1913 167.385 67.7354 167.07 68.2795 166.769L68.011 166.283ZM64.6555 168.242C64.0981 168.558 63.5324 168.868 62.96 169.171L63.219 169.661C63.7964 169.355 64.3666 169.043 64.929 168.724L64.6555 168.242ZM61.2385 170.052C60.6622 170.336 60.0798 170.614 59.493 170.883L59.7249 171.388C60.3161 171.115 60.9029 170.836 61.4842 170.548L61.2385 170.052ZM57.7249 171.667C57.1326 171.92 56.5358 172.165 55.9362 172.402L56.1398 172.918C56.7443 172.679 57.3455 172.433 57.9429 172.177L57.7249 171.667ZM54.1276 173.085C53.5203 173.306 52.9107 173.516 52.2995 173.717L52.4731 174.244C53.0893 174.041 53.7038 173.829 54.3161 173.607L54.1276 173.085ZM50.4548 174.294C49.8342 174.478 49.213 174.652 48.5929 174.814L48.7333 175.35C49.3594 175.186 49.9862 175.012 50.6118 174.826L50.4543 174.294H50.4548ZM46.7161 175.273C46.0838 175.416 45.4532 175.548 44.8248 175.667L44.928 176.212C45.563 176.091 46.2003 175.958 46.8386 175.814L46.7161 175.273ZM42.9213 175.991C42.2796 176.087 41.6412 176.17 41.0073 176.238L41.0672 176.789C41.7083 176.72 42.3545 176.637 43.004 176.539L42.9213 175.991ZM39.0861 176.401C38.4371 176.441 37.7949 176.465 37.1598 176.471L37.1659 177.026C37.8104 177.019 38.4621 176.995 39.1199 176.954L39.0861 176.401ZM35.2347 176.439C34.5853 176.409 33.9458 176.36 33.3174 176.291L33.2564 176.842C33.8975 176.912 34.5486 176.963 35.2092 176.993L35.2347 176.439ZM31.4156 176.014C30.7783 175.9 30.1516 175.765 29.5365 175.611L29.4011 176.149C30.029 176.307 30.6679 176.444 31.3174 176.56L31.4156 176.014ZM27.6918 175.077C27.0778 174.875 26.4782 174.652 25.8926 174.408L25.6796 174.92C26.278 175.169 26.8914 175.397 27.5182 175.603L27.6918 175.077ZM24.1538 173.599C23.5809 173.304 23.0257 172.987 22.4894 172.649L22.1937 173.119C22.7439 173.465 23.313 173.79 23.8992 174.092L24.1538 173.6V173.599ZM20.9159 171.557C20.4062 171.167 19.9181 170.756 19.4517 170.324L19.0745 170.73C19.5537 171.175 20.0557 171.597 20.5787 171.997L20.9159 171.557ZM18.1156 168.956C17.694 168.479 17.2958 167.981 16.9237 167.463L16.4733 167.786C16.8566 168.32 17.2659 168.833 17.7002 169.323L18.1156 168.956ZM15.8898 165.855C15.5754 165.307 15.2864 164.738 15.0252 164.151L14.5182 164.376C14.7878 164.981 15.0851 165.566 15.4084 166.131L15.8898 165.855ZM14.3358 162.367C14.1383 161.77 13.9664 161.156 13.8222 160.524L13.2814 160.648C13.4295 161.296 13.6059 161.927 13.8094 162.541L14.3358 162.367ZM13.4811 158.64C13.47 158.559 13.4595 158.478 13.4495 158.395C13.3796 157.834 13.3369 157.281 13.3197 156.735L12.7656 156.753C12.7834 157.315 12.8272 157.885 12.8993 158.464C12.9093 158.548 12.9204 158.631 12.9315 158.715L13.4811 158.64ZM13.3619 154.826C13.4101 154.185 13.4927 153.554 13.6064 152.931L13.0607 152.832C12.9437 153.473 12.8588 154.124 12.8083 154.785L13.3619 154.826ZM14.0413 151.069C14.2154 150.457 14.4179 149.851 14.6453 149.252L14.1267 149.055C13.8943 149.668 13.6869 150.288 13.5077 150.917L14.0413 151.069ZM15.3923 147.483C15.6608 146.905 15.9497 146.333 16.2565 145.763L15.7684 145.5C15.4572 146.078 15.1627 146.661 14.8893 147.249L15.3923 147.483ZM17.2121 144.089C17.541 143.541 17.8837 142.996 18.2365 142.452L17.7717 142.149C17.4151 142.698 17.0695 143.249 16.7368 143.803L17.2121 144.089ZM19.3102 140.844C19.673 140.314 20.0423 139.784 20.4167 139.254L19.9636 138.934C19.5887 139.466 19.2171 139.998 18.8527 140.53L19.3102 140.844ZM21.541 137.674C21.9159 137.149 22.2925 136.622 22.6685 136.093L22.2159 135.772C21.841 136.3 21.465 136.826 21.0895 137.351L21.541 137.674ZM23.7861 134.502C24.0229 134.159 24.2586 133.815 24.4921 133.47C24.623 133.276 24.7517 133.081 24.8776 132.884L24.4112 132.585C24.2869 132.778 24.161 132.969 24.0323 133.159C23.8005 133.503 23.5659 133.845 23.3302 134.185L23.7861 134.502ZM25.8826 131.204C26.1993 130.633 26.4977 130.052 26.7777 129.462L26.2769 129.224C26.0018 129.804 25.7084 130.374 25.3978 130.934L25.8826 131.204ZM27.5614 127.669C27.8033 127.065 28.0268 126.452 28.2325 125.83L27.7062 125.656C27.5038 126.267 27.2841 126.869 27.0467 127.462L27.5614 127.669ZM28.7922 123.956C28.9591 123.33 29.1089 122.695 29.242 122.053L28.6984 121.941C28.5681 122.573 28.4206 123.197 28.2564 123.813L28.7922 123.956ZM29.5847 120.129C29.6807 119.489 29.7605 118.842 29.8243 118.188L29.2725 118.134C29.2098 118.778 29.131 119.416 29.0362 120.046L29.5847 120.129ZM29.9646 116.239C29.9951 115.595 30.0107 114.945 30.0107 114.291V114.285L29.456 114.285V114.291C29.456 114.937 29.4411 115.578 29.4111 116.212L29.9646 116.239ZM29.9658 112.332C29.9369 111.687 29.8936 111.038 29.836 110.384L29.2836 110.432C29.3401 111.079 29.3834 111.721 29.4117 112.357L29.9658 112.332ZM29.6247 108.443C29.542 107.804 29.4461 107.161 29.3374 106.513L28.7905 106.605C28.8981 107.246 28.9929 107.882 29.0745 108.514L29.6247 108.443ZM28.9774 104.596C28.8864 104.154 28.7888 103.71 28.6857 103.265C28.6413 103.075 28.5969 102.885 28.552 102.694L28.0123 102.821C28.0567 103.012 28.1011 103.202 28.1455 103.39C28.2475 103.831 28.344 104.27 28.4344 104.708L28.9774 104.596ZM28.0978 100.804C27.9458 100.183 27.7899 99.5539 27.6319 98.9177L27.0933 99.0519C27.252 99.6875 27.4073 100.316 27.5587 100.936L28.0978 100.804ZM27.1604 97.0336C27.0051 96.4119 26.8476 95.7841 26.6901 95.1507L26.1521 95.2843C26.3096 95.9188 26.4672 96.5467 26.6225 97.1684L27.1604 97.0336ZM26.2248 93.2666C26.0723 92.6426 25.9203 92.0143 25.7694 91.3809L25.2298 91.5095C25.3806 92.144 25.5332 92.7735 25.6862 93.3986L26.2248 93.2666ZM25.328 89.4929C25.1843 88.8656 25.0429 88.235 24.9042 87.6011L24.3623 87.7192C24.5016 88.3554 24.6435 88.9882 24.7872 89.6166L25.328 89.4929ZM24.5032 85.7059C24.374 85.0758 24.2481 84.4425 24.1272 83.8063L23.5825 83.91C23.704 84.549 23.8299 85.1846 23.9597 85.8174L24.5032 85.7059ZM23.7805 81.9017C23.6707 81.2672 23.5659 80.6299 23.4672 79.9916L22.9192 80.0759C23.0185 80.7181 23.1239 81.3587 23.2342 81.9966L23.7805 81.9017ZM23.1915 78.0759C23.1061 77.437 23.0274 76.7969 22.9569 76.1552L22.4056 76.2162C22.4766 76.8624 22.5559 77.5068 22.6419 78.1491L23.1915 78.0759ZM22.7672 74.2301C22.7123 73.5884 22.6657 72.945 22.628 72.3017L22.0745 72.3338C22.1122 72.9827 22.1594 73.6305 22.2148 74.2778L22.7672 74.2307V74.2301ZM22.5432 70.3704C22.526 69.7775 22.5171 69.1841 22.5171 68.5912C22.5171 68.5402 22.5171 68.4892 22.5171 68.4381L21.9625 68.437C21.9625 68.4886 21.9625 68.5396 21.9625 68.5912C21.9625 69.1896 21.9713 69.7881 21.9885 70.3865L22.5432 70.3704ZM22.5548 66.5069C22.5787 65.8635 22.6136 65.2207 22.6607 64.579L22.1072 64.5385C22.0595 65.1869 22.0246 65.8363 22.0007 66.4864L22.5548 66.5069ZM22.8393 62.6572C22.9114 62.0183 22.9963 61.381 23.095 60.7454L22.547 60.66C22.4472 61.3039 22.3612 61.949 22.288 62.5951L22.8393 62.6572ZM23.4317 58.8469C23.5576 58.218 23.6979 57.5907 23.8526 56.9662L23.3147 56.8325C23.1571 57.4653 23.0152 58.101 22.8876 58.7377L23.4317 58.8469ZM24.3612 55.1082C24.5454 54.4959 24.7439 53.8858 24.9591 53.2785L24.4367 53.0932C24.2181 53.7088 24.0163 54.3278 23.8305 54.949L24.3612 55.1082ZM25.648 51.4792C25.8914 50.8891 26.151 50.3023 26.4278 49.7183L25.9264 49.4809C25.6458 50.0733 25.3823 50.6689 25.1355 51.2679L25.648 51.4792ZM27.2969 47.9995C27.5992 47.4388 27.9175 46.8819 28.2536 46.3284L27.7794 46.0406C27.4383 46.6024 27.115 47.1676 26.8088 47.7366L27.2969 47.9995ZM29.2946 44.7078C29.6518 44.182 30.0251 43.6601 30.4161 43.1421L29.9735 42.8076C29.577 43.3334 29.1981 43.8631 28.836 44.3961L29.2946 44.7078ZM31.6136 41.6324C32.0201 41.1449 32.4427 40.6612 32.882 40.1815L32.4732 39.8071C32.0279 40.2929 31.5997 40.7832 31.1876 41.2774L31.6136 41.6324ZM34.2159 38.7905C34.6651 38.3423 35.1293 37.8981 35.6102 37.4583L35.2358 37.0489C34.7494 37.4943 34.2791 37.9441 33.8243 38.3978L34.2159 38.7905ZM37.0594 36.1854C37.5442 35.7766 38.0439 35.3717 38.5586 34.9702L38.2175 34.5331C37.6973 34.9386 37.192 35.3479 36.7017 35.7611L37.0594 36.1854ZM40.1049 33.8204C40.634 33.4522 41.1726 33.1044 41.72 32.7772L41.4349 32.3013C40.8769 32.6352 40.3279 32.9896 39.7882 33.3656L40.1049 33.8204ZM43.4022 31.8476C43.9751 31.5559 44.5558 31.2847 45.1437 31.0334L44.9257 30.5232C44.3267 30.7794 43.7344 31.0562 43.1509 31.3535L43.4022 31.8476ZM46.9357 30.3346C47.5403 30.1211 48.1515 29.9264 48.7682 29.75L48.6157 29.217C47.9884 29.3962 47.3667 29.5942 46.7505 29.8116L46.9357 30.3346ZM50.6334 29.2769C51.259 29.1377 51.8896 29.0163 52.5236 28.912L52.4332 28.3646C51.7893 28.4705 51.1487 28.5942 50.5131 28.7356L50.6334 29.2769ZM54.4315 28.6496C55.0688 28.5798 55.7094 28.5254 56.3516 28.4871L56.3184 27.9331C55.6672 27.9724 55.0172 28.0273 54.3705 28.0989L54.4315 28.6496ZM58.2779 28.4184C58.4448 28.4161 58.6117 28.415 58.7787 28.415C59.254 28.415 59.7299 28.4233 60.2057 28.4389L60.2246 27.8848C59.7426 27.8687 59.2607 27.8604 58.7787 27.8604C58.6095 27.8604 58.4404 27.8615 58.2712 27.8637L58.2779 28.4184ZM62.132 28.5454C62.7731 28.5942 63.4137 28.6574 64.0526 28.7328L64.1181 28.1821C63.4714 28.1055 62.8236 28.0423 62.1747 27.9924L62.132 28.5454ZM65.9644 28.9979C66.6006 29.0989 67.2345 29.212 67.8652 29.3368L67.9728 28.7927C67.3355 28.6668 66.6949 28.552 66.0515 28.45L65.9644 28.9979ZM69.752 29.7473C70.3798 29.8964 71.0038 30.0562 71.6222 30.227L71.7697 29.6923C71.1447 29.5199 70.5141 29.3585 69.8796 29.2076L69.752 29.7473ZM73.4747 30.7733C73.6189 30.8188 73.7625 30.8648 73.9056 30.9109C74.3748 31.0628 74.8424 31.2203 75.3083 31.3834L75.4913 30.8598C75.0215 30.6957 74.5501 30.5365 74.0764 30.3834C73.9317 30.3363 73.7869 30.2902 73.6411 30.2442L73.4747 30.7733ZM77.1225 32.0501C77.7231 32.2808 78.321 32.5215 78.915 32.7711L79.1302 32.2597C78.5307 32.0079 77.9278 31.7655 77.3216 31.532L77.1225 32.0501ZM80.6854 33.5464C81.2716 33.8138 81.854 34.09 82.4319 34.3745L82.6771 33.877C82.0941 33.5897 81.5068 33.3113 80.9156 33.0417L80.6859 33.5464H80.6854ZM84.1529 35.2547C84.722 35.5564 85.2871 35.867 85.8468 36.1859L86.1213 35.7039C85.5567 35.3823 84.9871 35.0695 84.4131 34.765L84.1529 35.2547ZM87.5123 37.1665C88.0625 37.5021 88.6083 37.8454 89.1479 38.197L89.4502 37.7322C88.9061 37.3778 88.3559 37.0312 87.8007 36.6929L87.5123 37.1665ZM90.7519 39.2758C91.2816 39.6435 91.8051 40.019 92.3226 40.4017L92.6526 39.9563C92.1307 39.5697 91.6021 39.1909 91.068 38.8199L90.7519 39.2758ZM93.8589 41.5747C93.9371 41.6368 94.0153 41.6984 94.093 41.7605C94.525 42.1044 94.9615 42.4399 95.403 42.7672L95.7336 42.3223C95.2971 41.9979 94.8656 41.6662 94.4385 41.3262C94.3598 41.2641 94.281 41.2014 94.2022 41.1393L93.8589 41.5747ZM96.9931 43.9008C97.5311 44.2691 98.0752 44.6257 98.6254 44.9718L98.921 44.502C98.3769 44.1598 97.8384 43.8071 97.3065 43.4432L96.9931 43.9008ZM100.297 45.979C100.861 46.3046 101.43 46.619 102.004 46.9235L102.264 46.4332C101.695 46.1321 101.132 45.8209 100.574 45.4987L100.297 45.979ZM103.745 47.8043C104.329 48.0877 104.919 48.36 105.514 48.6229L105.738 48.1154C105.149 47.8553 104.565 47.5852 103.986 47.3051L103.745 47.8043ZM107.31 49.38C107.912 49.6218 108.519 49.8542 109.13 50.0766L109.32 49.5552C108.714 49.3351 108.113 49.1049 107.517 48.8653L107.31 49.38ZM110.971 50.7144C111.586 50.9169 112.206 51.1099 112.83 51.2946L112.987 50.7627C112.369 50.5796 111.754 50.3883 111.144 50.1875L110.971 50.7144ZM114.705 51.8192C115.331 51.9845 115.96 52.1415 116.594 52.2901L116.72 51.7499C116.092 51.6024 115.467 51.4471 114.847 51.2829L114.705 51.8192ZM118.494 52.7089C119.128 52.8398 119.765 52.9623 120.405 53.0777L120.503 52.5314C119.868 52.4171 119.235 52.2957 118.606 52.1653L118.494 52.7089ZM122.324 53.3983C122.963 53.497 123.605 53.5885 124.25 53.6723L124.321 53.1226C123.681 53.0389 123.043 52.9479 122.408 52.8497L122.324 53.3983ZM126.181 53.9024C126.824 53.9717 127.469 54.0339 128.117 54.0899L128.164 53.5369C127.52 53.482 126.879 53.4199 126.24 53.3511L126.181 53.9024ZM130.056 54.2363C130.701 54.2785 131.348 54.3139 131.997 54.3439L132.022 53.7898C131.377 53.7604 130.733 53.7249 130.092 53.6828L130.056 54.2363ZM133.94 54.4138C134.586 54.431 135.234 54.4426 135.884 54.4482L135.888 53.8936C135.242 53.888 134.597 53.8763 133.955 53.8592L133.94 54.4138ZM137.829 54.4476C138.477 54.4421 139.125 54.431 139.775 54.4143L139.761 53.8603C139.114 53.8763 138.469 53.8875 137.825 53.893L137.829 54.4476ZM141.719 54.35C141.971 54.3395 142.224 54.3284 142.476 54.3162C142.876 54.2973 143.274 54.2707 143.669 54.2374L143.621 53.6844C143.234 53.7177 142.843 53.7438 142.449 53.7621C142.199 53.7743 141.947 53.7854 141.697 53.7959L141.719 54.35ZM145.612 54.01C146.261 53.9135 146.903 53.7976 147.538 53.6634L147.423 53.1209C146.799 53.2529 146.169 53.3667 145.531 53.4615L145.612 54.01ZM149.441 53.2008C150.072 53.0278 150.696 52.837 151.313 52.6295L151.136 52.1038C150.529 52.3079 149.915 52.4959 149.294 52.6662L149.441 53.2008ZM153.149 51.9568C153.754 51.7161 154.353 51.4604 154.946 51.1903L154.717 50.6856C154.131 50.9523 153.541 51.2041 152.944 51.441L153.149 51.9568ZM156.704 50.34C157.283 50.0444 157.855 49.7355 158.422 49.4149L158.149 48.9318C157.588 49.2491 157.023 49.5541 156.451 49.8464L156.704 50.34ZM160.101 48.4221C160.653 48.0816 161.201 47.7311 161.743 47.3711L161.436 46.9091C160.898 47.2657 160.357 47.6129 159.81 47.9501L160.101 48.4221ZM163.349 46.2685C163.879 45.8941 164.404 45.5114 164.924 45.1221L164.592 44.6778C164.075 45.0644 163.554 45.4443 163.029 45.8159L163.349 46.2685ZM166.47 43.938C166.98 43.5375 167.486 43.1315 167.989 42.7217L167.639 42.2918C167.139 42.7 166.635 43.1033 166.128 43.5015L166.47 43.938ZM169.487 41.4793C169.984 41.0606 170.477 40.639 170.967 40.2153L170.604 39.796C170.115 40.2181 169.624 40.6385 169.13 41.055L169.487 41.4793ZM172.432 38.9352C172.919 38.5054 173.404 38.0744 173.886 37.644L173.516 37.2303C173.035 37.6607 172.551 38.0905 172.065 38.5192L172.432 38.9352ZM175.334 36.3451C175.817 35.9108 176.298 35.4771 176.777 35.0467L176.406 34.6341C175.927 35.065 175.446 35.4987 174.963 35.933L175.334 36.3451ZM178.22 33.7533C178.701 33.3251 179.185 32.8975 179.672 32.4716L179.306 32.054C178.819 32.4816 178.334 32.9097 177.851 33.3396L178.22 33.7533ZM181.134 31.2015C181.623 30.7811 182.115 30.3623 182.609 29.9458L182.252 29.5215C181.756 29.9391 181.263 30.3596 180.772 30.7811L181.135 31.2015H181.134ZM184.097 28.7057C184.596 28.2952 185.096 27.887 185.6 27.4827L185.253 27.0501C184.747 27.4566 184.244 27.8654 183.745 28.2775L184.097 28.7057ZM187.118 26.2786C187.627 25.8809 188.138 25.4866 188.653 25.0961L188.317 24.6541C187.801 25.0462 187.287 25.4422 186.776 25.8421L187.118 26.2786ZM190.204 23.9364C190.725 23.5532 191.248 23.1749 191.775 22.8016L191.454 22.3491C190.924 22.7245 190.399 23.105 189.876 23.4894L190.204 23.9364ZM193.364 21.694C193.897 21.3291 194.434 20.9697 194.973 20.6158L194.669 20.1522C194.126 20.5077 193.587 20.8693 193.051 21.2359L193.364 21.694ZM196.603 19.5698C197.15 19.2265 197.7 18.8893 198.254 18.5582L197.969 18.0823C197.412 18.4151 196.858 18.7545 196.308 19.1L196.603 19.5698ZM199.927 17.5831C200.488 17.2648 201.053 16.9531 201.621 16.6486L201.359 16.16C200.787 16.4661 200.218 16.7801 199.653 17.1012L199.927 17.5831ZM203.338 15.7562C203.914 15.4661 204.494 15.1833 205.077 14.9093L204.841 14.4073C204.253 14.6841 203.669 14.9686 203.089 15.2609L203.338 15.7562ZM206.838 14.1106C207.428 13.8533 208.022 13.6037 208.62 13.3635L208.413 12.8488C207.811 13.0912 207.211 13.3425 206.616 13.6026L206.838 14.1106ZM210.423 12.6708C211.027 12.4489 211.635 12.2371 212.247 12.0347L212.072 11.5083C211.455 11.7124 210.842 11.9265 210.232 12.15L210.423 12.6708ZM214.088 11.4589C214.704 11.2776 215.324 11.1062 215.948 10.9454L215.809 10.4085C215.179 10.571 214.553 10.744 213.931 10.927L214.088 11.4589ZM217.822 10.4972C218.447 10.3591 219.077 10.2316 219.71 10.1156L219.61 9.57042C218.97 9.68745 218.334 9.81612 217.702 9.95534L217.822 10.4972H217.822ZM221.615 9.80228C222.249 9.71021 222.887 9.62865 223.529 9.55933L223.469 9.00803C222.821 9.07791 222.175 9.16 221.535 9.25374L221.615 9.80228ZM225.452 9.38795C226.095 9.34303 226.737 9.31529 227.376 9.30476L227.367 8.7507C226.718 8.76068 226.066 8.78897 225.413 8.83501L225.452 9.38795ZM229.305 9.32582C229.949 9.35023 230.59 9.3924 231.228 9.45119L231.279 8.89877C230.631 8.83888 229.98 8.79672 229.326 8.77176L229.305 9.32582ZM233.142 9.68024C233.779 9.77397 234.412 9.88492 235.04 10.0125L235.15 9.46838C234.513 9.33916 233.87 9.2271 233.223 9.1317L233.142 9.68024ZM236.917 10.4462C237.54 10.6081 238.158 10.7867 238.769 10.9809L238.937 10.4523C238.316 10.2548 237.69 10.074 237.057 9.9093L236.917 10.4462ZM240.588 11.6148C241.189 11.8427 241.783 12.0862 242.37 12.3458L242.595 11.8383C241.998 11.5749 241.395 11.3275 240.784 11.0962L240.588 11.6148ZM244.11 13.1716C244.683 13.4623 245.247 13.769 245.803 14.0901L246.081 13.6103C245.516 13.2836 244.943 12.9725 244.362 12.6769L244.11 13.1716ZM247.443 15.099C247.98 15.45 248.508 15.8156 249.026 16.1955L249.354 15.7484C248.828 15.3624 248.292 14.9914 247.747 14.6347L247.443 15.099ZM250.546 17.3768C251.042 17.7834 251.526 18.2043 251.999 18.6386L252.374 18.2304C251.894 17.7889 251.401 17.3613 250.898 16.9481L250.546 17.3768ZM253.381 19.9786C253.828 20.4373 254.263 20.9087 254.686 21.3929L255.103 21.0279C254.674 20.536 254.232 20.0573 253.778 19.5915L253.381 19.9786ZM255.91 22.8759C256.303 23.3807 256.683 23.897 257.049 24.425L257.505 24.1089C257.133 23.572 256.747 23.0473 256.347 22.5349L255.91 22.8759ZM258.102 26.0346C258.436 26.5792 258.757 27.1349 259.063 27.7018L259.551 27.4383C259.24 26.8626 258.914 26.2975 258.574 25.7439L258.101 26.0346H258.102ZM259.931 29.4206C260.202 29.9985 260.46 30.5864 260.702 31.1843L261.216 30.9763C260.97 30.369 260.709 29.7717 260.433 29.1843L259.931 29.4206ZM261.389 32.9885C261.61 33.5969 261.821 34.207 262.023 34.8193L262.55 34.6446C262.346 34.0279 262.133 33.4128 261.91 32.7994L261.389 32.9885ZM262.608 36.6657C262.795 37.2846 262.974 37.9047 263.146 38.5265L263.68 38.3789C263.507 37.7533 263.327 37.1288 263.139 36.5054L262.608 36.6657ZM263.64 40.3994C263.799 41.0256 263.95 41.6535 264.096 42.2824L264.636 42.1571C264.49 41.5248 264.337 40.8936 264.178 40.2636L263.64 40.3994ZM264.516 44.1737C264.651 44.8054 264.781 45.4388 264.906 46.0722L265.45 45.9646C265.324 45.3284 265.194 44.6928 265.059 44.0578L264.516 44.1737ZM265.27 47.9768C265.387 48.6124 265.5 49.2491 265.611 49.8858L266.157 49.791C266.047 49.1526 265.933 48.5142 265.815 47.8758L265.27 47.9768ZM265.935 51.7987C266.04 52.4377 266.144 53.076 266.246 53.715L266.794 53.6273C266.692 52.9878 266.588 52.3483 266.482 51.7083L265.935 51.7987ZM266.548 55.6334C266.649 56.2735 266.748 56.9135 266.847 57.553L267.395 57.4681C267.296 56.8281 267.197 56.188 267.096 55.5474L266.548 55.6334ZM267.147 59.4736C267.248 60.1143 267.349 60.7549 267.452 61.3943L268 61.3056C267.897 60.6672 267.795 60.0277 267.695 59.3877L267.147 59.4736ZM267.768 63.3139C267.875 63.9539 267.985 64.5934 268.098 65.2318L268.644 65.1348C268.532 64.4986 268.422 63.8608 268.315 63.2218L267.768 63.3139ZM268.449 67.1464C268.57 67.7848 268.694 68.4215 268.824 69.0571L269.368 68.9462C269.238 68.3133 269.114 67.6794 268.994 67.0432L268.449 67.1464ZM269.229 70.9622C269.37 71.5962 269.516 72.229 269.669 72.8596L270.208 72.7287C270.056 72.102 269.911 71.473 269.771 70.8419L269.229 70.9622ZM270.147 74.747C270.314 75.3749 270.488 75.9999 270.67 76.6233L271.202 76.4675C271.022 75.8491 270.849 75.2279 270.683 74.605L270.147 74.747ZM271.241 78.4841C271.439 79.1014 271.647 79.7159 271.864 80.3277L272.387 80.1419C272.171 79.5357 271.966 78.9261 271.769 78.3144L271.241 78.4841ZM272.543 82.1496C272.779 82.7536 273.026 83.3548 273.284 83.9527L273.793 83.7331C273.538 83.1413 273.294 82.5462 273.06 81.9477L272.543 82.1496ZM274.088 85.7292C274.365 86.3143 274.654 86.8961 274.957 87.4746L275.448 87.2184C275.15 86.646 274.863 86.0703 274.589 85.4913L274.088 85.7292ZM275.892 89.1862C276.213 89.7475 276.547 90.3049 276.894 90.859L277.364 90.5645C277.02 90.017 276.69 89.4652 276.373 88.9105L275.892 89.1862ZM277.963 92.4907C278.327 93.0231 278.705 93.5517 279.097 94.0769L279.542 93.7452C279.154 93.2261 278.781 92.7037 278.42 92.1773L277.963 92.4907ZM280.296 95.616C280.702 96.1163 281.121 96.6127 281.556 97.1057L281.972 96.7391C281.542 96.2522 281.127 95.7608 280.726 95.2666L280.296 95.616ZM282.86 98.5505C283.301 99.032 283.741 99.5073 284.181 99.9759L284.586 99.5966C284.147 99.129 283.708 98.6559 283.269 98.1756L282.86 98.5505ZM285.517 101.386C285.969 101.858 286.419 102.324 286.867 102.784L287.264 102.397C286.817 101.938 286.368 101.473 285.918 101.003L285.517 101.386ZM288.228 104.171C288.685 104.634 289.142 105.093 289.596 105.548L289.989 105.156C289.535 104.701 289.079 104.243 288.622 103.781L288.227 104.171H288.228ZM290.97 106.92C291.431 107.379 291.889 107.834 292.346 108.288L292.737 107.894C292.28 107.441 291.822 106.985 291.361 106.527L290.97 106.92ZM293.721 109.656C294.181 110.115 294.638 110.572 295.092 111.028L295.486 110.637C295.03 110.179 294.573 109.722 294.113 109.264L293.721 109.656ZM296.458 112.409C296.912 112.872 297.364 113.335 297.811 113.8L298.211 113.415C297.761 112.949 297.309 112.484 296.854 112.021L296.458 112.409ZM299.148 115.204C299.59 115.674 300.029 116.147 300.465 116.624L300.874 116.249C300.437 115.771 299.996 115.296 299.552 114.824L299.148 115.204ZM301.757 118.062C302.182 118.545 302.604 119.031 303.021 119.523L303.444 119.164C303.024 118.67 302.6 118.18 302.173 117.696L301.757 118.062ZM304.256 121.011C304.66 121.51 305.061 122.015 305.456 122.527L305.895 122.188C305.497 121.672 305.094 121.164 304.686 120.662L304.256 121.012V121.011ZM306.619 124.071C306.998 124.588 307.371 125.112 307.741 125.645L308.197 125.329C307.825 124.792 307.448 124.264 307.066 123.743L306.619 124.071ZM308.819 127.248C309.169 127.782 309.513 128.326 309.853 128.879L310.326 128.589C309.983 128.031 309.636 127.483 309.284 126.944L308.819 127.248ZM310.839 130.54C311.158 131.093 311.471 131.655 311.779 132.228L312.267 131.966C311.956 131.388 311.641 130.821 311.32 130.264L310.839 130.54ZM312.67 133.942C312.956 134.512 313.237 135.091 313.513 135.681L314.015 135.446C313.737 134.851 313.453 134.267 313.166 133.693L312.67 133.942ZM314.309 137.442C314.563 138.025 314.812 138.619 315.058 139.223L315.572 139.015C315.325 138.406 315.073 137.808 314.817 137.22L314.309 137.442ZM315.761 141.024C315.872 141.318 315.983 141.616 316.091 141.916C316.203 142.224 316.31 142.532 316.413 142.841L316.939 142.666C316.835 142.352 316.726 142.039 316.613 141.727C316.503 141.424 316.392 141.125 316.28 140.828L315.761 141.024ZM316.97 144.685C317.141 145.306 317.293 145.93 317.428 146.556L317.971 146.438C317.833 145.803 317.678 145.17 317.506 144.539L316.97 144.685ZM317.786 148.449C317.889 149.084 317.974 149.721 318.043 150.358L318.594 150.298C318.524 149.651 318.437 149.005 318.334 148.36L317.786 148.449ZM318.2 152.278C318.236 152.92 318.255 153.562 318.259 154.204L318.813 154.201C318.81 153.55 318.79 152.899 318.754 152.247L318.2 152.278ZM318.22 156.131C318.192 156.773 318.147 157.414 318.087 158.054L318.639 158.105C318.7 157.457 318.745 156.807 318.775 156.156L318.22 156.131ZM317.861 159.968C317.771 160.603 317.665 161.237 317.545 161.869L318.09 161.973C318.212 161.333 318.319 160.69 318.41 160.046L317.861 159.968ZM317.142 163.754C316.993 164.379 316.83 165.001 316.653 165.619L317.187 165.771C317.365 165.145 317.53 164.515 317.681 163.882L317.142 163.754ZM316.082 167.46C315.878 168.07 315.661 168.675 315.431 169.276L315.949 169.474C316.182 168.866 316.402 168.253 316.608 167.636L316.082 167.46ZM314.703 171.062C314.448 171.651 314.18 172.236 313.9 172.815L314.399 173.057C314.682 172.47 314.954 171.878 315.212 171.282L314.703 171.062ZM313.024 174.534C312.72 175.1 312.405 175.661 312.077 176.215L312.555 176.497C312.886 175.937 313.206 175.369 313.513 174.796L313.024 174.534ZM311.062 177.856C310.713 178.396 310.353 178.929 309.981 179.454L310.433 179.775C310.809 179.243 311.174 178.704 311.528 178.157L311.062 177.856ZM308.835 181.007C308.442 181.517 308.039 182.018 307.626 182.511L308.051 182.868C308.469 182.369 308.877 181.861 309.274 181.345L308.835 181.007ZM306.356 183.965C305.922 184.441 305.479 184.907 305.026 185.364L305.421 185.754C305.878 185.292 306.327 184.82 306.766 184.338L306.356 183.965ZM303.64 186.706C303.168 187.144 302.687 187.572 302.198 187.989L302.557 188.411C303.052 187.989 303.539 187.556 304.017 187.113L303.64 186.706ZM300.701 189.208C300.194 189.603 299.678 189.988 299.154 190.36L299.475 190.812C300.006 190.435 300.528 190.046 301.043 189.645L300.701 189.208ZM297.557 191.441C297.016 191.79 296.468 192.126 295.913 192.45L296.192 192.929C296.755 192.602 297.31 192.261 297.857 191.908L297.557 191.441ZM294.222 193.383C293.651 193.684 293.076 193.975 292.498 194.256L292.74 194.754C293.324 194.471 293.904 194.178 294.481 193.874L294.222 193.383ZM290.745 195.07C290.156 195.332 289.563 195.584 288.967 195.826L289.176 196.34C289.777 196.096 290.375 195.841 290.97 195.577L290.745 195.07ZM287.166 196.526C286.561 196.75 285.953 196.965 285.343 197.17L285.52 197.695C286.135 197.488 286.748 197.272 287.358 197.046L287.166 196.526ZM283.502 197.759C282.886 197.946 282.266 198.124 281.644 198.294L281.79 198.829C282.417 198.658 283.041 198.478 283.663 198.289L283.502 197.759ZM279.773 198.777C279.147 198.929 278.518 199.073 277.888 199.209L278.005 199.751C278.64 199.614 279.273 199.469 279.904 199.315L279.773 198.777ZM275.993 199.593C275.36 199.713 274.725 199.825 274.089 199.93L274.179 200.477C274.82 200.372 275.459 200.259 276.096 200.138L275.993 199.593ZM272.176 200.222C271.539 200.313 270.899 200.395 270.258 200.472L270.323 201.022C270.968 200.946 271.612 200.862 272.254 200.772L272.176 200.222ZM268.334 200.68C267.693 200.743 267.05 200.799 266.407 200.849L266.449 201.403C267.097 201.352 267.743 201.295 268.388 201.232L268.334 200.68ZM264.475 200.982C263.832 201.02 263.187 201.052 262.542 201.079L262.565 201.633C263.214 201.606 263.861 201.573 264.508 201.535L264.475 200.982ZM260.607 201.142C259.962 201.158 259.316 201.17 258.671 201.175L258.676 201.73C259.324 201.724 259.972 201.713 260.621 201.697L260.607 201.142ZM256.733 201.178C256.088 201.175 255.442 201.166 254.796 201.153L254.785 201.708C255.434 201.721 256.082 201.729 256.73 201.733L256.733 201.178ZM252.859 201.103C252.214 201.082 251.568 201.056 250.923 201.027L250.898 201.582C251.545 201.611 252.193 201.636 252.841 201.657L252.859 201.103ZM248.987 200.93C248.342 200.894 247.697 200.854 247.052 200.811L247.016 201.365C247.662 201.408 248.308 201.447 248.956 201.484L248.987 200.93ZM245.119 200.673C244.474 200.624 243.829 200.572 243.186 200.517L243.139 201.07C243.784 201.125 244.43 201.177 245.077 201.226L245.119 200.673ZM241.255 200.345C240.61 200.284 239.967 200.222 239.325 200.157L239.269 200.709C239.912 200.774 240.558 200.837 241.203 200.897L241.255 200.345ZM237.395 199.957C236.751 199.888 236.108 199.817 235.467 199.745L235.405 200.295C236.047 200.368 236.691 200.439 237.336 200.508L237.396 199.957H237.395ZM233.54 199.522C232.896 199.446 232.254 199.369 231.614 199.29L231.546 199.841C232.187 199.919 232.83 199.996 233.475 200.072L233.54 199.522ZM229.687 199.052C229.043 198.972 228.402 198.89 227.762 198.808L227.692 199.358C228.332 199.44 228.974 199.522 229.619 199.602L229.687 199.052ZM225.839 198.557C225.198 198.472 224.558 198.384 223.918 198.294L223.84 198.843C224.482 198.933 225.123 199.021 225.766 199.107L225.839 198.557Z" fill="#AEBAD3"/>
<path d="M81.6372 78.9897C81.6172 78.6204 81.5845 78.2271 81.5352 77.8073C81.1314 74.3669 78.6278 74.6831 77.0693 74.7873C75.5108 74.8916 73.5735 74.9471 72.828 73.347C72.5036 72.6503 72.518 71.8101 72.305 71.0575C71.833 69.3891 70.2568 68.3891 68.7504 68.3858C67.2446 68.3825 65.8198 69.195 64.5863 70.2022C63.9451 70.7252 63.223 71.3381 62.4593 71.1412C61.9706 71.0147 61.5879 70.5733 61.284 70.109C59.4987 67.3814 59.5103 63.4158 57.5558 60.8512C55.3989 58.0198 51.3689 57.9621 48.6413 60.0176C45.9136 62.0725 44.3473 65.7347 43.633 69.4302C43.4006 70.6315 43.1998 71.9487 42.4122 72.7685C41.2869 73.9398 39.5642 73.5522 38.0617 73.3935C36.3185 73.2094 34.4594 73.4773 33.0446 74.6797C31.8909 75.6597 31.14 77.3758 31.2831 78.9897H81.6372Z" fill="white"/>
<path d="M81.6375 78.9908L81.9142 78.9763C81.8943 78.6008 81.861 78.2015 81.8111 77.7761C81.6519 76.3929 81.1433 75.5299 80.4561 75.0429C79.7706 74.5559 78.9592 74.4544 78.2249 74.4533C77.8 74.4539 77.3963 74.4883 77.0507 74.5116C76.7002 74.5349 76.3341 74.5559 75.9714 74.5559C75.3513 74.5565 74.7412 74.4938 74.2387 74.2964C73.7351 74.0967 73.3391 73.7817 73.0796 73.2309C72.7867 72.617 72.7945 71.7906 72.5721 70.983C72.0585 69.1821 70.3746 68.1145 68.7518 68.1095H68.7418C67.1356 68.1123 65.6653 68.9664 64.4107 69.9886C64.1318 70.2165 63.8456 70.4528 63.5638 70.6253C63.281 70.7994 63.0092 70.9037 62.7585 70.9026C62.682 70.9026 62.606 70.8932 62.5289 70.8738C62.1617 70.785 61.8051 70.4057 61.5161 69.9581C60.6565 68.6475 60.215 67.0008 59.7508 65.3447C59.2843 63.6902 58.7951 62.0236 57.7768 60.6841C56.5439 59.0641 54.7164 58.3087 52.8661 58.3103C51.3254 58.3103 49.7624 58.8272 48.4746 59.7967C45.6621 61.9215 44.0853 65.6453 43.3609 69.3785C43.2439 69.983 43.1369 70.6037 42.966 71.1622C42.7952 71.7218 42.5628 72.2137 42.2123 72.5776C41.9366 72.8638 41.6283 73.0418 41.285 73.1538C40.9411 73.2659 40.5617 73.308 40.1602 73.3075C39.4974 73.308 38.7814 73.1921 38.0914 73.1189C37.7592 73.084 37.422 73.0645 37.0842 73.0645C35.6006 73.064 34.082 73.4356 32.8651 74.4694C31.7387 75.4306 30.9916 77.0124 30.9883 78.5936C30.9883 78.7345 30.9944 78.8754 31.0071 79.0152C31.0199 79.1588 31.1391 79.2681 31.2833 79.2681H81.6375C81.7135 79.2681 81.7861 79.237 81.8383 79.1815C81.8909 79.1266 81.9181 79.0523 81.9142 78.9763L81.6375 78.9908V78.7134H31.2833V78.9908L31.5596 78.9663C31.5485 78.8432 31.5429 78.7184 31.5429 78.5936C31.5396 77.1904 32.2323 75.7306 33.2245 74.892C34.3127 73.9664 35.6888 73.6197 37.0842 73.6192C37.4014 73.6192 37.7187 73.6369 38.0332 73.6702C38.7015 73.7406 39.4353 73.8615 40.1602 73.8621C40.5994 73.8621 41.0376 73.8172 41.4558 73.6818C41.874 73.5465 42.2716 73.3169 42.6127 72.9614C43.0498 72.5055 43.3116 71.9287 43.4963 71.3241C43.6809 70.719 43.7897 70.0806 43.9056 69.4839C44.61 65.8261 46.1662 62.2254 48.8085 60.2399C49.9987 59.343 51.4496 58.8644 52.8661 58.865C54.57 58.8666 56.2133 59.5488 57.3359 61.0202C58.2716 62.2454 58.7541 63.8439 59.2166 65.495C59.682 67.1444 60.1268 68.8449 61.0525 70.2615C61.3714 70.7429 61.7801 71.2459 62.3902 71.4106C62.5139 71.4423 62.637 71.4572 62.7585 71.4572C63.1606 71.4561 63.5244 71.2992 63.8533 71.0984C64.1828 70.8965 64.4845 70.6441 64.7618 70.4179C65.9698 69.4301 67.3431 68.6608 68.7418 68.6641H68.7501C70.1389 68.6658 71.6081 69.5976 72.0385 71.1339C72.2421 71.831 72.221 72.6857 72.5771 73.465C72.8943 74.1522 73.4323 74.5798 74.0369 74.8133C74.6425 75.049 75.3158 75.11 75.9714 75.1106C76.3552 75.1106 76.7335 75.0889 77.0879 75.0651C77.4406 75.0412 77.8305 75.008 78.2249 75.008C78.9104 75.0074 79.597 75.11 80.1339 75.4944C80.6691 75.8782 81.1062 76.5543 81.2603 77.841C81.3086 78.2547 81.3408 78.6424 81.3602 79.0057L81.6375 78.9908Z" fill="#AEBAD3"/>
<path d="M232.879 52.479H308.145C308.145 52.479 306.778 47.7985 301.951 45.7991C297.717 44.0448 296.263 46.5944 294.501 44.8323C293.664 43.9943 294.38 36.4624 287.736 36.4624C281.094 36.4624 279.676 40.0892 276.614 38.6538C273.927 37.3937 274.01 32.3532 271.297 28.1386C268.646 24.0194 262.182 21.4853 257.774 23.6333C249.719 27.5584 250.765 33.803 248.127 35.8612C245.524 37.8928 239.551 30.7398 232.879 38.4741C228.278 43.8068 232.879 52.479 232.879 52.479Z" fill="white"/>
<path d="M232.881 52.4781V52.7554H308.147C308.234 52.7554 308.316 52.7143 308.368 52.6444C308.421 52.5746 308.437 52.4841 308.413 52.4004C308.407 52.3821 308.058 51.1874 307.091 49.7343C306.125 48.2823 304.537 46.5679 302.06 45.5419C300.821 45.0283 299.798 44.8697 298.937 44.8702C297.644 44.8735 296.721 45.2163 296.013 45.2091C295.539 45.2035 295.166 45.0932 294.699 44.6351C294.668 44.614 294.578 44.4326 294.513 44.162C294.39 43.6866 294.281 42.9451 294.099 42.1126C293.824 40.863 293.386 39.3938 292.431 38.2169C291.478 37.0372 289.986 36.1792 287.739 36.1842C284.924 36.1825 283.01 36.8303 281.541 37.4709C280.807 37.7909 280.183 38.1071 279.616 38.3372C279.048 38.5685 278.542 38.7122 278.03 38.7116C277.624 38.7116 277.209 38.624 276.735 38.4021C276.13 38.1182 275.67 37.6196 275.274 36.9324C274.679 35.9047 274.254 34.472 273.729 32.8969C273.202 31.3212 272.571 29.6007 271.533 27.9873C269.477 24.8071 265.284 22.5803 261.378 22.5736C260.074 22.5736 258.801 22.8248 257.654 23.3834C253.569 25.37 251.758 27.9851 250.67 30.3295C250.125 31.5009 249.754 32.6035 249.362 33.5247C248.969 34.4482 248.556 35.1775 247.958 35.6418C247.666 35.8692 247.329 35.9612 246.905 35.9629C246.127 35.9668 245.095 35.6146 243.907 35.2463C242.718 34.8808 241.362 34.5059 239.884 34.5059C237.663 34.5009 235.182 35.3733 232.671 38.2923C231.083 40.132 230.557 42.3561 230.559 44.4742C230.562 48.7127 232.628 52.5879 232.636 52.6084C232.684 52.6988 232.778 52.7554 232.881 52.7554V52.4781L233.126 52.3483L233.105 52.3072C232.887 51.889 231.11 48.2806 231.113 44.4742C231.114 42.4426 231.612 40.3694 233.09 38.6545C235.532 35.8331 237.81 35.0655 239.884 35.0605C241.267 35.06 242.567 35.4138 243.744 35.7765C244.924 36.137 245.972 36.5136 246.905 36.5175C247.41 36.5186 247.894 36.3972 248.299 36.0788C249.021 35.5142 249.466 34.6911 249.872 33.7422C250.478 32.3151 251.001 30.5769 252.114 28.8326C253.226 27.0899 254.92 25.3345 257.897 23.882C258.956 23.3656 260.145 23.1282 261.378 23.1282C265.074 23.1216 269.145 25.2902 271.066 28.2874C272.396 30.3512 273.049 32.6373 273.705 34.5919C274.034 35.5691 274.364 36.4632 274.794 37.2097C275.222 37.954 275.76 38.558 276.499 38.9041C277.036 39.1564 277.542 39.2668 278.03 39.2662C278.648 39.2662 279.227 39.0938 279.825 38.8508C281.618 38.1204 283.641 36.7427 287.739 36.7388C289.348 36.7405 290.475 37.1892 291.305 37.8658C292.549 38.8797 293.136 40.4543 293.477 41.8797C293.648 42.5912 293.757 43.2607 293.866 43.802C293.919 44.0732 293.973 44.3123 294.037 44.5147C294.103 44.7171 294.171 44.8869 294.307 45.0277C294.849 45.5779 295.433 45.7698 296.013 45.7637C296.88 45.7571 297.744 45.4215 298.937 45.4248C299.73 45.4254 300.67 45.5668 301.847 46.0543C304.197 47.0277 305.705 48.6533 306.629 50.0416C307.091 50.7349 307.405 51.3682 307.603 51.8258C307.702 52.0543 307.772 52.2396 307.817 52.366C307.84 52.4292 307.856 52.4775 307.866 52.5102L307.88 52.5557L308.147 52.4781V52.2007H232.881V52.4781Z" fill="#AEBAD3"/>
<path d="M154.448 13.126H154.171C154.169 14.1049 153.377 14.8963 152.399 14.898C151.421 14.8963 150.629 14.1049 150.627 13.126C150.629 12.1476 151.421 11.3562 152.399 11.3545C153.377 11.3562 154.169 12.1476 154.171 13.126H154.448H154.726C154.725 11.8409 153.684 10.7999 152.399 10.7999C151.114 10.7999 150.073 11.8409 150.072 13.126C150.073 14.4111 151.114 15.4526 152.399 15.4526C153.684 15.4526 154.725 14.4111 154.726 13.126H154.448Z" fill="#A0AECC"/>
<path d="M296.542 162.239H296.265C296.262 163.217 295.471 164.009 294.493 164.01C293.514 164.009 292.722 163.217 292.721 162.239C292.722 161.26 293.514 160.468 294.493 160.467C295.471 160.468 296.262 161.26 296.265 162.239H296.542H296.819C296.819 160.954 295.778 159.912 294.493 159.912C293.208 159.912 292.166 160.954 292.166 162.239C292.166 163.523 293.208 164.565 294.493 164.565C295.778 164.565 296.819 163.524 296.819 162.239H296.542Z" fill="#A0AECC"/>
<path d="M278.204 63.5289H277.927C277.925 64.5072 277.133 65.2987 276.155 65.3004C275.176 65.2987 274.384 64.5072 274.383 63.5289C274.384 62.5505 275.176 61.7585 276.155 61.7568C277.133 61.7585 277.925 62.5505 277.927 63.5289H278.204H278.481C278.481 62.2438 277.44 61.2022 276.155 61.2022C274.87 61.2022 273.828 62.2438 273.828 63.5289C273.828 64.8139 274.87 65.855 276.155 65.855C277.44 65.855 278.481 64.8139 278.481 63.5289H278.204Z" fill="#A0AECC"/>
<path d="M5.42256 149.185H5.1453C5.14353 150.163 4.35191 150.955 3.37349 150.957C2.3949 150.955 1.60322 150.163 1.6015 149.185C1.60322 148.206 2.3949 147.415 3.37349 147.413C4.35191 147.415 5.14353 148.206 5.1453 149.185H5.42256H5.69988C5.69988 147.899 4.65845 146.858 3.37349 146.858C2.0883 146.858 1.0471 147.899 1.04688 149.185C1.0471 150.47 2.0883 151.511 3.37349 151.511C4.65845 151.511 5.69988 150.47 5.69988 149.185H5.42256Z" fill="#AEBAD3"/>
<path d="M137.409 6.5542H135.542C135.207 6.5542 134.936 6.28243 134.936 5.94744V4.08112C134.936 3.74612 135.207 3.47436 135.542 3.47436H137.409C137.744 3.47436 138.015 3.74612 138.015 4.08112V5.94744C138.015 6.28243 137.744 6.5542 137.409 6.5542Z" fill="#EDF2F6"/>
<path d="M29.7563 161.312H27.89C27.555 161.312 27.2832 161.04 27.2832 160.705V158.839C27.2832 158.504 27.555 158.232 27.89 158.232H29.7563C30.0913 158.232 30.3631 158.504 30.3631 158.839V160.705C30.3631 161.04 30.0913 161.312 29.7563 161.312Z" fill="#EDF2F6"/>
<path d="M38.1014 46.7095H36.2357C35.9007 46.7095 35.6289 46.4382 35.6289 46.1027V44.2369C35.6289 43.9019 35.9007 43.6302 36.2357 43.6302H38.1014C38.4364 43.6302 38.7082 43.9019 38.7082 44.2369V46.1027C38.7082 46.4382 38.4364 46.7095 38.1014 46.7095Z" fill="#EDF2F6"/>
<path d="M295.458 94.9849H291.878C291.234 94.9849 290.713 94.4635 290.713 93.8207V90.24C290.713 89.5966 291.234 89.0759 291.878 89.0759H295.458C296.101 89.0759 296.622 89.5966 296.622 90.24V93.8207C296.622 94.4635 296.101 94.9849 295.458 94.9849Z" fill="#EDF2F6"/>
<path d="M277.09 113.539H275.224C274.888 113.539 274.617 113.267 274.617 112.932V111.066C274.617 110.73 274.888 110.459 275.224 110.459H277.09C277.425 110.459 277.696 110.73 277.696 111.066V112.932C277.696 113.267 277.425 113.539 277.09 113.539Z" fill="#EDF2F6"/>
<path d="M294.601 188.238H292.736C292.4 188.238 292.129 187.966 292.129 187.631V185.765C292.129 185.43 292.4 185.158 292.736 185.158H294.601C294.936 185.158 295.208 185.43 295.208 185.765V187.631C295.208 187.966 294.936 188.238 294.601 188.238Z" fill="#EDF2F6"/>
<path d="M35.9685 127.293L8.31811 134.179L0.0488281 115.178L33.3463 106.403L35.9685 127.293Z" fill="#A9BBE5"/>
<path d="M33.3463 106.403L0.0488281 115.178L13.0901 97.1029L33.3463 106.403Z" fill="#A9BBE5"/>
<path d="M32.3591 125.101L9.63432 131.089L4.57617 111.894L27.3003 105.905L32.3591 125.101Z" fill="white"/>
<path d="M0.0488281 115.178L5.75351 136.827L19.7512 122.38L0.0488281 115.178Z" fill="#E0EFFA"/>
<path d="M33.345 106.403L39.05 128.051L19.75 122.379L33.345 106.403Z" fill="#E0EFFA"/>
<path d="M39.0516 128.052L5.75391 136.827L18.7954 118.751L39.0516 128.052Z" fill="#E0EFFA"/>
<path d="M5.86385 136.908L18.8388 118.925L38.9907 128.178L39.1066 127.926L18.851 118.625C18.7906 118.598 18.719 118.617 18.6808 118.67L5.63867 136.746L5.86385 136.908Z" fill="#A9BBE5"/>
<path d="M21.807 120.175L33.4503 106.493L33.239 106.313L21.5957 119.996" fill="#A9BBE5"/>
<path d="M16.9719 121.216L0.0951202 115.048L0 115.308L16.8765 121.477" fill="#A9BBE5"/>
<path d="M285.201 138.517L308.883 142.453L314.558 125.942L286.008 120.797L285.201 138.517Z" fill="#A9BBE5"/>
<path d="M286.006 120.798L314.556 125.943L302.396 111.633L286.006 120.798Z" fill="#A9BBE5"/>
<path d="M288.082 136.434L307.567 139.946L310.533 123.487L291.048 119.976L288.082 136.434Z" fill="white"/>
<path d="M314.558 125.942L311.213 144.503L298.492 133.305L314.558 125.942Z" fill="#E0EFFA"/>
<path d="M286.007 120.797L282.662 139.359L298.492 133.306L286.007 120.797Z" fill="#E0EFFA"/>
<path d="M282.662 139.359L311.213 144.504L299.052 130.196L282.662 139.359Z" fill="#E0EFFA"/>
<path d="M311.317 144.415L299.158 130.106C299.114 130.055 299.042 130.042 298.984 130.074L282.594 139.238L282.73 139.48L299.02 130.372L311.106 144.594L311.317 144.415Z" fill="#A9BBE5"/>
<path d="M296.797 131.413L286.105 120.699L285.908 120.896L296.601 131.609" fill="#A9BBE5"/>
<path d="M300.854 132.376L314.615 126.069L314.5 125.816L300.738 132.124" fill="#A9BBE5"/>
<path d="M233.156 215.806C245.295 191.2 255.829 184.691 265.725 186.658C273.418 188.186 280.338 197.603 260.025 215.792" fill="#C8EBDB"/>
<path opacity="0.2" d="M89.3513 215.906C81.2565 206.465 64.3099 182.614 78.9981 174.406C87.064 169.898 97.7567 174 102.926 183.94C107.836 193.38 109.714 204.532 111.761 215.773" fill="#12C475"/>
<path d="M136.668 215.8C120.231 185.985 109.616 156.425 122.878 142.383C136.02 128.468 149.766 144.957 153.11 159.567C157.207 177.462 157.801 196.832 157.72 215.8" fill="#C8EBDB"/>
<path d="M111.609 215.905C105.187 205.401 92.6271 181.415 105.785 172.911C113.009 168.241 124.244 173.975 129.193 184.274C133.893 194.054 134.469 204.122 136.609 215.767" fill="#C8EBDB"/>
<path d="M157.408 215.806C151.868 152.332 165.352 129.142 180.102 128.101C187.089 127.609 207.557 131.632 182.845 215.768" fill="#C8EBDB"/>
<path d="M182.977 128.247L169.943 215.767L182.977 128.247Z" fill="#C8EBDB"/>
<path d="M203.629 215.806C208.75 173.048 224.973 151.677 241.584 155.094C254.498 157.751 258.99 177.159 235.179 215.781" fill="#C8EBDB"/>
<path d="M109.539 171.444L124.428 215.935L109.539 171.444Z" fill="#F39DA1"/>
<path d="M202.193 215.906C208.373 205.796 220.461 182.712 207.798 174.527C200.845 170.032 190.032 175.551 185.269 185.463C180.746 194.875 180.191 204.565 178.131 215.773" fill="#C8EBDB"/>
<path d="M152.105 215.774H169.096V115.562H152.105V215.774Z" fill="#CE3644"/>
<path d="M159.099 118.321H71.0979L58.9144 133.466C50.9144 143.08 61.0164 152.41 75.2016 152.41H102.694C120.237 152.41 136.648 145.299 146.542 133.41L159.099 118.321Z" fill="#31184C"/>
<path d="M244.389 118.321H115.096V21.8155H200.389C224.689 21.8155 244.389 41.5153 244.389 65.8158V118.321Z" fill="#31184C"/>
<path d="M159.097 118.321H71.0957V65.8158C71.0957 41.5153 90.7955 21.8155 115.096 21.8155C139.397 21.8155 159.097 41.5153 159.097 65.8158V118.321Z" fill="#5F338D"/>
<mask id="mask0_602_5463" style="mask-type:luminance" maskUnits="userSpaceOnUse" x="71" y="21" width="89" height="98">
<path d="M159.099 118.321H71.0977V65.8158C71.0977 41.5153 90.7975 21.8155 115.098 21.8155C139.399 21.8155 159.099 41.5153 159.099 65.8158V118.321Z" fill="white"/>
</mask>
<g mask="url(#mask0_602_5463)">
<path d="M78.3574 68.9985L102.612 76.3872V118.421H78.3574V68.9985Z" fill="#151413"/>
<path d="M159.962 118.309H86.455L78.3574 68.9982H151.865L159.962 118.309Z" fill="#D2DFF0"/>
<path d="M159.098 118.309H86.4531L120.046 85.1174L159.098 117.592V118.309Z" fill="#B9CCE9"/>
<path d="M151.865 68.9982L122.852 102.19L78.3574 68.9982" fill="#E3ECF6"/>
<path d="M92.8672 76.3872L120.408 79.5519L119.92 118.421H99.8322L92.8672 76.3872Z" fill="#151413"/>
<path d="M172.802 118.309H103.971L92.8672 76.3869H161.698L172.802 118.309Z" fill="#F0F5FC"/>
<path d="M103.971 118.309L137.675 95.3663L172.802 118.309" fill="#E0EFFA"/>
<path d="M92.8672 76.3876H161.698L139.598 104.606L92.8672 76.3876Z" fill="white"/>
</g>
<path d="M185.752 69.6603C185.752 72.9486 183.087 75.6147 179.798 75.6147C176.509 75.6147 173.844 72.9486 173.844 69.6603C173.844 66.3719 176.509 63.7063 179.798 63.7063C183.087 63.7063 185.752 66.3719 185.752 69.6603Z" fill="#F36175"/>
<path d="M182.716 69.6597C182.716 71.2715 181.41 72.5776 179.798 72.5776C178.187 72.5776 176.881 71.2715 176.881 69.6597C176.881 68.0485 178.187 66.7418 179.798 66.7418C181.41 66.7418 182.716 68.0485 182.716 69.6597Z" fill="#F1455A"/>
<path d="M179.796 -4.57764e-05C180.511 -4.57764e-05 181.09 0.578987 181.09 1.29391V69.5132C181.09 70.2281 180.511 70.8071 179.796 70.8071C179.082 70.8071 178.502 70.2281 178.502 69.5132V1.29391C178.502 0.578987 179.082 -4.57764e-05 179.796 -4.57764e-05Z" fill="#F1455A"/>
<path d="M179.797 13.1265V0.000624657L199.465 6.56354L179.797 13.1265Z" fill="#F1455A"/>
<path d="M56.875 30.2646C56.8939 30.9273 56.9393 31.5801 57.0109 32.2218L57.5622 32.1608C57.4923 31.5341 57.4479 30.8968 57.4296 30.249L56.875 30.2646ZM57.3093 34.1619C57.4374 34.8109 57.5927 35.447 57.7729 36.0704L58.3059 35.9162C58.1301 35.3084 57.9787 34.6877 57.8534 34.0543L57.3093 34.1619ZM58.4008 37.9312C58.6382 38.5457 58.9011 39.1458 59.1878 39.7304L59.6859 39.4864C59.4063 38.9162 59.1495 38.3305 58.9177 37.731L58.4008 37.9312ZM60.1279 41.4547C60.4668 42.0177 60.8289 42.564 61.2116 43.0926L61.6609 42.767C61.2871 42.2512 60.9338 41.7176 60.6027 41.1686L60.1279 41.4547ZM62.4296 44.6333C62.8572 45.1303 63.3048 45.6089 63.7696 46.0676L64.1595 45.6732C63.7047 45.2245 63.2676 44.757 62.85 44.2711L62.4296 44.6333ZM65.2211 47.3893C65.7224 47.8108 66.2399 48.2118 66.7723 48.5917L67.0946 48.1402C66.5743 47.7686 66.068 47.3765 65.5777 46.9644L65.2211 47.3893ZM68.4118 49.6693C68.9726 50.0071 69.546 50.3238 70.1301 50.6172L70.3791 50.1219C69.8078 49.8346 69.2465 49.5251 68.6986 49.1946L68.4118 49.6693ZM71.9154 51.4308C72.5211 51.6793 73.1361 51.9039 73.7584 52.1047L73.9287 51.5773C73.3197 51.3809 72.7185 51.1607 72.1262 50.9178L71.9154 51.4308ZM75.6475 52.6349C76.2842 52.7869 76.927 52.9139 77.5732 53.0154L77.6591 52.4674C77.0274 52.3682 76.399 52.2439 75.7767 52.0953L75.6475 52.6349ZM79.5138 53.2522C80.1544 53.3205 80.7989 53.387 81.4461 53.4536L81.5033 52.9023C80.856 52.8352 80.2121 52.7686 79.5721 52.7009L79.5138 53.2522ZM83.3751 53.6566C84.0163 53.7253 84.6591 53.7969 85.3014 53.8729L85.3663 53.3221C84.7218 53.2461 84.0773 53.174 83.4345 53.1047L83.3751 53.6566ZM87.2232 54.1152C87.8637 54.2018 88.5027 54.2944 89.1388 54.3953L89.2259 53.8474C88.5848 53.7459 87.9414 53.6527 87.2975 53.5656L87.2232 54.1152ZM91.0451 54.7259C91.6801 54.8462 92.3113 54.9766 92.9369 55.1197L93.0601 54.5789C92.4272 54.4342 91.7894 54.3022 91.1483 54.1807L91.0451 54.7259ZM94.8088 55.59C95.4305 55.7614 96.0462 55.9477 96.6529 56.1502L96.8288 55.6244C96.2115 55.4181 95.5869 55.2289 94.9563 55.0553L94.8088 55.59ZM98.4588 56.8146C99.0539 57.0548 99.6396 57.3143 100.214 57.5944L100.458 57.0964C99.8709 56.8096 99.273 56.5451 98.6668 56.2999L98.4588 56.8146ZM101.904 58.5012C102.452 58.824 102.988 59.1701 103.51 59.5406L103.831 59.088C103.296 58.7081 102.746 58.3537 102.185 58.0232L101.904 58.5012ZM105.021 60.7159C105.5 61.1252 105.966 61.5606 106.417 62.0226L106.814 61.6354C106.351 61.1607 105.873 60.7142 105.381 60.2944L105.021 60.7159ZM107.689 63.4513C108.084 63.9366 108.464 64.4485 108.829 64.9876L109.288 64.6765C108.914 64.1241 108.524 63.5994 108.119 63.1013L107.689 63.4513ZM109.838 66.616C110.144 67.159 110.438 67.7264 110.717 68.3198L111.219 68.0841C110.934 67.4785 110.634 66.8983 110.321 66.3431L109.838 66.616Z" fill="#AEBAD3"/>
<path d="M105.088 46.1341C104.904 46.8174 104.803 47.4747 104.777 48.1091L105.332 48.1313C105.355 47.5401 105.449 46.9245 105.624 46.2789L105.088 46.1341ZM104.95 50.1003C105.092 50.7547 105.314 51.382 105.602 51.986L106.102 51.7481C105.831 51.1779 105.624 50.5917 105.492 49.9827L104.95 50.1003ZM106.612 53.6931C106.984 54.2189 107.399 54.7297 107.847 55.2306L108.26 54.8612C107.824 54.3726 107.422 53.8778 107.065 53.3731L106.612 53.6931ZM109.207 56.6421C109.667 57.0902 110.146 57.5339 110.634 57.976L111.006 57.565C110.521 57.1257 110.047 56.6865 109.594 56.245L109.207 56.6421ZM112.085 59.2722C112.567 59.7009 113.051 60.1313 113.528 60.5672L113.902 60.1573C113.421 59.7186 112.935 59.2866 112.453 58.8578L112.085 59.2722ZM114.934 61.8933C115.396 62.3465 115.843 62.8079 116.268 63.2805L116.68 62.91C116.246 62.4269 115.791 61.9571 115.322 61.4973L114.934 61.8933ZM117.486 64.7585C117.87 65.2732 118.221 65.8023 118.532 66.3498L119.015 66.0758C118.691 65.5056 118.326 64.9576 117.93 64.4269L117.486 64.7585ZM119.34 68.0613C119.559 68.6437 119.731 69.2477 119.847 69.8766L120.392 69.7763C120.27 69.1135 120.09 68.4773 119.859 67.8661L119.34 68.0613ZM120.018 71.7513V71.7768C120.018 72.3741 119.969 72.9936 119.865 73.6392L120.413 73.7274C120.521 73.0541 120.573 72.4046 120.573 71.7768V71.7502L120.018 71.7513ZM119.433 75.4917L119.42 75.5339L119.951 75.6958L119.964 75.6525L119.433 75.4917Z" fill="#AEBAD3"/>
<path d="M71.2372 34.4185L66.3116 17.0597L56.4414 28.5754L71.2372 34.4185Z" fill="#E0EFFA"/>
<path d="M46.9178 41.3179L41.9922 23.9585L56.4408 28.5758L46.9178 41.3179Z" fill="#E0EFFA"/>
<path d="M41.9922 23.958L66.311 17.0595L57.2661 31.4849L41.9922 23.958Z" fill="#E0EFFA"/>
<path d="M71.2368 34.4101L46.918 41.3091L55.9628 26.8832L71.2368 34.4101Z" fill="#E0EFFA"/>
<path d="M66.1925 16.9858L57.2136 31.3052L42.0523 23.8338L41.9297 24.0823L57.203 31.6092C57.2668 31.6408 57.3445 31.6186 57.3822 31.5587L66.4271 17.1328L66.1925 16.9858Z" fill="#A9BBE5"/>
<path d="M54.9625 30.3216L46.8066 41.235L47.0285 41.4009L55.1843 30.488" fill="#A9BBE5"/>
<path d="M58.5117 29.5424L71.1855 34.5474L71.2876 34.2895L58.6138 29.2839" fill="#A9BBE5"/>
<path d="M96.7246 48.4739L114.128 50.5737L117.731 38.3447L96.7357 35.5217L96.7246 48.4739Z" fill="#A9BBE5"/>
<path d="M96.7363 35.5221L117.731 38.3452L108.395 28.3031L96.7363 35.5221Z" fill="#A9BBE5"/>
<path d="M98.7617 46.8618L113.09 48.7886L114.718 36.6855L100.39 34.7587L98.7617 46.8618Z" fill="white"/>
<path d="M117.732 38.3452L115.896 51.9946L106.252 44.2404L117.732 38.3452Z" fill="#E0EFFA"/>
<path d="M96.7357 35.522L94.9004 49.1714L106.251 44.2402L96.7357 35.522Z" fill="#E0EFFA"/>
<path d="M94.9004 49.1716L115.895 51.9946L106.558 41.9525L94.9004 49.1716Z" fill="#E0EFFA"/>
<path d="M115.998 51.9002L106.661 41.8581C106.616 41.8099 106.542 41.7999 106.486 41.8348L94.8281 49.0539L94.9746 49.2896L106.535 42.1304L115.795 52.0894L115.998 51.9002Z" fill="#A9BBE5"/>
<path d="M104.979 42.8866L96.8295 35.4197L96.6426 35.6243L104.791 43.0913" fill="#A9BBE5"/>
<path d="M107.961 43.5181L117.794 38.4682L117.668 38.2219L107.834 43.2713" fill="#A9BBE5"/>
<line x1="84.1583" y1="176.216" x2="100.381" y2="212.821" stroke="#F5F5F5"/>
<line x1="112.03" y1="181.629" x2="126.589" y2="215.739" stroke="#F5F5F5"/>
<line x1="131.997" y1="152.096" x2="146.556" y2="186.206" stroke="#F5F5F5"/>
<line x1="178.621" y1="147.364" x2="173.629" y2="186.465" stroke="#F5F5F5"/>
<line x1="201.063" y1="185.316" x2="191.495" y2="213.186" stroke="#F5F5F5"/>
<line x1="235.995" y1="169.529" x2="220.188" y2="209.878" stroke="#F5F5F5"/>
<line x1="261.723" y1="197.097" x2="248.827" y2="214.568" stroke="#F5F5F5"/>
</svg>
