<svg width="433" height="336" viewBox="0 0 433 336" fill="none" xmlns="http://www.w3.org/2000/svg">
<path d="M13.9634 316.488C13.9634 316.488 -3.63568 295.554 13.9634 270.179C31.5639 244.807 35.7885 234.308 25.9325 210.31C16.0762 186.308 -9.60254 150.716 20.1328 124.812C49.8679 98.909 68.8044 84.1354 75.9161 55.3889C85.2005 17.8561 118.718 -18.7941 184.966 10.8077C251.214 40.4107 257.55 40.4096 292.749 36.886C327.949 33.3624 375.821 46.0732 373.71 95.3979C371.597 144.723 363.149 157.346 391.31 181.696C419.47 206.044 446.222 255.662 407.502 316.488H13.9634Z" fill="#E7F0FA"/>
<path d="M167.861 99.942C167.861 99.942 150.911 204.707 215.664 204.707C280.415 204.707 265.275 95.8606 265.275 95.8606L169.851 99.942H167.861Z" fill="#7C3F43"/>
<path d="M226.876 136.855H204.443L194.86 175.826L215.664 204.707L236.465 173.439L226.876 136.855Z" fill="#F89F7D"/>
<path d="M226.884 136.86H204.45L202.114 146.357C208.747 153.037 222.529 157.461 231.027 152.672L226.884 136.86Z" fill="#F68A69"/>
<path d="M215.804 39.3587C169.88 39.3587 173.485 98.1012 174.382 112.418C175.282 126.741 184.06 131.663 195.542 140.682C207.021 149.694 215.804 148.745 215.804 148.745C215.804 148.745 224.586 149.694 236.068 140.682C247.545 131.663 256.324 126.741 257.218 112.418C258.126 98.1012 261.734 39.3587 215.804 39.3587Z" fill="#F89F7D"/>
<path d="M273.835 167.384L232.364 157.778C232.364 170.781 217.747 170.744 216.568 170.506V170.489L216.526 170.496L216.484 170.489V170.506C215.303 170.744 199.304 170.781 199.304 157.778L159.219 167.384L167.768 206.995C167.768 206.995 156.757 231.14 175.943 248.214L179.465 307.094H216.484H216.568H254.799L257.107 248.214C276.291 231.14 265.283 206.995 265.283 206.995L273.835 167.384Z" fill="#F7C42F"/>
<path d="M216.469 174.521V174.5L216.524 174.512L216.577 174.5V174.521C218.057 174.819 236.289 174.863 236.511 158.744L232.362 157.783C232.362 170.786 217.745 170.748 216.566 170.511V170.494L216.524 170.501L216.482 170.494V170.511C215.301 170.748 199.302 170.786 199.302 157.783L194.794 158.862C195.137 174.86 214.992 174.819 216.469 174.521Z" fill="#F6AB0D"/>
<path d="M273.631 167.392C273.631 167.392 288.449 172.483 295.556 189.4C302.662 206.316 320.04 257.298 317.211 268.629C314.173 280.8 255.373 304.238 255.373 304.238L246.48 288.863C246.48 288.863 282.857 263.368 288.919 258.514L265.279 207.003L273.631 167.392Z" fill="#F1AE12"/>
<path d="M159.354 167.392C159.354 167.392 144.535 172.483 137.429 189.4C130.323 206.316 112.943 257.298 115.772 268.629C118.811 280.8 177.61 304.238 177.61 304.238L186.503 288.863C186.503 288.863 150.128 263.368 144.065 258.514L167.76 207.003L159.354 167.392Z" fill="#F1AE12"/>
<path d="M173.991 95.8555C173.991 95.8555 196.061 84.4612 202.109 62.7573C202.109 62.7573 220.173 93.3406 257.615 95.8555C257.615 95.8555 261.212 90.8586 265.257 91.8332C265.257 91.8332 267.825 33.0782 215.666 33.0782C163.505 33.0782 167.959 91.3823 167.959 91.3823C167.959 91.3823 170.824 92.2058 173.991 95.8555Z" fill="#7C3F43"/>
<path d="M171.406 83.7383L164.735 83.7099C164.738 83.1601 165.573 28.8193 216.575 28.8193C267.432 28.8193 268.021 83.176 268.021 83.7247H261.351C261.346 81.7595 260.728 35.4984 216.575 35.4984C197.956 35.4984 184.721 43.5282 177.236 59.3696C171.526 71.45 171.407 83.6179 171.406 83.7383Z" fill="#6C89CE"/>
<path d="M171.61 80.4062C171.273 80.2699 170.929 80.1995 170.578 80.1995H168.2C169.615 67.7022 177.102 33.0808 216.559 33.0808C256.068 33.0808 263.275 68.0033 264.587 80.3688C264.292 80.2586 263.99 80.1995 263.682 80.1995H261.172C261.168 80.1995 261.166 80.1995 261.164 80.1995C260.196 69.0154 254.157 35.4924 216.572 35.4924C197.953 35.4924 184.718 43.5221 177.233 59.3635C173.323 67.6352 172.034 75.9489 171.61 80.4062Z" fill="#5071C1"/>
<path d="M260.508 109.955C254.415 115.173 248.32 120.391 242.228 125.609C240.752 126.874 242.621 129.258 244.108 127.984C250.199 122.767 256.291 117.547 262.385 112.329C263.863 111.065 261.994 108.681 260.508 109.955Z" fill="#6C89CE"/>
<path d="M249.208 122.094C250.33 123.508 250.095 125.565 248.682 126.69L243.59 130.743C242.178 131.867 240.124 131.631 239.002 130.218C237.878 128.805 238.112 126.748 239.525 125.622L244.617 121.57C246.029 120.446 248.084 120.681 249.208 122.094Z" fill="#4060B5"/>
<path d="M241.567 131.445C240.827 131.445 240.09 131.194 239.497 130.708C240.024 130.618 240.538 130.414 240.985 130.058L246.077 126.005C247.49 124.881 247.724 122.823 246.601 121.41C246.453 121.223 246.287 121.061 246.107 120.913C246.291 120.882 246.475 120.867 246.66 120.867C247.619 120.867 248.566 121.279 249.209 122.088C249.687 122.69 249.918 123.409 249.918 124.122C249.917 125.085 249.495 126.038 248.684 126.684L243.592 130.737C243.433 130.864 243.265 130.973 243.092 131.066C243.088 131.068 243.084 131.069 243.08 131.072C243.079 131.073 243.078 131.073 243.077 131.074C242.601 131.324 242.083 131.445 241.567 131.445Z" fill="#3757B0"/>
<path d="M170.577 80.2009H168.066V81.4947C165.502 84.2084 163.682 90.9364 163.682 98.8276C163.682 106.718 165.502 113.447 168.066 116.162V117.453H170.577C174.384 117.453 177.472 109.114 177.472 98.8276C177.472 88.5408 174.384 80.2009 170.577 80.2009Z" fill="#4060B5"/>
<path d="M168.071 80.2009C167.453 80.2009 166.856 80.4417 166.285 80.8552C163.688 82.2263 159.176 86.3962 159.176 98.8276C159.176 110.012 162.827 114.366 165.451 116.055C166.26 116.952 167.143 117.453 168.071 117.453C171.879 117.453 174.966 109.114 174.966 98.8276C174.966 88.5408 171.879 80.2009 168.071 80.2009Z" fill="#6C89CE"/>
<path d="M261.171 80.2009H263.682V81.4947C266.248 84.2084 268.067 90.9364 268.067 98.8276C268.067 106.718 266.248 113.447 263.682 116.162V117.453H261.171C257.362 117.453 254.276 109.114 254.276 98.8276C254.276 88.5408 257.362 80.2009 261.171 80.2009Z" fill="#4060B5"/>
<path d="M263.688 80.2009C264.306 80.2009 264.903 80.4417 265.474 80.8552C268.07 82.2263 272.582 86.3962 272.582 98.8276C272.582 110.012 268.931 114.366 266.308 116.055C265.5 116.952 264.616 117.453 263.688 117.453C259.88 117.453 256.793 109.114 256.793 98.8276C256.793 88.5408 259.88 80.2009 263.688 80.2009Z" fill="#6C89CE"/>
<path d="M18.0654 336H414.926V316.493H18.0654V336Z" fill="#6C89CE"/>
<path d="M433 321.8C433 324.718 430.5 327.105 427.442 327.105H5.55818C2.50191 327.105 0 324.718 0 321.8C0 318.88 2.50191 316.494 5.55818 316.494H427.442C430.5 316.494 433 318.88 433 321.8Z" fill="#4C77C4"/>
<path d="M314.703 311.792C314.703 314.385 312.601 316.488 310.011 316.488H122.991C120.401 316.488 118.301 314.385 118.301 311.792C118.301 309.199 120.401 307.093 122.991 307.093H310.011C312.601 307.093 314.703 309.199 314.703 311.792Z" fill="#25477E"/>
<path d="M299.876 299.727C299.876 304.624 295.873 308.633 290.982 308.633H142.013C137.122 308.633 133.119 304.624 133.119 299.727V218.022C133.119 213.125 137.122 209.119 142.013 209.119H290.982C295.873 209.119 299.876 213.125 299.876 218.022V299.727Z" fill="#2B4F99"/>
<path d="M223.075 258.195C223.075 261.832 220.129 264.781 216.498 264.781C212.863 264.781 209.918 261.832 209.918 258.195C209.918 254.559 212.863 251.61 216.498 251.61C220.129 251.61 223.075 254.559 223.075 258.195Z" fill="#6C89CE"/>
</svg>
