<svg width="17" height="15" viewBox="0 0 17 15" fill="none" xmlns="http://www.w3.org/2000/svg">
<path d="M11.75 2.62477C11.1166 2.62466 10.5085 2.8732 10.0566 3.31691C9.6046 3.76061 9.3449 4.36402 9.3333 4.99727L9.31 6.30977C9.3086 6.38024 9.2924 6.44963 9.2623 6.51337C9.2322 6.57712 9.189 6.63379 9.1355 6.67967C9.082 6.72555 9.0194 6.75959 8.95183 6.77957C8.88423 6.79955 8.81318 6.80501 8.74333 6.7956L7.4425 6.61894C5.73083 6.3856 4.09083 5.59727 2.5175 4.28644C2.01916 7.04477 2.9925 8.9556 5.33666 10.4298L6.7925 11.3448C6.86167 11.3882 6.91914 11.448 6.95987 11.5188C7.0006 11.5896 7.02336 11.6694 7.02616 11.751C7.02895 11.8327 7.0117 11.9137 6.97591 11.9872C6.94011 12.0606 6.88687 12.1242 6.82083 12.1723L5.49416 13.1414C6.28333 13.1906 7.0325 13.1556 7.65416 13.0323C11.5858 12.2473 14.2 9.2889 14.2 4.40894C14.2 4.0106 13.3567 2.62477 11.75 2.62477ZM7.66666 4.96644C7.68121 4.16315 7.9324 3.38199 8.3888 2.72079C8.84519 2.05958 9.4865 1.5477 10.2324 1.24924C10.9784 0.950782 11.7958 0.879003 12.5823 1.04289C13.3688 1.20678 14.0895 1.59906 14.6542 2.1706C15.2467 2.16644 15.7508 2.31644 16.8783 1.6331C16.5992 2.99977 16.4617 3.5931 15.8667 4.40894C15.8667 10.7773 11.9525 13.8739 7.98083 14.6664C5.2575 15.2098 1.2975 14.3173 0.162498 13.1323C0.740828 13.0873 3.09083 12.8348 4.44916 11.8406C3.3 11.0831 -1.27417 8.3914 1.73166 1.15477C3.1425 2.80227 4.57333 3.92394 6.02333 4.51894C6.98833 4.91477 7.225 4.90644 7.6675 4.96727L7.66666 4.96644Z" fill="#CCD2E9"/>
</svg>
