<svg width="190" height="150" viewBox="0 0 190 150" fill="none" xmlns="http://www.w3.org/2000/svg">
<g clip-path="url(#clip0_2407_4031)">
<path opacity="0.26" d="M12.6943 148.315C12.6943 148.315 -10.3574 117.612 8.7959 84.3717C25.79 54.8788 45.6034 56.895 60.1404 68.8637C66.3312 73.9613 84.1816 69.4914 99.3753 39.4816C120.094 -1.44455 191.914 23.3772 178.819 86.3426C172.482 116.813 198.105 117.921 185.049 148.379L12.6943 148.315Z" fill="#C9B0FF"/>
<path d="M95.7003 156.18H-20.1537C-21.0613 156.178 -21.9312 155.817 -22.5724 155.174C-23.2136 154.532 -23.5737 153.662 -23.5737 152.754V-10.104C-23.5658 -11.0064 -23.2022 -11.8692 -22.5619 -12.5051C-21.9215 -13.1409 -21.0561 -13.4985 -20.1537 -13.5H95.7003C96.6089 -13.5 97.4803 -13.139 98.1228 -12.4965C98.7653 -11.854 99.1263 -10.9826 99.1263 -10.074V152.754C99.1263 153.663 98.7653 154.534 98.1228 155.177C97.4803 155.819 96.6089 156.18 95.7003 156.18ZM-20.1537 -13.38C-21.0215 -13.3784 -21.8533 -13.0326 -22.4663 -12.4184C-23.0794 -11.8042 -23.4237 -10.9718 -23.4237 -10.104V152.754C-23.4237 153.622 -23.0794 154.454 -22.4663 155.068C-21.8533 155.683 -21.0215 156.028 -20.1537 156.03H95.7003C96.5686 156.028 97.401 155.683 98.015 155.069C98.629 154.455 98.9747 153.622 98.9763 152.754V-10.104C98.9747 -10.9724 98.629 -11.8047 98.015 -12.4187C97.401 -13.0328 96.5686 -13.3784 95.7003 -13.38H-20.1537Z" fill="#EBEBEB"/>
<path d="M84.2428 80.2351L81.8257 86.8349C81.6275 87.4041 81.279 87.909 80.8172 88.2963C80.3554 88.6836 79.7975 88.9388 79.2025 89.0348L47.0836 93.8969C45.0118 94.2144 43.7865 96.3419 44.3491 98.6476L55.5937 144.952C56.1507 147.263 58.2893 148.878 60.3611 148.566L136.813 136.987C138.884 136.67 140.11 134.548 139.553 132.237L126.002 76.4368C125.445 74.1255 123.307 72.5103 121.235 72.8222L86.866 78.0074C86.2678 78.1058 85.7076 78.3651 85.2456 78.7576C84.7835 79.15 84.4368 79.6608 84.2428 80.2351Z" fill="#C9B0FF"/>
<path opacity="0.3" d="M84.2428 80.2351L81.8257 86.8349C81.6275 87.4041 81.279 87.909 80.8172 88.2963C80.3554 88.6836 79.7975 88.9388 79.2025 89.0348L47.0836 93.8969C45.0118 94.2144 43.7865 96.3419 44.3491 98.6476L55.5937 144.952C56.1507 147.263 58.2893 148.878 60.3611 148.566L136.813 136.987C138.884 136.67 140.11 134.548 139.553 132.237L126.002 76.4368C125.445 74.1255 123.307 72.5103 121.235 72.8222L86.866 78.0074C86.2678 78.1058 85.7076 78.3651 85.2456 78.7576C84.7835 79.15 84.4368 79.6608 84.2428 80.2351Z" fill="black"/>
<path d="M67.763 12.5168C68.5165 12.5182 69.2694 12.5591 70.0186 12.6393C72.8698 8.68836 76.7332 5.57891 81.2023 3.63817C85.6714 1.69743 90.581 0.997161 95.4145 1.61104C100.248 2.22491 104.827 4.13024 108.669 7.12654C112.511 10.1228 115.474 14.0993 117.247 18.6376C121.851 19.4259 125.99 21.9145 128.845 25.6103C131.701 29.3062 133.064 33.9397 132.664 38.5929C132.265 43.2461 130.132 47.5796 126.689 50.735C123.246 53.8903 118.743 55.6372 114.073 55.6297H67.763C62.1059 55.5388 56.7112 53.2276 52.7428 49.1949C48.7744 45.1622 46.5503 39.7311 46.5503 34.0732C46.5503 28.4154 48.7744 22.9843 52.7428 18.9516C56.7112 14.9189 62.1059 12.6078 67.763 12.5168Z" fill="#C9B0FF"/>
<path d="M69.7622 48.0889V101.834H109.171V59.7902L97.4756 48.0889H69.7622Z" fill="#C9B0FF"/>
<path opacity="0.6" d="M69.7622 48.0889V101.834H109.171V59.7902L97.4756 48.0889H69.7622Z" fill="white"/>
<path opacity="0.4" d="M97.4756 59.7902V48.0889L109.171 59.7902H97.4756Z" fill="#C9B0FF"/>
<path d="M98.2999 85.5096L94.663 91.5747C94.3432 92.1086 93.911 92.5665 93.3965 92.9165C92.882 93.2666 92.2974 93.5005 91.6834 93.602L59.5701 98.4697C58.5463 98.6472 57.6206 99.1871 56.962 99.9909C56.3035 100.795 55.9561 101.808 55.9834 102.847L57.8492 145.086C57.8561 145.568 57.9672 146.042 58.1748 146.477C58.3824 146.912 58.6816 147.297 59.0519 147.606C59.4223 147.914 59.8549 148.139 60.3203 148.264C60.7856 148.39 61.2726 148.413 61.7478 148.333L138.199 136.748C139.223 136.571 140.149 136.031 140.807 135.227C141.466 134.423 141.813 133.409 141.786 132.371L139.558 81.4774C139.551 80.9955 139.44 80.5207 139.233 80.0858C139.025 79.6508 138.726 79.266 138.355 78.9575C137.985 78.6491 137.552 78.4244 137.087 78.2989C136.622 78.1734 136.135 78.15 135.66 78.2304L101.263 83.4601C100.649 83.5649 100.066 83.8027 99.5544 84.1567C99.0425 84.5108 98.6143 84.9726 98.2999 85.5096Z" fill="#C9B0FF"/>
<path d="M99.4195 40.2969C99.2824 40.2976 99.1482 40.2575 99.0339 40.1817C98.9197 40.1059 98.8306 39.9977 98.7781 39.8711C98.7255 39.7445 98.7118 39.6051 98.7388 39.4706C98.7657 39.3362 98.8321 39.2128 98.9294 39.1162C100.794 37.245 102.063 34.8633 102.575 32.2717C103.087 29.6801 102.819 26.9949 101.806 24.5551C100.793 22.1154 99.0797 20.0306 96.8826 18.5639C94.6855 17.0972 92.1031 16.3144 89.4614 16.3144C86.8197 16.3144 84.2372 17.0972 82.0401 18.5639C79.843 20.0306 78.1297 22.1154 77.1167 24.5551C76.1036 26.9949 75.8362 29.6801 76.3482 32.2717C76.8602 34.8633 78.1286 37.245 79.9934 39.1162C80.058 39.1804 80.1093 39.2568 80.1444 39.3409C80.1794 39.425 80.1974 39.5152 80.1974 39.6063C80.1974 39.6975 80.1794 39.7877 80.1444 39.8718C80.1093 39.9559 80.058 40.0322 79.9934 40.0964C79.8623 40.2244 79.6864 40.296 79.5032 40.296C79.3201 40.296 79.1442 40.2244 79.0131 40.0964C76.9482 38.0316 75.542 35.4008 74.9722 32.5368C74.4025 29.6727 74.6948 26.704 75.8123 24.0061C76.9298 21.3082 78.8222 19.0023 81.2502 17.3799C83.6782 15.7575 86.5328 14.8916 89.453 14.8916C92.3732 14.8916 95.2278 15.7575 97.6558 17.3799C100.084 19.0023 101.976 21.3082 103.094 24.0061C104.211 26.704 104.504 29.6727 103.934 32.5368C103.364 35.4008 101.958 38.0316 99.8929 40.0964C99.7668 40.2217 99.5972 40.2935 99.4195 40.2969Z" fill="white"/>
<path d="M95.3876 44.4351V29.0245C95.3876 28.3583 95.1229 27.7194 94.6519 27.2484C94.1808 26.7773 93.5419 26.5127 92.8758 26.5127H86.0588C85.3926 26.5127 84.7537 26.7773 84.2827 27.2484C83.8116 27.7194 83.547 28.3583 83.547 29.0245V44.4351H80.9795L89.4673 51.7477L97.9495 44.4351H95.3876Z" fill="white"/>
</g>
<defs>
<clipPath id="clip0_2407_4031">
<rect width="190" height="150" fill="white"/>
</clipPath>
</defs>
</svg>
