<svg width="236" height="61" viewBox="0 0 236 61" fill="none" xmlns="http://www.w3.org/2000/svg">
<path d="M34.9146 22.6238C34.9146 22.6238 57.5496 42.9007 69.5466 28.3927C74.6136 21.3997 74.0286 11.5627 67.7196 5.24475C60.7266 -1.74825 49.3866 -1.74825 42.3936 5.24475L41.0706 6.55875C38.5326 9.10575 34.4196 9.10575 31.8816 6.56775L30.5586 5.24475C23.5656 -1.74825 12.2256 -1.74825 5.23259 5.24475C-1.51741 11.9948 -1.72441 22.7677 4.53959 29.7967C7.73459 18.4477 20.7306 11.1488 34.9146 22.6238Z" fill="url(#paint0_linear_656_927)"/>
<path d="M11.1636 36.4837L25.0326 50.3527C27.9576 53.2777 31.9986 55.0867 36.4716 55.0777C40.9356 55.0687 44.9766 53.2507 47.8926 50.3167L67.7286 30.5707C68.4126 29.8867 69.0066 29.1487 69.5556 28.3927C57.5586 42.9007 34.9236 22.6237 34.9236 22.6237C20.7396 11.1487 7.74362 18.4477 4.55762 29.7967C4.78262 30.0577 5.00762 30.3187 5.25062 30.5707L11.1636 36.4837Z" fill="url(#paint1_linear_656_927)"/>
<path d="M173.022 60.211V48.4292H174.448V53.6758H180.73V48.4292H182.157V60.211H180.73V54.9414H174.448V60.211H173.022Z" fill="black"/>
<path d="M185.013 60.211V48.4292H192.124V49.6948H186.44V53.6758H191.756V54.9414H186.44V58.9454H192.216V60.211H185.013Z" fill="black"/>
<path d="M195.179 60.211H193.683L198.009 48.4292H199.482L203.808 60.211H202.312L198.791 50.2931H198.699L195.179 60.211ZM195.731 55.6087H201.76V56.8744H195.731V55.6087Z" fill="black"/>
<path d="M205.643 60.211V48.4292H207.07V58.9454H212.547V60.211H205.643Z" fill="black"/>
<path d="M212.545 49.6948V48.4292H221.381V49.6948H217.677V60.211H216.25V49.6948H212.545Z" fill="black"/>
<path d="M223.583 60.211V48.4292H225.01V53.6758H231.292V48.4292H232.719V60.211H231.292V54.9414H225.01V60.211H223.583Z" fill="black"/>
<path d="M92.5596 49.4887C93.9816 50.0017 95.6016 50.3977 96.8976 50.3977C101.425 50.3977 102.784 45.8617 104.467 41.7847L89.6526 8.78174H97.3476L107.635 33.0457L116.563 8.78174H123.934L111.055 42.4327C108.202 50.0017 105.295 56.2747 98.3016 56.2747C96.4206 56.2747 94.2246 55.8877 92.5416 55.1767V49.4887H92.5596Z" fill="#4C3B66"/>
<path d="M161.14 25.2158C161.14 35.6378 153.76 42.9458 143.284 42.9458C132.736 42.9458 125.419 35.6378 125.419 25.2158C125.419 14.7938 132.736 7.48584 143.284 7.48584C153.769 7.48584 161.14 14.8028 161.14 25.2158ZM154.147 25.2158C154.147 18.5558 149.557 13.7588 143.275 13.7588C136.939 13.7588 132.466 18.5468 132.466 25.2158C132.466 31.8848 136.939 36.6728 143.275 36.6728C149.557 36.6728 154.147 31.8848 154.147 25.2158Z" fill="#4C3B66"/>
<path d="M190.507 41.6587V37.4557C188.239 40.8847 184.099 42.9547 179.896 42.9547C171.805 42.9547 166.567 37.0057 166.567 28.8517V8.78174H173.623V28.3207C173.623 33.1717 176.467 36.6727 181.453 36.6727C186.304 36.6727 190.453 32.9197 190.453 27.6817V8.78174H197.446V41.6497H190.507V41.6587Z" fill="#4C3B66"/>
<path d="M228.406 41.6587V37.4557C226.138 40.8847 221.998 42.9547 217.795 42.9547C209.704 42.9547 204.466 37.0057 204.466 28.8517V8.78174H211.522V28.3207C211.522 33.1717 214.375 36.6727 219.352 36.6727C224.203 36.6727 228.343 32.9197 228.343 27.6817V8.78174H235.336V41.6497H228.406V41.6587Z" fill="#4C3B66"/>
<defs>
<linearGradient id="paint0_linear_656_927" x1="36.4795" y1="35.5095" x2="36.4795" y2="-0.63612" gradientUnits="userSpaceOnUse">
<stop stop-color="#EE9E68"/>
<stop offset="0.4643" stop-color="#E7677E"/>
<stop offset="1" stop-color="#AD5D9E"/>
</linearGradient>
<linearGradient id="paint1_linear_656_927" x1="37.0478" y1="51.0411" x2="37.0478" y2="13.4321" gradientUnits="userSpaceOnUse">
<stop stop-color="#6B4379"/>
<stop offset="0.508" stop-color="#97619C"/>
<stop offset="1" stop-color="#9D66A2"/>
</linearGradient>
</defs>
</svg>
