<svg width="78" height="59" viewBox="0 0 78 59" fill="none" xmlns="http://www.w3.org/2000/svg">
<path d="M37.1693 24.1806C37.1693 24.1806 61.2346 45.7644 73.9896 30.3214C76.8007 26.4421 78.0477 21.6444 77.4816 16.8854C76.9156 12.1264 74.5782 7.75594 70.9358 4.6461C67.2934 1.53626 62.6139 -0.0843719 57.8307 0.10755C53.0476 0.299471 48.5126 2.28983 45.1304 5.68153L43.7143 7.06105C43.0734 7.70439 42.312 8.21481 41.4738 8.56308C40.6356 8.91135 39.737 9.09061 38.8294 9.09061C37.9219 9.09061 37.0233 8.91135 36.1851 8.56308C35.3468 8.21481 34.5855 7.70439 33.9446 7.06105L32.5476 5.65279C29.0543 2.11651 24.3179 0.0886944 19.3508 0.00284099C14.3838 -0.0830124 9.58029 1.77991 5.96717 5.19335C2.35404 8.6068 0.218001 13.2999 0.0156767 18.2695C-0.186648 23.239 1.5608 28.0906 4.88446 31.7871C8.27178 19.7354 22.089 11.966 37.1693 24.1806Z" fill="url(#paint0_linear_336_2018)"/>
<path d="M11.9184 38.9326L26.6638 53.705C28.2608 55.3031 30.1573 56.5698 32.2443 57.4326C34.3314 58.2954 36.568 58.7372 38.826 58.7328C41.0839 58.7283 43.3188 58.2777 45.4025 57.4067C47.4861 56.5357 49.3775 55.2614 50.9683 53.6571L72.0194 32.6385C72.7197 31.9195 73.3598 31.1441 73.9332 30.3201C61.1781 45.7631 37.1128 24.1793 37.1128 24.1793C22.0325 11.9648 8.21532 19.7342 4.828 31.8433C5.06722 32.1212 5.29687 32.399 5.56479 32.6672L11.9184 38.9326Z" fill="url(#paint1_linear_336_2018)"/>
<defs>
<linearGradient id="paint0_linear_336_2018" x1="38.8342" y1="37.8992" x2="38.8342" y2="-0.574234" gradientUnits="userSpaceOnUse">
<stop stop-color="#EE9E68"/>
<stop offset="0.46" stop-color="#E7677E"/>
<stop offset="1" stop-color="#AD5D9E"/>
</linearGradient>
<linearGradient id="paint1_linear_336_2018" x1="39.438" y1="54.4235" x2="39.438" y2="14.3981" gradientUnits="userSpaceOnUse">
<stop stop-color="#6B4379"/>
<stop offset="0.51" stop-color="#97619C"/>
<stop offset="1" stop-color="#9D66A2"/>
</linearGradient>
</defs>
</svg>
