<svg width="170" height="44" viewBox="0 0 170 44" fill="none" xmlns="http://www.w3.org/2000/svg">
<path d="M66.5632 35.5884C67.5858 35.9573 68.7508 36.2421 69.6828 36.2421C72.9383 36.2421 73.9157 32.9801 75.126 30.0482L64.4727 6.31445H70.0064L77.4042 23.7636L83.8247 6.31445H89.1254L79.8636 30.5141C77.8119 35.9573 75.7214 40.4684 70.6925 40.4684C69.3398 40.4684 67.7606 40.1901 66.5502 39.6788V35.5884H66.5632Z" fill="white"/>
<path d="M115.882 18.1331C115.882 25.628 110.574 30.8834 103.041 30.8834C95.4553 30.8834 90.1934 25.628 90.1934 18.1331C90.1934 10.6383 95.4553 5.38281 103.041 5.38281C110.581 5.38281 115.882 10.6447 115.882 18.1331ZM110.853 18.1331C110.853 13.3437 107.552 9.89396 103.034 9.89396C98.4778 9.89396 95.2611 13.3372 95.2611 18.1331C95.2611 22.929 98.4778 26.3723 103.034 26.3723C107.552 26.3723 110.853 22.929 110.853 18.1331Z" fill="white"/>
<path d="M137.001 29.9575V26.935C135.37 29.4009 132.393 30.8895 129.371 30.8895C123.552 30.8895 119.785 26.6114 119.785 20.7475V6.31445H124.859V20.3657C124.859 23.8542 126.905 26.3719 130.49 26.3719C133.979 26.3719 136.962 23.673 136.962 19.9062V6.31445H141.991V29.9511H137.001V29.9575Z" fill="white"/>
<path d="M164.255 29.9575V26.935C162.624 29.4009 159.647 30.8895 156.624 30.8895C150.806 30.8895 147.039 26.6114 147.039 20.7475V6.31445H152.113V20.3657C152.113 23.8542 154.165 26.3719 157.744 26.3719C161.233 26.3719 164.21 23.673 164.21 19.9062V6.31445H169.239V29.9511H164.255V29.9575Z" fill="white"/>
<path d="M25.1084 16.2686C25.1084 16.2686 41.3861 30.8506 50.0136 20.4173C53.6574 15.3884 53.2367 8.31423 48.6997 3.77072C43.6708 -1.25821 35.5158 -1.25821 30.4868 3.77072L29.5354 4.71567C27.7102 6.54731 24.7524 6.54731 22.9272 4.72214L21.9758 3.77072C16.9469 -1.25821 8.79188 -1.25821 3.76295 3.77072C-1.09123 8.6249 -1.24009 16.3722 3.26459 21.427C5.56223 13.2655 14.9081 8.01651 25.1084 16.2686Z" fill="url(#paint0_linear_1927_1100)"/>
<path d="M8.02894 26.2364L18.0027 36.2101C20.1061 38.3136 23.0122 39.6145 26.2289 39.608C29.4391 39.6015 32.3451 38.2941 34.4421 36.1842L48.707 21.9841C49.1989 21.4922 49.626 20.9615 50.0208 20.4178C41.3933 30.8511 25.1157 16.2691 25.1157 16.2691C14.9154 8.01701 5.56949 13.266 3.27832 21.4275C3.44013 21.6152 3.60193 21.8029 3.77668 21.9841L8.02894 26.2364Z" fill="url(#paint1_linear_1927_1100)"/>
<path d="M124.427 43.2989V34.8262H125.453V38.5992H129.97V34.8262H130.996V43.2989H129.97V39.5094H125.453V43.2989H124.427Z" fill="white"/>
<path d="M133.051 43.2989V34.8262H138.164V35.7363H134.077V38.5992H137.899V39.5094H134.077V42.3888H138.23V43.2989H133.051Z" fill="white"/>
<path d="M140.361 43.2989H139.285L142.396 34.8262H143.455L146.566 43.2989H145.491L142.959 36.1666H142.893L140.361 43.2989ZM140.758 39.9893H145.094V40.8994H140.758V39.9893Z" fill="white"/>
<path d="M147.886 43.2989V34.8262H148.912V42.3888H152.851V43.2989H147.886Z" fill="white"/>
<path d="M152.85 35.7363V34.8262H159.204V35.7363H156.54V43.2989H155.514V35.7363H152.85Z" fill="white"/>
<path d="M160.788 43.2989V34.8262H161.814V38.5992H166.331V34.8262H167.357V43.2989H166.331V39.5094H161.814V43.2989H160.788Z" fill="white"/>
<defs>
<linearGradient id="paint0_linear_1927_1100" x1="26.2338" y1="25.5352" x2="26.2338" y2="-0.458434" gradientUnits="userSpaceOnUse">
<stop stop-color="#EE9E68"/>
<stop offset="0.4643" stop-color="#E7677E"/>
<stop offset="1" stop-color="#AD5D9E"/>
</linearGradient>
<linearGradient id="paint1_linear_1927_1100" x1="26.6432" y1="36.7051" x2="26.6432" y2="9.65908" gradientUnits="userSpaceOnUse">
<stop stop-color="#6B4379"/>
<stop offset="0.508" stop-color="#97619C"/>
<stop offset="1" stop-color="#9D66A2"/>
</linearGradient>
</defs>
</svg>
