<svg width="236" height="61" viewBox="0 0 236 61" fill="none" xmlns="http://www.w3.org/2000/svg">
<path d="M92.89 49.8481C94.312 50.3611 95.932 50.7571 97.228 50.7571C101.755 50.7571 103.114 46.2211 104.797 42.1441L89.983 9.14111H97.678L107.965 33.4051L116.893 9.14111H124.264L111.385 42.7921C108.532 50.3611 105.625 56.6341 98.632 56.6341C96.751 56.6341 94.555 56.2471 92.872 55.5361V49.8481H92.89Z" fill="#4C3B66"/>
<path d="M161.47 25.5752C161.47 35.9972 154.09 43.3052 143.614 43.3052C133.066 43.3052 125.749 35.9972 125.749 25.5752C125.749 15.1532 133.066 7.84521 143.614 7.84521C154.099 7.84521 161.47 15.1622 161.47 25.5752ZM154.477 25.5752C154.477 18.9152 149.887 14.1182 143.605 14.1182C137.269 14.1182 132.796 18.9062 132.796 25.5752C132.796 32.2442 137.269 37.0322 143.605 37.0322C149.887 37.0322 154.477 32.2442 154.477 25.5752Z" fill="#4C3B66"/>
<path d="M190.837 42.0181V37.8151C188.569 41.2441 184.429 43.3141 180.226 43.3141C172.135 43.3141 166.897 37.3651 166.897 29.2111V9.14111H173.953V28.6801C173.953 33.5311 176.797 37.0321 181.783 37.0321C186.634 37.0321 190.783 33.2791 190.783 28.0411V9.14111H197.776V42.0091H190.837V42.0181Z" fill="#4C3B66"/>
<path d="M228.736 42.0181V37.8151C226.468 41.2441 222.328 43.3141 218.125 43.3141C210.034 43.3141 204.796 37.3651 204.796 29.2111V9.14111H211.852V28.6801C211.852 33.5311 214.705 37.0321 219.682 37.0321C224.533 37.0321 228.673 33.2791 228.673 28.0411V9.14111H235.666V42.0091H228.736V42.0181Z" fill="#4C3B66"/>
<path d="M35.245 22.9831C35.245 22.9831 57.88 43.2601 69.877 28.7521C74.944 21.7591 74.359 11.9221 68.05 5.60412C61.057 -1.38888 49.717 -1.38888 42.724 5.60412L41.401 6.91812C38.863 9.46512 34.75 9.46513 32.212 6.92713L30.889 5.60412C23.896 -1.38888 12.556 -1.38888 5.56303 5.60412C-1.18697 12.3541 -1.39397 23.1271 4.87003 30.1561C8.06503 18.8071 21.061 11.5081 35.245 22.9831Z" fill="url(#paint0_linear_656_926)"/>
<path d="M11.4941 36.8433L25.3631 50.7123C28.2881 53.6373 32.3291 55.4463 36.8021 55.4373C41.2661 55.4283 45.3071 53.6103 48.2231 50.6763L68.0591 30.9303C68.7431 30.2463 69.3371 29.5083 69.8861 28.7523C57.8891 43.2603 35.2541 22.9833 35.2541 22.9833C21.0701 11.5083 8.07406 18.8073 4.88806 30.1563C5.11306 30.4173 5.33806 30.6783 5.58106 30.9303L11.4941 36.8433Z" fill="url(#paint1_linear_656_926)"/>
<path d="M173.352 60.5704V48.7886H174.779V54.0352H181.061V48.7886H182.488V60.5704H181.061V55.3008H174.779V60.5704H173.352Z" fill="black"/>
<path d="M185.344 60.5704V48.7886H192.454V50.0542H186.771V54.0352H192.086V55.3008H186.771V59.3048H192.546V60.5704H185.344Z" fill="black"/>
<path d="M195.509 60.5704H194.013L198.34 48.7886H199.812L204.138 60.5704H202.643L199.122 50.6525H199.03L195.509 60.5704ZM196.061 55.9681H202.09V57.2337H196.061V55.9681Z" fill="black"/>
<path d="M205.974 60.5704V48.7886H207.4V59.3048H212.877V60.5704H205.974Z" fill="black"/>
<path d="M212.876 50.0542V48.7886H221.712V50.0542H218.007V60.5704H216.58V50.0542H212.876Z" fill="black"/>
<path d="M223.914 60.5704V48.7886H225.34V54.0352H231.623V48.7886H233.049V60.5704H231.623V55.3008H225.34V60.5704H223.914Z" fill="black"/>
<defs>
<linearGradient id="paint0_linear_656_926" x1="36.81" y1="35.8689" x2="36.81" y2="-0.276745" gradientUnits="userSpaceOnUse">
<stop stop-color="#EE9E68"/>
<stop offset="0.4643" stop-color="#E7677E"/>
<stop offset="1" stop-color="#AD5D9E"/>
</linearGradient>
<linearGradient id="paint1_linear_656_926" x1="37.3782" y1="51.4007" x2="37.3782" y2="13.7917" gradientUnits="userSpaceOnUse">
<stop stop-color="#6B4379"/>
<stop offset="0.508" stop-color="#97619C"/>
<stop offset="1" stop-color="#9D66A2"/>
</linearGradient>
</defs>
</svg>
