<svg width="436" height="299" viewBox="0 0 436 299" fill="none" xmlns="http://www.w3.org/2000/svg">
<path opacity="0.26" d="M27.0458 298.79C27.0458 298.79 -26.4355 227.779 18.0013 150.9C57.4286 82.6883 103.397 87.3514 137.124 115.033C151.487 126.823 192.901 116.485 228.151 47.077C276.219 -47.5784 442.847 9.83017 412.465 155.459C397.762 225.932 457.21 228.494 426.92 298.94L27.0458 298.79Z" fill="#DFEBFD"/>
<g clip-path="url(#clip0_1233_8146)">
<path d="M346 94.1912H90V133.362H346V94.1912Z" fill="#D7E9FF"/>
<path d="M346 133.362H90V274H346V133.362Z" fill="white"/>
<path d="M114.704 115.605C118.636 115.605 121.825 112.396 121.825 108.438C121.825 104.479 118.636 101.27 114.704 101.27C110.771 101.27 107.583 104.479 107.583 108.438C107.583 112.396 110.771 115.605 114.704 115.605Z" fill="white"/>
<path d="M115.53 89H113.876C112.261 89 110.952 90.3176 110.952 91.943V108.002C110.952 109.627 112.261 110.945 113.876 110.945H115.53C117.145 110.945 118.454 109.627 118.454 108.002V91.943C118.454 90.3176 117.145 89 115.53 89Z" fill="#78ACEA"/>
<path d="M137.658 115.605C141.591 115.605 144.779 112.396 144.779 108.438C144.779 104.479 141.591 101.27 137.658 101.27C133.725 101.27 130.537 104.479 130.537 108.438C130.537 112.396 133.725 115.605 137.658 115.605Z" fill="white"/>
<path d="M138.485 89H136.831C135.216 89 133.907 90.3176 133.907 91.943V108.002C133.907 109.627 135.216 110.945 136.831 110.945H138.485C140.1 110.945 141.409 109.627 141.409 108.002V91.943C141.409 90.3176 140.1 89 138.485 89Z" fill="#78ACEA"/>
<path d="M160.613 115.605C164.546 115.605 167.734 112.396 167.734 108.438C167.734 104.479 164.546 101.27 160.613 101.27C156.68 101.27 153.492 104.479 153.492 108.438C153.492 112.396 156.68 115.605 160.613 115.605Z" fill="white"/>
<path d="M161.44 89H159.786C158.171 89 156.862 90.3176 156.862 91.943V108.002C156.862 109.627 158.171 110.945 159.786 110.945H161.44C163.055 110.945 164.364 109.627 164.364 108.002V91.943C164.364 90.3176 163.055 89 161.44 89Z" fill="#78ACEA"/>
<path d="M183.568 115.605C187.501 115.605 190.689 112.396 190.689 108.438C190.689 104.479 187.501 101.27 183.568 101.27C179.635 101.27 176.447 104.479 176.447 108.438C176.447 112.396 179.635 115.605 183.568 115.605Z" fill="white"/>
<path d="M184.394 89H182.74C181.125 89 179.816 90.3176 179.816 91.943V108.002C179.816 109.627 181.125 110.945 182.74 110.945H184.394C186.009 110.945 187.318 109.627 187.318 108.002V91.943C187.318 90.3176 186.009 89 184.394 89Z" fill="#78ACEA"/>
<path d="M206.523 115.605C210.456 115.605 213.644 112.396 213.644 108.438C213.644 104.479 210.456 101.27 206.523 101.27C202.59 101.27 199.402 104.479 199.402 108.438C199.402 112.396 202.59 115.605 206.523 115.605Z" fill="white"/>
<path d="M207.35 89H205.695C204.081 89 202.771 90.3176 202.771 91.943V108.002C202.771 109.627 204.081 110.945 205.695 110.945H207.35C208.964 110.945 210.273 109.627 210.273 108.002V91.943C210.273 90.3176 208.964 89 207.35 89Z" fill="#78ACEA"/>
<path d="M229.477 115.605C233.41 115.605 236.598 112.396 236.598 108.438C236.598 104.479 233.41 101.27 229.477 101.27C225.545 101.27 222.356 104.479 222.356 108.438C222.356 112.396 225.545 115.605 229.477 115.605Z" fill="white"/>
<path d="M230.305 89H228.65C227.036 89 225.727 90.3176 225.727 91.943V108.002C225.727 109.627 227.036 110.945 228.65 110.945H230.305C231.919 110.945 233.228 109.627 233.228 108.002V91.943C233.228 90.3176 231.919 89 230.305 89Z" fill="#78ACEA"/>
<path d="M252.432 115.605C256.365 115.605 259.553 112.396 259.553 108.438C259.553 104.479 256.365 101.27 252.432 101.27C248.5 101.27 245.312 104.479 245.312 108.438C245.312 112.396 248.5 115.605 252.432 115.605Z" fill="white"/>
<path d="M253.26 89H251.605C249.991 89 248.682 90.3176 248.682 91.943V108.002C248.682 109.627 249.991 110.945 251.605 110.945H253.26C254.874 110.945 256.184 109.627 256.184 108.002V91.943C256.184 90.3176 254.874 89 253.26 89Z" fill="#78ACEA"/>
<path d="M275.387 115.605C279.32 115.605 282.508 112.396 282.508 108.438C282.508 104.479 279.32 101.27 275.387 101.27C271.455 101.27 268.267 104.479 268.267 108.438C268.267 112.396 271.455 115.605 275.387 115.605Z" fill="white"/>
<path d="M276.214 89H274.56C272.945 89 271.636 90.3176 271.636 91.943V108.002C271.636 109.627 272.945 110.945 274.56 110.945H276.214C277.829 110.945 279.138 109.627 279.138 108.002V91.943C279.138 90.3176 277.829 89 276.214 89Z" fill="#78ACEA"/>
<path d="M298.342 115.605C302.275 115.605 305.463 112.396 305.463 108.438C305.463 104.479 302.275 101.27 298.342 101.27C294.41 101.27 291.222 104.479 291.222 108.438C291.222 112.396 294.41 115.605 298.342 115.605Z" fill="white"/>
<path d="M299.169 89H297.515C295.9 89 294.591 90.3176 294.591 91.943V108.002C294.591 109.627 295.9 110.945 297.515 110.945H299.169C300.784 110.945 302.093 109.627 302.093 108.002V91.943C302.093 90.3176 300.784 89 299.169 89Z" fill="#78ACEA"/>
<path d="M321.297 115.605C325.229 115.605 328.417 112.396 328.417 108.438C328.417 104.479 325.229 101.27 321.297 101.27C317.364 101.27 314.176 104.479 314.176 108.438C314.176 112.396 317.364 115.605 321.297 115.605Z" fill="white"/>
<path d="M322.124 89H320.47C318.855 89 317.546 90.3176 317.546 91.943V108.002C317.546 109.627 318.855 110.945 320.47 110.945H322.124C323.739 110.945 325.048 109.627 325.048 108.002V91.943C325.048 90.3176 323.739 89 322.124 89Z" fill="#78ACEA"/>
<path d="M139.784 147.049H109.708V164.982H139.784V147.049Z" fill="#ADD1FD"/>
<path d="M177.085 147.049H147.01V164.982H177.085V147.049Z" fill="#CDE2FE"/>
<path d="M214.387 147.049H184.312V164.982H214.387V147.049Z" fill="#ADD1FD"/>
<path d="M251.689 147.049H221.613V164.982H251.689V147.049Z" fill="#CDE2FE"/>
<path d="M288.991 147.049H258.915V164.982H288.991V147.049Z" fill="#ADD1FD"/>
<path d="M326.292 147.049H296.217V164.982H326.292V147.049Z" fill="#CDE2FE"/>
<path d="M139.784 170.154H109.708V188.088H139.784V170.154Z" fill="#CDE2FE"/>
<path d="M177.085 170.154H147.01V188.088H177.085V170.154Z" fill="#ADD1FD"/>
<path d="M214.387 170.154H184.312V188.088H214.387V170.154Z" fill="#CDE2FE"/>
<path d="M251.689 170.154H221.613V188.088H251.689V170.154Z" fill="#ADD1FD"/>
<path d="M288.991 170.154H258.915V188.088H288.991V170.154Z" fill="#CDE2FE"/>
<path d="M326.292 170.154H296.217V188.088H326.292V170.154Z" fill="#ADD1FD"/>
<path d="M139.784 193.259H109.708V211.193H139.784V193.259Z" fill="#ADD1FD"/>
<path d="M177.085 193.259H147.01V211.193H177.085V193.259Z" fill="#CDE2FE"/>
<path d="M214.387 193.259H184.312V211.193H214.387V193.259Z" fill="#ADD1FD"/>
<path d="M251.689 193.259H221.613V211.193H251.689V193.259Z" fill="#CDE2FE"/>
<path d="M288.991 193.259H258.915V211.193H288.991V193.259Z" fill="#ADD1FD"/>
<path d="M326.292 193.259H296.217V211.193H326.292V193.259Z" fill="#CDE2FE"/>
<path d="M139.784 216.365H109.708V234.298H139.784V216.365Z" fill="#CDE2FE"/>
<path d="M177.085 216.365H147.01V234.298H177.085V216.365Z" fill="#ADD1FD"/>
<path d="M214.387 216.365H184.312V234.298H214.387V216.365Z" fill="#CDE2FE"/>
<path d="M251.689 216.365H221.613V234.298H251.689V216.365Z" fill="#ADD1FD"/>
<path d="M288.991 216.365H258.915V234.298H288.991V216.365Z" fill="#CDE2FE"/>
<path d="M326.292 216.365H296.217V234.298H326.292V216.365Z" fill="#ADD1FD"/>
<path d="M139.784 239.47H109.708V257.403H139.784V239.47Z" fill="#ADD1FD"/>
<path d="M177.085 239.47H147.01V257.403H177.085V239.47Z" fill="#CDE2FE"/>
<path d="M214.387 239.47H184.312V257.403H214.387V239.47Z" fill="#ADD1FD"/>
<path d="M251.689 239.47H221.613V257.403H251.689V239.47Z" fill="#CDE2FE"/>
<path d="M288.991 239.47H258.915V257.403H288.991V239.47Z" fill="#ADD1FD"/>
<path d="M326.292 239.47H296.217V257.403H326.292V239.47Z" fill="#CDE2FE"/>
</g>
<defs>
<clipPath id="clip0_1233_8146">
<rect width="256" height="185" fill="white" transform="translate(90 89)"/>
</clipPath>
</defs>
</svg>
