<svg width="26" height="26" viewBox="0 0 26 26" fill="none" xmlns="http://www.w3.org/2000/svg">
<g clip-path="url(#clip0_719_2677)">
<path d="M8.83449 13C8.83449 10.6989 10.6994 8.833 13.0005 8.833C15.3016 8.833 17.1675 10.6989 17.1675 13C17.1675 15.3011 15.3016 17.167 13.0005 17.167C10.6994 17.167 8.83449 15.3011 8.83449 13ZM6.58189 13C6.58189 16.545 9.45549 19.4186 13.0005 19.4186C16.5455 19.4186 19.4191 16.545 19.4191 13C19.4191 9.455 16.5455 6.5814 13.0005 6.5814C9.45549 6.5814 6.58189 9.455 6.58189 13ZM18.1732 6.3269C18.1731 6.62357 18.2609 6.91362 18.4256 7.16036C18.5904 7.4071 18.8246 7.59945 19.0986 7.71309C19.3727 7.82673 19.6742 7.85656 19.9652 7.79879C20.2562 7.74103 20.5236 7.59828 20.7334 7.38858C20.9433 7.17889 21.0863 6.91167 21.1442 6.62072C21.2022 6.32978 21.1727 6.02816 21.0592 5.75403C20.9458 5.47989 20.7536 5.24555 20.507 5.08063C20.2604 4.91571 19.9705 4.82762 19.6738 4.8275H19.6732C19.2755 4.82769 18.8942 4.9857 18.6129 5.26683C18.3317 5.54797 18.1735 5.92924 18.1732 6.3269ZM7.95049 23.1747C6.73179 23.1192 6.06939 22.9162 5.62919 22.7447C5.04559 22.5175 4.62919 22.2469 4.19139 21.8097C3.75359 21.3725 3.48259 20.9565 3.25639 20.3729C3.08479 19.9329 2.88179 19.2703 2.82639 18.0516C2.76579 16.734 2.75369 16.3382 2.75369 13.0001C2.75369 9.662 2.76679 9.2673 2.82639 7.9486C2.88189 6.7299 3.08639 6.0686 3.25639 5.6273C3.48359 5.0437 3.75419 4.6273 4.19139 4.1895C4.62859 3.7517 5.04459 3.4807 5.62919 3.2545C6.06919 3.0829 6.73179 2.8799 7.95049 2.8245C9.26809 2.7639 9.66389 2.7518 13.0005 2.7518C16.3371 2.7518 16.7333 2.7649 18.052 2.8245C19.2707 2.88 19.932 3.0845 20.3733 3.2545C20.9569 3.4807 21.3733 3.7523 21.8111 4.1895C22.2489 4.6267 22.5189 5.0437 22.7461 5.6273C22.9177 6.0673 23.1207 6.7299 23.1761 7.9486C23.2367 9.2673 23.2488 9.662 23.2488 13.0001C23.2488 16.3382 23.2367 16.7329 23.1761 18.0516C23.1206 19.2703 22.9166 19.9327 22.7461 20.3729C22.5189 20.9565 22.2483 21.3729 21.8111 21.8097C21.3739 22.2465 20.9569 22.5175 20.3733 22.7447C19.9333 22.9163 19.2707 23.1193 18.052 23.1747C16.7344 23.2353 16.3386 23.2474 13.0005 23.2474C9.66239 23.2474 9.26769 23.2353 7.95049 23.1747ZM7.84699 0.5757C6.51629 0.6363 5.60699 0.8473 4.81289 1.1563C3.99049 1.4754 3.29429 1.9035 2.59859 2.5981C1.90289 3.2927 1.47589 3.99 1.15679 4.8124C0.847788 5.607 0.636788 6.5158 0.576188 7.8465C0.514588 9.1793 0.500488 9.6054 0.500488 13C0.500488 16.3946 0.514588 16.8207 0.576188 18.1535C0.636788 19.4843 0.847788 20.393 1.15679 21.1876C1.47589 22.0095 1.90299 22.7076 2.59859 23.4019C3.29419 24.0962 3.99049 24.5237 4.81289 24.8437C5.60849 25.1527 6.51629 25.3637 7.84699 25.4243C9.18049 25.4849 9.60589 25.5 13.0005 25.5C16.3951 25.5 16.8212 25.4859 18.154 25.4243C19.4848 25.3637 20.3935 25.1527 21.1881 24.8437C22.01 24.5237 22.7067 24.0965 23.4024 23.4019C24.0981 22.7073 24.5242 22.0095 24.8442 21.1876C25.1532 20.393 25.3652 19.4842 25.4248 18.1535C25.4854 16.8197 25.4995 16.3946 25.4995 13C25.4995 9.6054 25.4854 9.1793 25.4248 7.8465C25.3642 6.5157 25.1532 5.6065 24.8442 4.8124C24.5242 3.9905 24.097 3.2938 23.4024 2.5981C22.7078 1.9024 22.01 1.4754 21.1891 1.1563C20.3935 0.8473 19.4847 0.6353 18.155 0.5757C16.8222 0.5151 16.3961 0.5 13.0015 0.5C9.60689 0.5 9.18049 0.5141 7.84699 0.5757Z" fill="url(#paint0_radial_719_2677)"/>
<path d="M8.83449 13C8.83449 10.6989 10.6994 8.833 13.0005 8.833C15.3016 8.833 17.1675 10.6989 17.1675 13C17.1675 15.3011 15.3016 17.167 13.0005 17.167C10.6994 17.167 8.83449 15.3011 8.83449 13ZM6.58189 13C6.58189 16.545 9.45549 19.4186 13.0005 19.4186C16.5455 19.4186 19.4191 16.545 19.4191 13C19.4191 9.455 16.5455 6.5814 13.0005 6.5814C9.45549 6.5814 6.58189 9.455 6.58189 13ZM18.1732 6.3269C18.1731 6.62357 18.2609 6.91362 18.4257 7.16036C18.5904 7.4071 18.8246 7.59945 19.0986 7.71309C19.3727 7.82673 19.6742 7.85656 19.9652 7.79879C20.2562 7.74103 20.5236 7.59828 20.7334 7.38858C20.9433 7.17889 21.0863 6.91167 21.1442 6.62072C21.2022 6.32978 21.1727 6.02816 21.0592 5.75403C20.9458 5.47989 20.7536 5.24555 20.507 5.08063C20.2604 4.91571 19.9705 4.82762 19.6738 4.8275H19.6732C19.2755 4.82769 18.8942 4.9857 18.6129 5.26683C18.3317 5.54797 18.1735 5.92924 18.1732 6.3269ZM7.95049 23.1747C6.73179 23.1192 6.06939 22.9162 5.62919 22.7447C5.04559 22.5175 4.62919 22.2469 4.19139 21.8097C3.75359 21.3725 3.48259 20.9565 3.25639 20.3729C3.08479 19.9329 2.88179 19.2703 2.82639 18.0516C2.76579 16.734 2.75369 16.3382 2.75369 13.0001C2.75369 9.662 2.76679 9.2673 2.82639 7.9486C2.88189 6.7299 3.08639 6.0686 3.25639 5.6273C3.48359 5.0437 3.75419 4.6273 4.19139 4.1895C4.62859 3.7517 5.04459 3.4807 5.62919 3.2545C6.06919 3.0829 6.73179 2.8799 7.95049 2.8245C9.26809 2.7639 9.66389 2.7518 13.0005 2.7518C16.3371 2.7518 16.7333 2.7649 18.052 2.8245C19.2707 2.88 19.932 3.0845 20.3733 3.2545C20.9569 3.4807 21.3733 3.7523 21.8111 4.1895C22.2489 4.6267 22.5189 5.0437 22.7461 5.6273C22.9177 6.0673 23.1207 6.7299 23.1761 7.9486C23.2367 9.2673 23.2488 9.662 23.2488 13.0001C23.2488 16.3382 23.2367 16.7329 23.1761 18.0516C23.1206 19.2703 22.9166 19.9327 22.7461 20.3729C22.5189 20.9565 22.2483 21.3729 21.8111 21.8097C21.3739 22.2465 20.9569 22.5175 20.3733 22.7447C19.9333 22.9163 19.2707 23.1193 18.052 23.1747C16.7344 23.2353 16.3386 23.2474 13.0005 23.2474C9.66239 23.2474 9.26769 23.2353 7.95049 23.1747ZM7.84699 0.5757C6.51629 0.6363 5.60699 0.8473 4.81289 1.1563C3.99049 1.4754 3.29429 1.9035 2.59859 2.5981C1.90289 3.2927 1.47589 3.99 1.15679 4.8124C0.847788 5.607 0.636788 6.5158 0.576188 7.8465C0.514588 9.1793 0.500488 9.6054 0.500488 13C0.500488 16.3946 0.514588 16.8207 0.576188 18.1535C0.636788 19.4843 0.847788 20.393 1.15679 21.1876C1.47589 22.0095 1.90299 22.7076 2.59859 23.4019C3.29419 24.0962 3.99049 24.5237 4.81289 24.8437C5.60849 25.1527 6.51629 25.3637 7.84699 25.4243C9.18049 25.4849 9.60589 25.5 13.0005 25.5C16.3951 25.5 16.8212 25.4859 18.154 25.4243C19.4848 25.3637 20.3935 25.1527 21.1881 24.8437C22.01 24.5237 22.7067 24.0965 23.4024 23.4019C24.0981 22.7073 24.5242 22.0095 24.8442 21.1876C25.1532 20.393 25.3652 19.4842 25.4248 18.1535C25.4854 16.8197 25.4995 16.3946 25.4995 13C25.4995 9.6054 25.4854 9.1793 25.4248 7.8465C25.3642 6.5157 25.1532 5.6065 24.8442 4.8124C24.5242 3.9905 24.097 3.2938 23.4024 2.5981C22.7078 1.9024 22.01 1.4754 21.1891 1.1563C20.3935 0.8473 19.4847 0.6353 18.155 0.5757C16.8222 0.5151 16.3961 0.5 13.0015 0.5C9.60689 0.5 9.18049 0.5141 7.84699 0.5757Z" fill="url(#paint1_radial_719_2677)"/>
</g>
<defs>
<radialGradient id="paint0_radial_719_2677" cx="0" cy="0" r="1" gradientUnits="userSpaceOnUse" gradientTransform="translate(3.82189 25.6181) scale(32.6354 32.6354)">
<stop offset="0.09" stop-color="#FA8F21"/>
<stop offset="0.78" stop-color="#D82D7E"/>
</radialGradient>
<radialGradient id="paint1_radial_719_2677" cx="0" cy="0" r="1" gradientUnits="userSpaceOnUse" gradientTransform="translate(15.6619 26.7381) scale(25.7212)">
<stop offset="0.64" stop-color="#8C3AAA" stop-opacity="0"/>
<stop offset="1" stop-color="#8C3AAA"/>
</radialGradient>
<clipPath id="clip0_719_2677">
<rect width="25" height="25" fill="white" transform="translate(0.5 0.5)"/>
</clipPath>
</defs>
</svg>
