<svg width="24" height="24" viewBox="0 0 24 24" fill="none" xmlns="http://www.w3.org/2000/svg">
<path d="M16.8509 12.1262C16.8191 11.7562 16.7497 11.3877 16.6416 11.0268C16.3832 10.1643 15.9079 9.36951 15.2671 8.72887C14.6659 8.12774 13.9297 7.67228 13.1285 7.40479L11.2991 9.23417C11.2626 9.27088 11.2277 9.3088 11.1936 9.34753C11.1843 9.35802 11.1752 9.36871 11.1662 9.3792C11.1377 9.41248 11.1103 9.44637 11.0838 9.48107C11.0788 9.48773 11.0734 9.49438 11.0681 9.50104C11.0379 9.54159 11.009 9.58334 10.9814 9.6255C10.9741 9.6366 10.9673 9.64769 10.9602 9.65899C10.9382 9.69368 10.9172 9.72898 10.8971 9.76489C10.8912 9.77538 10.8852 9.78546 10.8793 9.79616C10.8553 9.84053 10.8325 9.88552 10.8111 9.93131C10.8065 9.94119 10.8024 9.95128 10.7978 9.96116C10.7879 9.98315 10.7793 10.0055 10.77 10.0277C11.6287 9.97165 12.4712 10.2839 13.0915 10.904C13.8238 11.6362 14.1265 12.6783 13.9012 13.6915C13.7925 14.1805 13.5646 14.6319 13.2376 15.0087C13.1908 15.0626 13.1422 15.1148 13.0915 15.1655L8.37136 19.8856C7.19636 21.0604 5.28487 21.0604 4.11007 19.8856C2.93527 18.7108 2.93527 16.7991 4.11007 15.6243L6.76222 12.9722C6.76202 12.971 6.76162 12.97 6.76142 12.9687C6.74326 12.9008 6.72652 12.8326 6.71058 12.7642C6.70595 12.744 6.70171 12.7239 6.69727 12.7039C6.68618 12.6537 6.67569 12.6032 6.66601 12.5528C6.66177 12.5308 6.65753 12.509 6.6535 12.487C6.64301 12.429 6.63313 12.3707 6.62445 12.3122C6.62284 12.3009 6.62082 12.2898 6.61901 12.2785C6.60892 12.2099 6.60045 12.1413 6.59278 12.0725C6.59056 12.0519 6.58875 12.0316 6.58653 12.011C6.58149 11.9608 6.57705 11.9103 6.57322 11.8601C6.5714 11.8371 6.56979 11.8141 6.56837 11.7911C6.56474 11.7355 6.56212 11.6798 6.5601 11.6241C6.5595 11.6098 6.55869 11.5957 6.55829 11.5815C6.55627 11.513 6.55567 11.4446 6.55587 11.376C6.55587 11.3556 6.55647 11.3354 6.55667 11.3153C6.55748 11.2648 6.55869 11.2146 6.56071 11.1642C6.56152 11.141 6.56252 11.1178 6.56373 11.0946C6.56636 11.0407 6.56999 10.9871 6.57402 10.9334C6.57523 10.9175 6.57604 10.9015 6.57745 10.8854C6.5833 10.8172 6.59036 10.7492 6.59843 10.6815C6.60065 10.6623 6.60347 10.6433 6.60589 10.6244C6.61235 10.5738 6.61941 10.5229 6.62728 10.4725C6.6307 10.4497 6.63434 10.4271 6.63817 10.4045C6.64684 10.3521 6.65632 10.2996 6.66641 10.2474C6.66964 10.231 6.67246 10.2145 6.67569 10.1982C6.6892 10.131 6.70393 10.0638 6.71966 9.99705C6.7237 9.9801 6.72813 9.96336 6.73217 9.94641C6.74488 9.89498 6.75799 9.84374 6.77191 9.7927C6.77776 9.77132 6.78381 9.74994 6.78986 9.72856C6.80459 9.67732 6.81971 9.62629 6.83585 9.57546C6.84089 9.55932 6.84574 9.54318 6.85078 9.52684C6.87196 9.46109 6.89435 9.39552 6.91795 9.33057C6.91916 9.32714 6.92017 9.32371 6.92138 9.32028L1.93476 14.3069C-0.202862 16.4447 -0.202862 19.9227 1.93476 22.0606C2.97039 23.0962 4.3471 23.6665 5.81154 23.6665C7.27599 23.6665 8.65275 23.0962 9.68833 22.0606L15.2664 16.4825C15.4587 16.2902 15.6382 16.0821 15.7998 15.8638V15.8636C16.0551 15.5189 16.2661 15.1476 16.4315 14.7584C16.6328 14.2846 16.766 13.7846 16.8287 13.275C16.8561 13.0521 16.8705 12.8274 16.8707 12.6023C16.8707 12.5494 16.8701 12.4966 16.8684 12.4435C16.8658 12.3378 16.8598 12.2319 16.8507 12.1264L16.8509 12.1262Z" fill="#232020"/>
<path d="M18.1793 0.332894C16.7149 0.332894 15.3381 0.90315 14.3026 1.93878L8.72445 7.51688C8.53221 7.70912 8.35289 7.91709 8.19112 8.13553C8.19112 8.13553 8.19112 8.13573 8.19092 8.13573C7.16985 9.51425 6.85536 11.3225 7.34976 12.9727C7.60816 13.8352 8.0834 14.63 8.72425 15.2707C9.32538 15.8718 10.0618 16.3273 10.8628 16.5945L12.6922 14.7652C12.7287 14.7286 12.7636 14.6905 12.7977 14.6518C12.807 14.6413 12.8161 14.6306 12.8252 14.6201C12.8536 14.5868 12.881 14.5528 12.9077 14.5181C12.9127 14.5114 12.9182 14.5049 12.9232 14.4981C12.9537 14.4573 12.9823 14.4158 13.0101 14.3732C13.0172 14.3623 13.0241 14.3512 13.0311 14.3401C13.0531 14.3052 13.0743 14.2697 13.0947 14.2336C13.1005 14.2233 13.1064 14.2133 13.112 14.203C13.1362 14.1586 13.159 14.1134 13.1804 14.0676C13.185 14.0579 13.1891 14.0479 13.1935 14.038C13.2034 14.016 13.2121 13.9936 13.2213 13.9714C12.3622 14.0273 11.5201 13.7152 10.8998 13.0951C10.1675 12.3629 9.86477 11.3208 10.0901 10.3076C10.1988 9.81866 10.4267 9.36722 10.7537 8.9904C10.8005 8.93654 10.8492 8.8843 10.8998 8.83367L15.6199 4.1135C16.189 3.54428 16.9458 3.23098 17.7507 3.23098C18.5556 3.23098 19.3122 3.54445 19.8814 4.1135C21.0562 5.2883 21.0562 7.2 19.8814 8.3748L17.2293 11.027C17.2295 11.0282 17.2299 11.0292 17.2301 11.0304C17.2483 11.0984 17.265 11.1665 17.2809 11.2349C17.2856 11.2551 17.2898 11.2753 17.2942 11.2952C17.3053 11.3455 17.3158 11.3959 17.3255 11.4463C17.3298 11.4683 17.334 11.4901 17.338 11.5121C17.3487 11.5704 17.3584 11.6287 17.3673 11.687C17.3689 11.6981 17.3709 11.7094 17.3727 11.7205C17.3828 11.789 17.3913 11.8576 17.3989 11.9264C17.4012 11.9468 17.403 11.9674 17.4052 11.9877C17.4102 12.038 17.4147 12.0884 17.4185 12.1388C17.4203 12.1618 17.4219 12.1846 17.4233 12.2076C17.427 12.2633 17.4296 12.3189 17.4316 12.3748C17.4322 12.3889 17.433 12.4033 17.4334 12.4174C17.4354 12.486 17.4361 12.5544 17.4359 12.6229C17.4357 12.6433 17.4352 12.6635 17.435 12.6837C17.4342 12.7339 17.433 12.7843 17.431 12.8345C17.4302 12.8577 17.4292 12.8809 17.428 12.9043C17.4254 12.958 17.4217 13.0117 17.4177 13.0651C17.4165 13.0812 17.4155 13.0972 17.4143 13.1133C17.4084 13.1813 17.4014 13.2493 17.3935 13.3171C17.3913 13.3362 17.3884 13.3554 17.386 13.3745C17.3796 13.4252 17.3725 13.4756 17.3646 13.5258C17.3612 13.5486 17.3576 13.5716 17.3538 13.5942C17.3451 13.6465 17.3356 13.6985 17.3257 13.7505C17.3225 13.7673 17.3197 13.7838 17.3162 13.8006C17.3027 13.8677 17.288 13.9345 17.2723 14.0013C17.2682 14.0184 17.2636 14.0356 17.2594 14.0529C17.2468 14.1039 17.2337 14.1548 17.2198 14.2056C17.214 14.2274 17.2079 14.249 17.2017 14.2708C17.1871 14.3216 17.1718 14.3722 17.1561 14.4227C17.151 14.4392 17.146 14.4557 17.1407 14.4721C17.1196 14.5376 17.0972 14.603 17.0738 14.6679C17.0726 14.6714 17.0716 14.675 17.0701 14.6784L22.0568 9.69181C23.0924 8.65618 23.6627 7.27947 23.6627 5.81502C23.6627 4.35058 23.0924 2.97382 22.0568 1.93824C21.0208 0.903019 19.644 0.332764 18.1796 0.332764L18.1793 0.332894Z" fill="#232020"/>
</svg>
