<svg width="24" height="23" viewBox="0 0 24 23" fill="none" xmlns="http://www.w3.org/2000/svg">
<path d="M0.333496 2.75684C0.333496 2.00607 0.596266 1.3867 1.12178 0.89873C1.6473 0.410735 2.3305 0.166748 3.17133 0.166748C3.99717 0.166748 4.66532 0.406973 5.17584 0.887469C5.70136 1.38296 5.96413 2.02859 5.96413 2.82441C5.96413 3.54513 5.70888 4.14571 5.19836 4.62621C4.67284 5.1217 3.98214 5.36945 3.12629 5.36945H3.10377C2.27793 5.36945 1.60978 5.1217 1.09926 4.62621C0.588744 4.13071 0.333496 3.50758 0.333496 2.75684ZM0.626289 22.464V7.419H5.62629V22.464H0.626289ZM8.39656 22.464H13.3966V14.0631C13.3966 13.5376 13.4566 13.1322 13.5767 12.8469C13.7869 12.3364 14.106 11.9047 14.5339 11.5519C14.9619 11.199 15.4987 11.0226 16.1443 11.0226C17.826 11.0226 18.6668 12.1562 18.6668 14.4235V22.464H23.6668V13.8379C23.6668 11.6157 23.1413 9.93026 22.0903 8.78161C21.0392 7.63296 19.6503 7.05864 17.9236 7.05864C15.9867 7.05864 14.4776 7.89197 13.3966 9.55864V9.60368H13.374L13.3966 9.55864V7.419H8.39656C8.42658 7.89947 8.4416 9.39346 8.4416 11.901C8.4416 14.4085 8.42658 17.9295 8.39656 22.464Z" fill="#0A66C2"/>
</svg>
