<svg width="26" height="22" viewBox="0 0 26 22" fill="none" xmlns="http://www.w3.org/2000/svg">
<path d="M8.36225 21.158C17.7966 21.158 22.956 13.3391 22.956 6.55878C22.956 6.33673 22.9515 6.11569 22.9415 5.89557C23.9454 5.1689 24.8117 4.26917 25.5 3.23856C24.5809 3.6473 23.592 3.9224 22.5545 4.04643C23.6135 3.41122 24.4264 2.40629 24.81 1.20842C23.8031 1.80593 22.7016 2.22714 21.553 2.4539C20.617 1.45654 19.2845 0.832764 17.809 0.832764C14.9765 0.832764 12.6795 3.13063 12.6795 5.9631C12.6795 6.36579 12.7246 6.75736 12.8126 7.13307C8.54964 6.91849 4.76956 4.87672 2.23974 1.77209C1.78409 2.55514 1.54443 3.44509 1.54522 4.35106C1.54522 6.13124 2.45071 7.70273 3.82774 8.62214C3.01321 8.59726 2.21656 8.37717 1.50478 7.98038C1.50401 8.00192 1.50401 8.02291 1.50401 8.04593C1.50401 10.5308 3.272 12.6056 5.61895 13.0757C5.17816 13.1958 4.72332 13.2565 4.26646 13.2562C3.93653 13.2562 3.61499 13.2238 3.30249 13.1638C3.95549 15.2025 5.84898 16.6861 8.09395 16.7275C6.33841 18.104 4.12698 18.9239 1.72348 18.9239C1.31461 18.9242 0.906076 18.9005 0.5 18.8528C2.77002 20.3083 5.46545 21.1576 8.3625 21.1576" fill="#1DA1F2"/>
</svg>
